<svg width="36" height="41" viewBox="0 0 36 41" fill="none" xmlns="http://www.w3.org/2000/svg">
<path d="M3 17.039C3 18.599 3.141 20.067 3.396 21.443C5.609 33.425 16.456 38.5 18.383 38.5C20.31 38.5 31.155 33.425 33.369 21.443C33.623 20.067 33.764 18.6 33.764 17.039V8.96C28.606 7.562 23.21 5.323 18.383 2.5C13.566 5.329 8.39255 7.50156 3 8.96V17.039Z" stroke="#383838" stroke-width="2" stroke-miterlimit="10" stroke-linecap="round" stroke-linejoin="round"/>
<path d="M23 20.5H16C14.3431 20.5 13 21.8431 13 23.5V26.5C13 28.1569 14.3431 29.5 16 29.5H23C24.6569 29.5 26 28.1569 26 26.5V23.5C26 21.8431 24.6569 20.5 23 20.5Z" fill="#5ED76A"/>
<path fill-rule="evenodd" clip-rule="evenodd" d="M10 20.9918C10 18.9408 11.697 17.2778 13.79 17.2778H22.21C24.303 17.2778 26 18.9408 26 20.9918V25.1188C26 27.1698 24.303 28.8328 22.21 28.8328H13.79C11.697 28.8328 10 27.1698 10 25.1188V20.9918ZM13.79 19.2038C12.782 19.2038 11.965 20.0038 11.965 20.9918V25.1188C11.965 26.1068 12.782 26.9068 13.79 26.9068H22.21C23.218 26.9068 24.035 26.1068 24.035 25.1188V20.9918C24.035 20.0038 23.218 19.2038 22.21 19.2038H13.79Z" fill="#383838"/>
<path d="M23.3279 17.5351C23.3607 16.761 23.248 15.9876 22.9959 15.2551C22.749 14.5357 22.3652 13.8708 21.8659 13.2971C21.381 12.7406 20.7862 12.2905 20.1189 11.9751C19.466 11.6681 18.7544 11.506 18.0329 11.5001C17.3122 11.4967 16.5992 11.6492 15.9429 11.9471C15.2809 12.2471 14.6809 12.6891 14.1799 13.2451C13.6744 13.8122 13.2833 14.4716 13.0279 15.1871C12.7671 15.9166 12.6453 16.6886 12.6689 17.4631L14.4729 17.4001C14.4572 16.888 14.5376 16.3775 14.7099 15.8951C14.8819 15.4151 15.1409 14.9781 15.4729 14.6101C15.8039 14.2411 16.2009 13.9501 16.6389 13.7501C17.0769 13.5521 17.5469 13.4521 18.0219 13.4551C18.4992 13.4587 18.97 13.5658 19.4019 13.7691C19.8369 13.9741 20.2309 14.2711 20.5579 14.6441C20.8849 15.0171 21.1389 15.4571 21.3049 15.9391C21.4709 16.4211 21.5469 16.9341 21.5249 17.4481L23.3279 17.5351ZM19.3329 22.1671C19.3329 22.5206 19.1925 22.8596 18.9425 23.1096C18.6925 23.3596 18.3534 23.5001 17.9999 23.5001C17.6464 23.5001 17.3073 23.3596 17.0573 23.1096C16.8073 22.8596 16.6669 22.5206 16.6669 22.1671C16.6669 21.8135 16.8073 21.4745 17.0573 21.2245C17.3073 20.9745 17.6464 20.8341 17.9999 20.8341C18.3534 20.8341 18.6925 20.9745 18.9425 21.2245C19.1925 21.4745 19.3329 21.8135 19.3329 22.1671Z" fill="#383838"/>
<path d="M17.333 22.833C17.333 22.6561 17.4033 22.4865 17.5284 22.3614C17.6535 22.2363 17.8231 22.166 18 22.166C18.1769 22.166 18.3466 22.2363 18.4716 22.3614C18.5967 22.4865 18.667 22.6561 18.667 22.833V24.5C18.667 24.6769 18.5967 24.8466 18.4716 24.9717C18.3466 25.0967 18.1769 25.167 18 25.167C17.8231 25.167 17.6535 25.0967 17.5284 24.9717C17.4033 24.8466 17.333 24.6769 17.333 24.5V22.833Z" fill="#383838"/>
</svg>
