<svg width="36" height="36" viewBox="0 0 36 36" fill="none" xmlns="http://www.w3.org/2000/svg">
<path d="M22 32C29.732 32 36 25.732 36 18C36 10.268 29.732 4 22 4C14.268 4 8 10.268 8 18C8 25.732 14.268 32 22 32Z" fill="#5ED76A"/>
<path d="M27.3169 6.68315C24.2966 3.66292 20.2787 2 16 2C11.7213 2 7.71236 3.66292 4.68315 6.68315C1.66292 9.70337 0 13.7213 0 18C0 22.2697 1.66292 26.2876 4.68315 29.3169C7.70337 32.3371 11.7213 34 16 34C20.2787 34 24.2876 32.3371 27.3169 29.3169C30.3371 26.2966 32 22.2787 32 18C32 13.7213 30.3371 9.70337 27.3169 6.68315ZM7.9191 6.3236V16.5438H1.87865C2.31011 12.3101 4.60225 8.62472 7.9191 6.3236ZM7.9191 22.3685H2.48989C2.18427 21.4337 1.97753 20.4629 1.87865 19.4562H7.9191V22.3685ZM3.81124 25.2899H7.9191V29.6764C6.25618 28.5258 4.85393 27.0247 3.81124 25.2899ZM16 32.1933C14.1753 32.1933 12.4315 31.8517 10.8315 31.2225V25.2809H17.4652V22.3685H10.8315V19.4562L14.7596 19.4652C21.2404 19.4652 24.009 16.1483 24.009 12.1213C24.009 8.22921 21.7438 4.84045 14.7596 4.84045L10.5708 4.8764C12.2427 4.18427 14.0764 3.80674 15.991 3.80674C23.8292 3.80674 30.1933 10.1618 30.1933 18.009C30.1933 25.8562 23.8472 32.1933 16 32.1933ZM10.8404 16.5438V7.79775L14.9483 7.77079C18.9483 7.77079 20.7101 9.41573 20.7101 12.2292C20.7101 15.0697 18.6966 16.5528 14.6966 16.5528L10.8404 16.5438Z" fill="#2B2B2B"/>
</svg>
