<svg width="36" height="36" viewBox="0 0 36 36" fill="none" xmlns="http://www.w3.org/2000/svg">
<rect x="1" y="1" width="34" height="34" rx="9" stroke="#5ED76A" stroke-width="2"/>
<path d="M13.1761 26.9411H10.9102L21.7342 10H24.0002L13.1761 26.9411Z" fill="#5ED76A"/>
<path d="M8.24988 13.0208L8.24997 13.0208L8.25522 13.0083C8.42618 12.5993 8.66313 12.2507 8.96782 11.9538L8.96782 11.9538C9.27742 11.652 9.63133 11.4188 10.0358 11.2511C10.4609 11.0832 10.8981 11 11.3538 11C11.8117 11 12.2362 11.084 12.6355 11.2486L12.6355 11.2487L12.6477 11.2536C13.0743 11.4229 13.435 11.6567 13.7398 11.9538L14.3101 11.3687L13.7398 11.9538C14.0445 12.2507 14.2815 12.5993 14.4524 13.0083L14.4523 13.0083L14.4578 13.0208C14.6218 13.3986 14.7076 13.8123 14.7076 14.2728C14.7076 15.1562 14.3976 15.8918 13.7398 16.5328C13.4303 16.8345 13.0626 17.0812 12.6275 17.2708C12.2305 17.4332 11.8087 17.5161 11.3538 17.5161C10.9033 17.5161 10.4709 17.4348 10.0504 17.2707C9.63928 17.083 9.2803 16.8374 8.96782 16.5328C8.31004 15.8917 8 15.1562 8 14.2728C8 13.8123 8.08586 13.3986 8.24988 13.0208ZM21.512 21.5342L21.5121 21.5342L21.5173 21.5217C21.6883 21.1127 21.9253 20.7641 22.2299 20.4672C22.5395 20.1654 22.8934 19.9322 23.2979 19.7645C23.723 19.5966 24.1602 19.5134 24.6159 19.5134C25.0987 19.5134 25.5326 19.599 25.9279 19.762L25.9279 19.7621L25.9401 19.7669C26.3667 19.9363 26.7273 20.1701 27.0322 20.4672C27.3369 20.7641 27.5738 21.1127 27.7448 21.5217L27.7447 21.5217L27.7501 21.5342C27.916 21.9163 28 22.3207 28 22.7567C28 23.1905 27.9168 23.6075 27.7474 24.0149C27.5782 24.4025 27.3416 24.7446 27.0322 25.0462C26.7273 25.3433 26.3667 25.577 25.9401 25.7464L25.94 25.7464L25.9279 25.7514C25.5326 25.9143 25.0987 26 24.6159 26C24.1602 26 23.723 25.9168 23.298 25.7489C22.8935 25.5812 22.5395 25.348 22.2299 25.0462C21.9205 24.7446 21.6839 24.4025 21.5147 24.0149C21.3453 23.6075 21.2621 23.1905 21.2621 22.7567C21.2621 22.3207 21.3461 21.9163 21.512 21.5342Z" stroke="#5ED76A" stroke-width="2"/>
</svg>
