<svg width="36" height="37" viewBox="0 0 36 37" fill="none" xmlns="http://www.w3.org/2000/svg">
<path d="M31 18.5H22C21.4477 18.5 21 18.9477 21 19.5V32.5C21 33.0523 21.4477 33.5 22 33.5H31C31.5523 33.5 32 33.0523 32 32.5V19.5C32 18.9477 31.5523 18.5 31 18.5Z" fill="#5ED76A"/>
<path d="M16.56 24.3198H5.34C4.02 24.3198 3 23.2998 3 21.9798V6.1398C3 4.8798 4.02 3.7998 5.34 3.7998H26.46C27.72 3.7998 28.8 4.8198 28.8 6.1398V14.0598C28.7912 14.2129 28.7241 14.3569 28.6125 14.4622C28.501 14.5675 28.3534 14.6261 28.2 14.6261C28.0466 14.6261 27.899 14.5675 27.7875 14.4622C27.6759 14.3569 27.6088 14.2129 27.6 14.0598V6.1398C27.6 5.5398 27.12 4.9998 26.46 4.9998H5.34C4.68 5.0598 4.2 5.5398 4.2 6.1398V21.9798C4.2 22.5798 4.68 23.1198 5.34 23.1198H16.56C16.86 23.1198 17.16 23.3598 17.16 23.7198C17.16 24.0198 16.86 24.3198 16.56 24.3198Z" fill="#2B2B2B" stroke="#2B2B2B" stroke-width="0.8"/>
<path d="M26.5801 24.6799C22.6201 24.6799 19.5601 23.0599 19.5601 21.0199C19.5601 18.9799 22.6201 17.3599 26.5801 17.3599C30.5401 17.3599 33.6001 18.9799 33.6001 21.0199C33.6001 23.0599 30.5401 24.6799 26.5801 24.6799ZM26.5801 18.5599C23.1601 18.5599 20.7601 19.8799 20.7601 21.0199C20.7601 22.1599 23.1601 23.4799 26.5801 23.4799C30.0001 23.4799 32.4001 22.1599 32.4001 21.0199C32.4001 19.8199 30.0001 18.5599 26.5801 18.5599ZM26.5801 29.2399C22.6201 29.2399 19.5601 27.6199 19.5601 25.5799C19.5689 25.4267 19.636 25.2828 19.7475 25.1775C19.8591 25.0722 20.0067 25.0135 20.1601 25.0135C20.3135 25.0135 20.461 25.0722 20.5726 25.1775C20.6841 25.2828 20.7512 25.4267 20.7601 25.5799C20.7601 26.7199 23.1601 28.0399 26.5801 28.0399C30.0001 28.0399 32.4001 26.7199 32.4001 25.5799C32.4001 25.2799 32.6401 24.9799 33.0001 24.9799C33.3601 24.9799 33.6001 25.2199 33.6001 25.5799C33.6001 27.6199 30.5401 29.2399 26.5801 29.2399Z" fill="#2B2B2B" stroke="#2B2B2B" stroke-width="0.8"/>
<path d="M26.58 34.0999C22.62 34.0999 19.56 32.4799 19.56 30.4399V21.0199C19.5688 20.8668 19.6359 20.7228 19.7474 20.6175C19.859 20.5122 20.0066 20.4536 20.16 20.4536C20.3134 20.4536 20.461 20.5122 20.5725 20.6175C20.6841 20.7228 20.7511 20.8668 20.76 21.0199V30.4999C20.76 31.6399 23.16 32.9599 26.58 32.9599C30 32.9599 32.4 31.6399 32.4 30.4999V21.0199C32.4 20.7199 32.64 20.4199 33 20.4199C33.36 20.4199 33.6 20.6599 33.6 21.0199V30.4999C33.6 32.4799 30.54 34.0999 26.58 34.0999ZM15.9 30.1999H8.57998C8.27998 30.1999 7.97998 29.9599 7.97998 29.5999C7.97998 29.2399 8.21998 28.9999 8.57998 28.9999H15.9C16.2 28.9999 16.5 29.2399 16.5 29.5999C16.5 29.9599 16.2 30.1999 15.9 30.1999Z" fill="#2B2B2B" stroke="#2B2B2B" stroke-width="0.8"/>
<path d="M10.9202 29.6001H10.7402C10.4402 29.4801 10.2602 29.1801 10.3202 28.8801L11.8802 23.9601C12.0002 23.6601 12.3002 23.4801 12.6002 23.5401C12.9002 23.6601 13.0802 23.9601 13.0202 24.2601L11.4602 29.1801C11.4602 29.4201 11.2202 29.6001 10.9202 29.6001ZM19.8602 11.8401H10.7402C10.587 11.8313 10.4431 11.7642 10.3378 11.6527C10.2325 11.5411 10.1738 11.3935 10.1738 11.2401C10.1738 11.0867 10.2325 10.9392 10.3378 10.8276C10.4431 10.716 10.587 10.649 10.7402 10.6401H19.8602C20.0133 10.649 20.1573 10.716 20.2626 10.8276C20.3679 10.9392 20.4265 11.0867 20.4265 11.2401C20.4265 11.3935 20.3679 11.5411 20.2626 11.6527C20.1573 11.7642 20.0133 11.8313 19.8602 11.8401ZM19.8602 16.4601H10.7402C10.587 16.4513 10.4431 16.3842 10.3378 16.2727C10.2325 16.1611 10.1738 16.0135 10.1738 15.8601C10.1738 15.7067 10.2325 15.5592 10.3378 15.4476C10.4431 15.336 10.587 15.269 10.7402 15.2601H19.8602C20.1602 15.2601 20.4602 15.5001 20.4602 15.8601C20.4602 16.2201 20.2202 16.4601 19.8602 16.4601Z" fill="#2B2B2B" stroke="#2B2B2B" stroke-width="0.8"/>
</svg>
