<svg width="36" height="36" viewBox="0 0 36 36" fill="none" xmlns="http://www.w3.org/2000/svg">
<path d="M12 21V25.5M18 21V25.5M24 21V25.5M4.5 31.5H31.5M4.5 15H31.5M4.5 12L18 4.5L31.5 12M6 15H30V31.5H6V15Z" stroke="#2B2B2B" stroke-width="2.2" stroke-linecap="round" stroke-linejoin="round"/>
<path d="M33.75 33C34.4404 33 35 32.764 35 32.4728C35 25.1757 25 25.1757 25 32.4728C25 32.764 25.5596 33 26.25 33H33.75Z" fill="#5ED76A" stroke="#2B2B2B" stroke-width="2"/>
<path d="M27 24C27 22.3431 28.3431 21 30 21C31.6569 21 33 22.3431 33 24C33 25.6569 31.6569 27 30 27C28.3431 27 27 25.6569 27 24Z" fill="#5ED76A" stroke="#2B2B2B" stroke-width="2"/>
</svg>
