<svg width="36" height="36" viewBox="0 0 36 36" fill="none" xmlns="http://www.w3.org/2000/svg">
<mask id="mask0_71_2255" style="mask-type:luminance" maskUnits="userSpaceOnUse" x="0" y="0" width="36" height="36">
<path d="M36 0H0V36H36V0Z" fill="white"/>
</mask>
<g mask="url(#mask0_71_2255)">
<path fill-rule="evenodd" clip-rule="evenodd" d="M10.9534 23.5476V16.2785C10.6623 16.1031 10.4277 15.8761 10.2498 15.5974C10.0719 15.3187 9.98291 14.9956 9.98291 14.6282C9.98291 14.2609 10.177 13.8144 10.5652 13.2889C10.9534 12.7634 11.4064 12.2531 11.924 11.7582C12.4416 12.2525 12.8945 12.7627 13.2828 13.2889C13.671 13.8151 13.8651 14.2615 13.8651 14.6282C13.8651 14.995 13.7761 15.318 13.5982 15.5974C13.4202 15.8767 13.1857 16.1035 12.8945 16.2776V20.3683H14.8356V16.5894H28.4233V20.3683H30.3644V16.2785C30.0732 16.1031 29.8387 15.8761 29.6607 15.5974C29.4828 15.3187 29.3938 14.9956 29.3938 14.6282C29.3938 14.2609 29.588 13.8144 29.9762 13.2889C30.3644 12.7634 30.8173 12.2531 31.3349 11.7582C31.8526 12.2525 32.3055 12.7627 32.6937 13.2889C33.0819 13.8151 33.276 14.2615 33.276 14.6282C33.276 14.995 33.1871 15.318 33.0091 15.5974C32.8312 15.8767 32.5966 16.1038 32.3055 16.2785V23.5475C30.0166 25.8746 26.9726 27.4568 23.5706 27.8971V22.2817H19.6884V27.8971C16.2863 27.4568 13.2424 25.8746 10.9534 23.5476ZM15.8062 14.7239V15.6328H27.4527V14.7239C27.4527 14.0861 27.2991 13.4962 26.9917 12.9541C26.6844 12.4119 26.2719 11.9655 25.7543 11.6147L21.6295 8.88818L17.5046 11.6147C16.987 11.9655 16.5745 12.4119 16.2672 12.9541C15.9598 13.4962 15.8062 14.0861 15.8062 14.7239Z" fill="#2B2B2B"/>
<path fill-rule="evenodd" clip-rule="evenodd" d="M36 20.3185C35.2376 21.9491 34.1789 23.4768 32.8238 24.8218C26.6279 30.9712 16.5825 30.9712 10.3867 24.8218C4.19082 18.6724 4.19082 8.70229 10.3867 2.55291C11.4146 1.53268 12.5485 0.681704 13.7532 0C5.85555 1.9374 0 9.01702 0 17.454C0 27.3833 8.11006 35.4325 18.1143 35.4325C27.1363 35.4325 34.6178 28.8863 36 20.3185Z" fill="#2B2B2B"/>
<path d="M26.6208 1.40137L27.3679 3.70068H29.7855L27.8296 5.12173L28.5767 7.42104L26.6208 5.99999L24.6649 7.42104L25.412 5.12173L23.4561 3.70068H25.8737L26.6208 1.40137Z" fill="#5ED76A"/>
</g>
</svg>
