<svg width="48" height="660" viewBox="0 0 48 660" fill="none" xmlns="http://www.w3.org/2000/svg">
<mask id="path-1-inside-1_71_2318" fill="white">
<path fill-rule="evenodd" clip-rule="evenodd" d="M24 0C10.7452 0 0 10.7452 0 24V77C0 86.7753 5.8442 95.1856 14.2292 98.9276C18.835 100.983 22.9615 104.956 22.9615 110C22.9615 115.044 18.835 119.017 14.2292 121.072C5.8442 124.814 0 133.225 0 143V217C0 225.885 4.82805 233.642 12.0037 237.791C16.2852 240.267 18.4259 241.505 18.8539 241.817C22.2427 244.288 22.4624 244.669 22.9056 248.84C22.9615 249.367 22.9615 250.411 22.9615 252.5C22.9615 254.589 22.9615 255.633 22.9056 256.16C22.4624 260.331 22.2427 260.712 18.8539 263.183C18.4259 263.495 16.2852 264.733 12.0037 267.209C4.82806 271.358 0 279.115 0 288V392C0 400.706 4.63563 408.329 11.5733 412.536C16.3281 415.42 18.7055 416.861 19.2154 417.27C22.2617 419.712 22.3684 419.901 22.8765 423.772C22.9615 424.42 22.9615 425.613 22.9615 428C22.9615 430.387 22.9615 431.58 22.8765 432.228C22.3684 436.099 22.2617 436.288 19.2154 438.73C18.7055 439.139 16.3281 440.58 11.5732 443.464C4.63563 447.671 0 455.294 0 464V517C0 526.775 5.8442 535.186 14.2292 538.928C18.835 540.983 22.9615 544.956 22.9615 550C22.9615 555.044 18.835 559.017 14.2292 561.072C5.8442 564.814 0 573.225 0 583V636C0 649.255 10.7452 660 24 660C37.2548 660 48 649.255 48 636V583C48 573.573 42.5654 565.416 34.6585 561.491C30.0651 559.21 25.9615 555.128 25.9615 550C25.9615 544.872 30.0651 540.79 34.6585 538.509C42.5654 534.584 48 526.427 48 517V464C48 455.645 43.7311 448.288 37.2555 443.99C32.2819 440.688 29.7951 439.038 29.2304 438.524C26.6368 436.163 26.61 436.113 26.0775 432.647C25.9615 431.892 25.9615 430.595 25.9615 428C25.9615 425.405 25.9615 424.108 26.0775 423.353C26.61 419.887 26.6368 419.837 29.2304 417.476C29.7951 416.962 32.2819 415.312 37.2555 412.01C43.7311 407.712 48 400.355 48 392V288C48 279.466 43.5461 271.973 36.8361 267.717C32.3207 264.854 30.063 263.422 29.5687 263.011C26.6493 260.584 26.5299 260.367 26.0438 256.602C25.9615 255.964 25.9615 254.809 25.9615 252.5C25.9615 250.191 25.9615 249.036 26.0438 248.398C26.5299 244.633 26.6493 244.416 29.5687 241.989C30.063 241.578 32.3207 240.146 36.836 237.283C43.5461 233.027 48 225.534 48 217V143C48 133.574 42.5655 125.416 34.6586 121.491C30.0651 119.21 25.9615 115.128 25.9615 110C25.9615 104.872 30.0651 100.79 34.6586 98.5093C42.5655 94.5836 48 86.4265 48 77V24C48 10.7452 37.2548 0 24 0Z"/>
</mask>
<path d="M14.2292 561.072L15.4518 563.812L14.2292 561.072ZM34.6585 538.509L33.3245 535.822L34.6585 538.509ZM34.6586 98.5093L33.3245 95.8223L34.6586 98.5093ZM22.8765 432.228L19.902 431.838L22.8765 432.228ZM11.5732 443.464L13.1288 446.029L11.5732 443.464ZM19.2154 438.73L17.3392 436.389L19.2154 438.73ZM34.6585 561.491L33.3245 564.178L34.6585 561.491ZM34.6586 121.491L33.3245 124.178L34.6586 121.491ZM11.5733 412.536L13.1288 409.971L11.5733 412.536ZM19.2154 417.27L21.0915 414.929L19.2154 417.27ZM22.8765 423.772L25.851 423.382L22.8765 423.772ZM36.8361 267.717L38.4427 265.184L36.8361 267.717ZM29.5687 263.011L31.4865 260.704L29.5687 263.011ZM26.0438 256.602L29.0191 256.218L26.0438 256.602ZM12.0037 237.791L13.5054 235.194L12.0037 237.791ZM18.8539 241.817L20.6216 239.393L18.8539 241.817ZM22.9056 248.84L19.9223 249.157L22.9056 248.84ZM37.2555 443.99L38.9145 441.49L37.2555 443.99ZM29.2304 438.524L31.2497 436.305L29.2304 438.524ZM26.0775 432.647L23.1122 433.102L26.0775 432.647ZM14.2292 538.928L13.0066 541.667L14.2292 538.928ZM26.0775 423.353L23.1122 422.898L26.0775 423.353ZM37.2555 412.01L35.5964 409.511L37.2555 412.01ZM29.2304 417.476L27.2111 415.258L29.2304 417.476ZM26.0438 248.398L29.0191 248.782L26.0438 248.398ZM36.836 237.283L38.4427 239.816L36.836 237.283ZM29.5687 241.989L27.6508 239.682L29.5687 241.989ZM22.9056 256.16L19.9223 255.843L22.9056 256.16ZM12.0037 267.209L10.502 264.612L12.0037 267.209ZM18.8539 263.183L20.6216 265.607L18.8539 263.183ZM3 24C3 12.402 12.402 3 24 3V-3C9.08831 -3 -3 9.08831 -3 24H3ZM3 77V24H-3V77H3ZM15.4518 96.188C8.10844 92.9109 3 85.5488 3 77H-3C-3 88.0018 3.57995 97.4603 13.0066 101.667L15.4518 96.188ZM3 143C3 134.451 8.10845 127.089 15.4518 123.812L13.0066 118.333C3.57995 122.54 -3 131.998 -3 143H3ZM3 217V143H-3V217H3ZM13.5054 235.194C7.2189 231.559 3 224.771 3 217H-3C-3 226.999 2.43721 235.725 10.502 240.388L13.5054 235.194ZM3 288C3 280.229 7.2189 273.441 13.5055 269.806L10.502 264.612C2.43722 269.275 -3 278.001 -3 288H3ZM3 392V288H-3V392H3ZM13.1288 409.971C7.05055 406.285 3 399.614 3 392H-3C-3 401.798 2.22071 410.374 10.0177 415.102L13.1288 409.971ZM3 464C3 456.386 7.05055 449.715 13.1288 446.029L10.0177 440.898C2.2207 445.626 -3 454.202 -3 464H3ZM3 517V464H-3V517H3ZM15.4518 536.188C8.10845 532.911 3 525.549 3 517H-3C-3 528.002 3.57995 537.46 13.0066 541.667L15.4518 536.188ZM3 583C3 574.451 8.10845 567.089 15.4518 563.812L13.0066 558.333C3.57995 562.54 -3 571.998 -3 583H3ZM3 636V583H-3V636H3ZM24 657C12.402 657 3 647.598 3 636H-3C-3 650.912 9.08831 663 24 663V657ZM45 636C45 647.598 35.598 657 24 657V663C38.9117 663 51 650.912 51 636H45ZM45 583V636H51V583H45ZM33.3245 564.178C40.2503 567.616 45 574.756 45 583H51C51 572.391 44.8806 563.216 35.9926 558.804L33.3245 564.178ZM45 517C45 525.244 40.2503 532.384 33.3245 535.822L35.9926 541.196C44.8806 536.784 51 527.609 51 517H45ZM45 464V517H51V464H45ZM35.5964 446.489C41.2701 450.255 45 456.693 45 464H51C51 454.598 46.192 446.32 38.9145 441.49L35.5964 446.489ZM45 392C45 399.307 41.2701 405.745 35.5964 409.511L38.9145 414.51C46.192 409.679 51 401.402 51 392H45ZM45 288V392H51V288H45ZM35.2294 270.251C41.1084 273.979 45 280.536 45 288H51C51 278.396 45.9838 269.966 38.4427 265.184L35.2294 270.251ZM45 217C45 224.464 41.1084 231.021 35.2293 234.749L38.4427 239.816C45.9838 235.034 51 226.604 51 217H45ZM45 143V217H51V143H45ZM33.3245 124.178C40.2503 127.616 45 134.756 45 143H51C51 132.391 44.8806 123.216 35.9927 118.804L33.3245 124.178ZM45 77C45 85.2438 40.2503 92.3837 33.3245 95.8223L35.9927 101.196C44.8806 96.7836 51 87.6092 51 77H45ZM45 24V77H51V24H45ZM24 3C35.598 3 45 12.402 45 24H51C51 9.08831 38.9117 -3 24 -3V3ZM19.9615 550C19.9615 553.297 17.161 556.479 13.0066 558.333L15.4518 563.812C20.509 561.555 25.9615 556.79 25.9615 550H19.9615ZM28.9615 550C28.9615 546.568 31.8004 543.278 35.9926 541.196L33.3245 535.822C28.3297 538.302 22.9615 543.175 22.9615 550H28.9615ZM28.9615 110C28.9615 106.568 31.8005 103.278 35.9927 101.196L33.3245 95.8223C28.3298 98.3021 22.9615 103.175 22.9615 110H28.9615ZM19.9615 428C19.9615 430.53 19.954 431.441 19.902 431.838L25.851 432.618C25.969 431.719 25.9615 430.243 25.9615 428H19.9615ZM13.1288 446.029C15.5017 444.59 17.2962 443.502 18.5602 442.723C19.7278 442.003 20.6541 441.421 21.0915 441.071L17.3392 436.389C17.3504 436.38 17.2329 436.468 16.8499 436.715C16.5065 436.936 16.0332 437.232 15.4121 437.615C14.1712 438.38 12.3996 439.454 10.0177 440.898L13.1288 446.029ZM19.902 431.838C19.6232 433.962 19.5096 434.319 19.3837 434.543C19.2578 434.767 19.0109 435.049 17.3392 436.389L21.0915 441.071C22.4661 439.969 23.7958 438.936 24.6118 437.487C25.4279 436.038 25.6217 434.365 25.851 432.618L19.902 431.838ZM35.9926 558.804C31.8004 556.722 28.9615 553.432 28.9615 550H22.9615C22.9615 556.825 28.3297 561.698 33.3245 564.178L35.9926 558.804ZM35.9927 118.804C31.8005 116.722 28.9615 113.432 28.9615 110H22.9615C22.9615 116.825 28.3298 121.698 33.3245 124.178L35.9927 118.804ZM10.0177 415.102C12.3996 416.546 14.1712 417.62 15.4121 418.385C16.0332 418.768 16.5065 419.064 16.8499 419.285C17.2329 419.532 17.3504 419.62 17.3392 419.611L21.0915 414.929C20.6541 414.579 19.7278 413.997 18.5602 413.277C17.2962 412.498 15.5017 411.41 13.1288 409.971L10.0177 415.102ZM25.9615 428C25.9615 425.757 25.969 424.281 25.851 423.382L19.902 424.162C19.954 424.559 19.9615 425.47 19.9615 428H25.9615ZM17.3392 419.611C19.0109 420.951 19.2578 421.233 19.3837 421.457C19.5096 421.681 19.6232 422.038 19.902 424.162L25.851 423.382C25.6217 421.635 25.4279 419.962 24.6118 418.513C23.7958 417.064 22.4661 416.031 21.0915 414.929L17.3392 419.611ZM38.4427 265.184C36.1806 263.749 34.4987 262.683 33.3195 261.923C32.7294 261.542 32.2796 261.248 31.953 261.028C31.5894 260.784 31.477 260.696 31.4865 260.704L27.6508 265.318C28.0743 265.67 28.959 266.251 30.0694 266.966C31.2715 267.741 32.9761 268.822 35.2294 270.251L38.4427 265.184ZM22.9615 252.5C22.9615 254.67 22.9543 256.101 23.0685 256.986L29.0191 256.218C28.9688 255.828 28.9615 254.949 28.9615 252.5H22.9615ZM31.4865 260.704C29.8926 259.379 29.6478 259.09 29.5225 258.863C29.3972 258.635 29.2845 258.273 29.0191 256.218L23.0685 256.986C23.2892 258.695 23.4793 260.325 24.2651 261.754C25.0508 263.183 26.3253 264.216 27.6508 265.318L31.4865 260.704ZM10.502 240.388C12.6461 241.628 14.243 242.552 15.3582 243.204C15.9164 243.531 16.3423 243.783 16.6503 243.97C16.9961 244.18 17.0998 244.251 17.0862 244.241L20.6216 239.393C20.2525 239.124 19.4366 238.64 18.3895 238.027C17.2569 237.363 15.6428 236.43 13.5054 235.194L10.502 240.388ZM25.9615 252.5C25.9615 250.533 25.9666 249.255 25.8888 248.523L19.9223 249.157C19.9565 249.478 19.9615 250.289 19.9615 252.5H25.9615ZM17.0862 244.241C18.908 245.57 19.2289 245.919 19.3858 246.19C19.5426 246.462 19.6841 246.915 19.9223 249.157L25.8888 248.523C25.6838 246.594 25.4939 244.771 24.5829 243.192C23.6719 241.613 22.1886 240.536 20.6216 239.393L17.0862 244.241ZM13.0066 101.667C17.161 103.521 19.9615 106.703 19.9615 110H25.9615C25.9615 103.21 20.5091 98.4449 15.4518 96.188L13.0066 101.667ZM38.9145 441.49C36.4223 439.836 34.5712 438.607 33.2714 437.727C32.621 437.287 32.126 436.946 31.7662 436.689C31.3677 436.404 31.2427 436.299 31.2497 436.305L27.2111 440.742C27.6929 441.181 28.681 441.865 29.9078 442.696C31.236 443.595 33.1151 444.842 35.5964 446.489L38.9145 441.49ZM22.9615 428C22.9615 430.435 22.9515 432.055 23.1122 433.102L29.0427 432.191C28.9716 431.728 28.9615 430.754 28.9615 428H22.9615ZM31.2497 436.305C29.8032 434.988 29.6228 434.765 29.5246 434.582C29.4264 434.398 29.3397 434.125 29.0427 432.191L23.1122 433.102C23.3478 434.635 23.5407 436.119 24.2374 437.418C24.9341 438.717 26.064 439.698 27.2111 440.742L31.2497 436.305ZM13.0066 541.667C17.161 543.521 19.9615 546.703 19.9615 550H25.9615C25.9615 543.21 20.5091 538.445 15.4518 536.188L13.0066 541.667ZM28.9615 428C28.9615 425.246 28.9716 424.272 29.0427 423.809L23.1122 422.898C22.9515 423.945 22.9615 425.565 22.9615 428H28.9615ZM35.5964 409.511C33.1151 411.158 31.236 412.405 29.9078 413.304C28.681 414.135 27.6929 414.819 27.2111 415.258L31.2497 419.695C31.2427 419.701 31.3677 419.596 31.7662 419.311C32.126 419.054 32.621 418.713 33.2714 418.273C34.5712 417.393 36.4223 416.164 38.9145 414.51L35.5964 409.511ZM29.0427 423.809C29.3397 421.875 29.4264 421.602 29.5246 421.418C29.6228 421.235 29.8032 421.012 31.2497 419.695L27.2111 415.258C26.064 416.302 24.9341 417.283 24.2374 418.582C23.5407 419.881 23.3478 421.365 23.1122 422.898L29.0427 423.809ZM19.9615 110C19.9615 113.297 17.161 116.479 13.0066 118.333L15.4518 123.812C20.5091 121.555 25.9615 116.79 25.9615 110H19.9615ZM28.9615 252.5C28.9615 250.051 28.9688 249.172 29.0191 248.782L23.0685 248.014C22.9543 248.899 22.9615 250.33 22.9615 252.5H28.9615ZM35.2293 234.749C32.9761 236.178 31.2715 237.259 30.0694 238.034C28.959 238.749 28.0743 239.33 27.6508 239.682L31.4865 244.296C31.477 244.304 31.5894 244.216 31.953 243.972C32.2796 243.752 32.7294 243.458 33.3195 243.077C34.4987 242.317 36.1806 241.251 38.4427 239.816L35.2293 234.749ZM29.0191 248.782C29.2845 246.727 29.3972 246.365 29.5225 246.137C29.6478 245.91 29.8926 245.621 31.4865 244.296L27.6508 239.682C26.3253 240.784 25.0508 241.817 24.2651 243.246C23.4793 244.675 23.2892 246.305 23.0685 248.014L29.0191 248.782ZM19.9615 252.5C19.9615 254.711 19.9565 255.522 19.9223 255.843L25.8888 256.477C25.9666 255.745 25.9615 254.467 25.9615 252.5H19.9615ZM13.5055 269.806C15.6428 268.57 17.2569 267.637 18.3895 266.973C19.4366 266.36 20.2525 265.876 20.6216 265.607L17.0862 260.759C17.0998 260.749 16.9961 260.82 16.6503 261.03C16.3423 261.217 15.9164 261.469 15.3582 261.796C14.2431 262.448 12.6461 263.372 10.502 264.612L13.5055 269.806ZM19.9223 255.843C19.6841 258.085 19.5426 258.538 19.3858 258.81C19.2289 259.081 18.908 259.43 17.0862 260.759L20.6216 265.607C22.1886 264.464 23.6719 263.387 24.5829 261.808C25.4939 260.229 25.6838 258.406 25.8888 256.477L19.9223 255.843Z" fill="#5ED76A" mask="url(#path-1-inside-1_71_2318)"/>
</svg>
