<svg width="75" height="52" viewBox="0 0 75 52" fill="none" xmlns="http://www.w3.org/2000/svg">
<path d="M8.56069 24.3498L7.72921 25.844C7.4334 26.3756 6.76124 26.5412 6.26199 26.2055L2.46735 23.6535C2.01361 23.3483 1.86687 22.7359 2.13109 22.2501L12.8487 2.54456C13.1429 2.00378 13.8245 1.83494 14.3272 2.17836L18.2848 4.88219C18.7372 5.19128 18.8792 5.80637 18.6099 6.2904L17.8367 7.67982M8.56069 24.3498L13.0494 29.8309M8.56069 24.3498L17.8367 7.67982M13.0494 29.8309C13.3101 29.4802 13.6571 29.0372 14.0207 28.5824C15.0914 27.2432 17.0131 27.0598 18.3346 28.1384C19.6244 29.1912 19.8993 31.0872 18.9641 32.4789L17.5353 34.6048M13.0494 29.8309L11.4143 32.2121C10.4834 33.5678 10.7132 35.4271 11.9446 36.5021C13.3001 37.6854 15.3442 37.4739 16.4416 36.037L17.5353 34.6048M33.3955 44.17L42.0713 49.5041C43.4225 50.3811 45.2021 50.0678 46.1903 48.7789C47.3033 47.3272 46.9873 45.2136 45.5011 44.17L38.9294 39.5555L48.105 45.8243C49.6275 46.8645 51.6805 46.4821 52.7484 44.9594C53.8709 43.359 53.4744 41.1236 51.8742 40.0304L43.9328 34.6048L54.3365 41.619C55.8503 42.6397 57.8802 42.255 58.9377 40.7471C60.0666 39.1376 59.6493 36.8873 58.0231 35.8143L48.4187 29.4773L56.6818 34.9021C58.228 35.9172 60.2819 35.4844 61.3118 33.9264C62.3097 32.4167 62.0003 30.368 60.5856 29.262C60.4951 29.1912 60.4073 29.1228 60.3234 29.0577M58.0381 8.26003L56.8762 6.1848C56.5894 5.67254 56.766 5.01887 57.2691 4.73077L61.3141 2.4143C61.8145 2.1277 62.447 2.3125 62.7247 2.82648L73.3122 22.4212C73.576 22.9096 73.4255 23.5239 72.9677 23.8265L69.3488 26.2192C68.8506 26.5486 68.1848 26.3827 67.8897 25.8557L67.2247 24.668M58.0381 8.26003C53.6824 10.2297 49.1088 8.79046 43.7603 7.37598C41.1643 6.68945 38.5218 6.31531 36.4723 6.1272C34.5256 5.94852 32.6612 6.81084 31.3526 8.29863L28.4316 11.6194M58.0381 8.26003L67.2247 24.668M60.3234 29.0577C54.4169 24.4738 44.4611 17.2799 36.859 13.5644L33.2358 15.1556C32.5438 16.118 30.5183 18.299 27.4219 20.24C26.4611 20.8423 25.2443 20.7271 24.3432 20.0345C23.2813 19.2184 23.1321 17.6443 24.0208 16.634L28.4316 11.6194M60.3234 29.0577C61.9912 28.4667 65.7064 26.7613 67.2247 24.668M17.8367 7.67982C19.4219 9.1109 23.7601 11.9023 28.4316 11.6194M17.5353 34.6048L20.5907 30.5791C21.5673 29.2922 23.3823 29.0727 24.6245 30.0911C25.7853 31.0427 26.0384 32.7483 25.2061 34.0105L22.3662 38.3178M17.5353 34.6048L15.6944 37.246C14.7977 38.5324 15.0614 40.3163 16.2896 41.2729C17.4785 42.1988 19.1631 42.0285 20.1525 40.8823L22.3662 38.3178M22.3662 38.3178L25.1824 34.6072C26.2863 33.1527 28.3435 32.9177 29.7329 34.0873C31.0267 35.1764 31.2807 37.1042 30.3152 38.506L27.8873 42.0309M22.3662 38.3178L20.8295 40.7676C19.9467 42.1748 20.2801 44.0425 21.5919 45.0383C22.9019 46.0327 24.7397 45.8174 25.7969 44.5456L27.8873 42.0309M27.8873 42.0309L30.095 39.2766C31.0653 38.0661 32.8119 37.8969 33.9863 38.8998C35.1126 39.8618 35.3061 41.5594 34.4264 42.7615L31.4357 46.8479C30.5161 48.1044 28.7887 48.3847 27.5353 47.4808C26.2201 46.5324 25.937 44.6541 26.9116 43.3431L27.8873 42.0309Z" stroke="#53C05E" stroke-width="2.23256"/>
</svg>
