<svg width="36" height="36" viewBox="0 0 36 36" fill="none" xmlns="http://www.w3.org/2000/svg">
<rect x="1" y="1" width="34" height="34" rx="9" stroke="#5ED76A" stroke-width="2"/>
<path d="M13 25L13.7134 22.7172C13.9061 22.1005 14.0024 21.7922 14.1883 21.5639C14.3524 21.3623 14.5652 21.2058 14.8066 21.1093C15.08 21 15.403 21 16.0491 21H19.9509C20.597 21 20.92 21 21.1934 21.1093C21.4348 21.2058 21.6476 21.3623 21.8117 21.5639C21.9976 21.7922 22.0939 22.1005 22.2866 22.7172L23 25" stroke="#5ED76A" stroke-width="2"/>
<path d="M5 22L5.52956 20.5878C5.74423 20.0154 5.85157 19.7291 6.03746 19.5182C6.20168 19.3319 6.40881 19.1883 6.64095 19.1C6.90373 19 7.20942 19 7.82081 19H11.1792C11.7906 19 12.0963 19 12.359 19.1C12.5912 19.1883 12.7983 19.3319 12.9625 19.5182C13.1484 19.7291 13.2558 20.0154 13.4704 20.5878L14 22" stroke="#5ED76A" stroke-width="2"/>
<path d="M22 22L22.5296 20.5878C22.7442 20.0154 22.8516 19.7291 23.0375 19.5182C23.2017 19.3319 23.4088 19.1883 23.641 19.1C23.9037 19 24.2094 19 24.8208 19H28.1792C28.7906 19 29.0963 19 29.359 19.1C29.5912 19.1883 29.7983 19.3319 29.9625 19.5182C30.1484 19.7291 30.2558 20.0154 30.4704 20.5878L31 22" stroke="#5ED76A" stroke-width="2"/>
<circle cx="18" cy="16" r="3" stroke="#5ED76A" stroke-width="2"/>
<circle cx="9.5" cy="14.5" r="2.5" stroke="#5ED76A" stroke-width="2"/>
<circle cx="26.5" cy="14.5" r="2.5" stroke="#5ED76A" stroke-width="2"/>
</svg>
