<svg width="125" height="30" viewBox="0 0 125 30" fill="none" xmlns="http://www.w3.org/2000/svg">
<path d="M30.1865 0.124756C27.7206 0.719992 26.8702 1.00344 25.368 1.7404C24.4043 2.22226 22.9303 3.32769 21.9383 4.31976C19.0755 7.18256 17.5732 10.839 17.5732 14.9773C17.5732 19.144 18.9054 22.4603 21.7682 25.5215C24.9428 28.8662 28.5709 30.17 34.0697 29.9433C36.2239 29.8299 37.3293 29.6598 38.3497 29.2063L39.6819 28.6111V24.9263V21.2415L38.2364 22.2335C33.5595 25.3798 27.7489 24.1043 25.2829 19.3991C24.6027 18.1236 24.5176 17.6417 24.5176 15.119C24.5176 11.9161 24.9711 10.6406 26.8986 8.65648C28.6559 6.75739 29.7897 6.33222 32.8793 6.33222C35.7704 6.33222 36.8475 6.7007 38.8032 8.31634L39.6819 9.08165V5.25513V1.45695L37.7828 0.805025C35.9121 0.181444 31.5471 -0.21538 30.1865 0.124756Z" fill="#FF0000"/>
<path d="M0 3.35608V6.19054H1.98411H3.96823V17.8118V29.4331H7.22784H10.4875V14.9774V0.52162H5.24373H0V3.35608Z" fill="#FF0000"/>
<path d="M56.4053 14.9774V29.4331H64.4834H72.5616V26.7404V24.0476H67.7431H62.9245V20.788V17.5284H67.4596H71.9947V14.6939V11.8595H67.4596H62.9245V9.025V6.19054H67.7431H72.5616V3.35608V0.52162H64.4834H56.4053V14.9774Z" fill="#FF0000"/>
<path d="M77.6641 14.949V29.4331H80.9237H84.1833V23.9059C84.1833 20.873 84.2683 18.3787 84.41 18.3787C84.5234 18.3787 86.2524 20.8163 88.2932 23.7925C90.3057 26.7687 92.0914 29.263 92.2615 29.3197C92.4315 29.4048 94.2456 29.4048 96.2864 29.3764L100.028 29.2914L95.7762 23.6508C93.4519 20.5329 91.5529 17.9252 91.5529 17.8402C91.5529 17.7551 92.1764 17.3867 92.9417 17.0182C94.7841 16.1962 96.5131 14.4105 97.0517 12.7665C97.3068 12.0295 97.5052 10.5273 97.5052 9.30845C97.5052 5.51027 95.6061 2.67581 92.1197 1.31527C90.7309 0.776724 89.8522 0.69169 84.1266 0.578312L77.6641 0.464933V14.949ZM89.0018 6.33226C90.8442 7.29598 91.4962 9.64858 90.4474 11.576C89.7105 12.9649 88.4633 13.6168 86.1391 13.7869L84.1833 13.9286V9.96037C84.1833 7.77784 84.2683 5.90709 84.41 5.79372C84.7218 5.42524 88.0381 5.82206 89.0018 6.33226Z" fill="#FF0000"/>
<path d="M103.74 0.549965C103.74 0.606653 103.712 7.12591 103.655 15.0624L103.599 29.4331H106.943H110.26V24.3594V19.2857L114.029 19.1724C117.459 19.0873 117.913 19.0306 119.387 18.2937C123.015 16.508 124.829 12.1712 123.865 7.60777C123.213 4.51821 121.456 2.50574 118.423 1.28692C117.091 0.77672 116.184 0.691687 110.345 0.578308C106.717 0.52162 103.74 0.493275 103.74 0.549965ZM114.54 6.19054C116.807 6.81412 117.913 9.36513 116.977 11.661C116.297 13.2483 115.078 13.8436 112.47 13.8436H110.26V9.87534V5.90709H111.904C112.782 5.90709 113.973 6.04881 114.54 6.19054Z" fill="#FF0000"/>
<path d="M45.6626 10.1018C43.7918 11.0939 43.1116 13.6449 44.217 15.4589C44.9256 16.6494 46.1444 17.2446 47.7884 17.2446C48.9505 17.2446 49.234 17.1029 50.1977 16.1392C51.1897 15.1755 51.3031 14.892 51.3031 13.6732C51.3031 10.4419 48.412 8.62787 45.6626 10.1018Z" fill="#FF0000"/>
<path d="M45.6349 22.8572C43.7358 23.8776 43.0839 26.5136 44.3027 28.3277C45.1247 29.5465 46.0033 30 47.7324 30C48.9512 30 49.2346 29.8866 50.1983 28.8946C51.1904 27.9308 51.3038 27.6474 51.3038 26.4286C51.3038 23.2256 48.3843 21.4116 45.6349 22.8572Z" fill="#FF0000"/>
</svg>
