<svg width="36" height="36" viewBox="0 0 36 36" fill="none" xmlns="http://www.w3.org/2000/svg">
<mask id="mask0_3164_14736" style="mask-type:luminance" maskUnits="userSpaceOnUse" x="13" y="1" width="10" height="11">
<path d="M21.5235 1.63672H14.4745C13.7098 1.63672 13.0898 2.25663 13.0898 3.02133V10.0704C13.0898 10.8351 13.7098 11.455 14.4745 11.455H21.5235C22.2882 11.455 22.9082 10.8351 22.9082 10.0704V3.02133C22.9082 2.25663 22.2882 1.63672 21.5235 1.63672Z" fill="white"/>
</mask>
<g mask="url(#mask0_3164_14736)">
<path d="M14.4745 2.88672H21.5235C21.5979 2.88672 21.6582 2.94699 21.6582 3.02133V10.0704C21.6582 10.1448 21.5979 10.205 21.5235 10.205H14.4745C14.4001 10.205 14.3398 10.1448 14.3398 10.0704V3.02133C14.3398 2.94699 14.4001 2.88672 14.4745 2.88672Z" stroke="#5ED76A" stroke-width="2.5"/>
</g>
<mask id="mask1_3164_14736" style="mask-type:luminance" maskUnits="userSpaceOnUse" x="0" y="0" width="10" height="10">
<path d="M8.43369 0H1.38462C0.619913 0 0 0.619913 0 1.38462V8.43369C0 9.19839 0.619913 9.81831 1.38462 9.81831H8.43369C9.19839 9.81831 9.81831 9.19839 9.81831 8.43369V1.38462C9.81831 0.619913 9.19839 0 8.43369 0Z" fill="white"/>
</mask>
<g mask="url(#mask1_3164_14736)">
<path d="M1.38462 1.25H8.43369C8.50804 1.25 8.56831 1.31027 8.56831 1.38462V8.43369C8.56831 8.50804 8.50804 8.56831 8.43369 8.56831H1.38462C1.31027 8.56831 1.25 8.50804 1.25 8.43369V1.38462C1.25 1.31027 1.31027 1.25 1.38462 1.25Z" stroke="#5ED76A" stroke-width="2.5"/>
</g>
<mask id="mask2_3164_14736" style="mask-type:luminance" maskUnits="userSpaceOnUse" x="1" y="13" width="11" height="10">
<path d="M10.0704 13.0916H3.02133C2.25663 13.0916 1.63672 13.7115 1.63672 14.4762V21.5252C1.63672 22.2899 2.25663 22.9099 3.02133 22.9099H10.0704C10.8351 22.9099 11.455 22.2899 11.455 21.5252V14.4762C11.455 13.7115 10.8351 13.0916 10.0704 13.0916Z" fill="white"/>
</mask>
<g mask="url(#mask2_3164_14736)">
<path d="M3.02133 14.3416H10.0704C10.1448 14.3416 10.205 14.4018 10.205 14.4762V21.5252C10.205 21.5996 10.1448 21.6599 10.0704 21.6599H3.02133C2.94699 21.6599 2.88672 21.5996 2.88672 21.5252V14.4762C2.88672 14.4018 2.94699 14.3416 3.02133 14.3416Z" stroke="#5ED76A" stroke-width="2.5"/>
</g>
<path d="M26.1827 17.7481H26.5673C27.1196 17.7481 27.5673 17.3004 27.5673 16.7481V8.93115C27.5673 8.37887 28.015 7.93115 28.5673 7.93115H33.615C34.1673 7.93115 34.615 8.37887 34.615 8.93115V33.6155C34.615 34.1677 34.1673 34.6155 33.615 34.6155H8.93066C8.37838 34.6155 7.93066 34.1677 7.93066 33.6155V28.5664C7.93066 28.0141 8.37838 27.5664 8.93066 27.5664H16.7476C17.2999 27.5664 17.7476 27.1187 17.7476 26.5664V18.7481C17.7476 18.1958 18.1953 17.7481 18.7476 17.7481H26.1827Z" stroke="#5ED76A" stroke-width="2.5"/>
</svg>
