<svg width="36" height="36" viewBox="0 0 36 36" fill="none" xmlns="http://www.w3.org/2000/svg">
<path d="M26 4.14359C22.9497 2.38252 19.4036 1.67715 15.9116 2.13688C12.4196 2.59662 9.17682 4.19576 6.68629 6.68629C4.19576 9.17683 2.59661 12.4196 2.13688 15.9116C1.67715 19.4036 2.38252 22.9497 4.14359 26C5.90467 29.0503 8.62303 31.4342 11.8771 32.7821C15.1311 34.1299 18.739 34.3664 22.1411 33.4548C25.5432 32.5432 28.5495 30.5345 30.6937 27.7402C32.8378 24.9459 34 21.5221 34 18H26C26 19.7611 25.4189 21.4729 24.3468 22.8701C23.2748 24.2672 21.7716 25.2716 20.0706 25.7274C18.3695 26.1832 16.5656 26.065 14.9385 25.391C13.3115 24.7171 11.9523 23.5251 11.0718 22C10.1913 20.4749 9.83857 18.7018 10.0684 16.9558C10.2983 15.2098 11.0979 13.5884 12.3431 12.3431C13.5884 11.0979 15.2098 10.2983 16.9558 10.0684C18.7018 9.83857 20.4749 10.1913 22 11.0718L26 4.14359Z" stroke="#64E267" stroke-width="2.5"/>
<path d="M10 3L14.2346 10.9398M14.2346 10.9398C11.7146 12.2866 10 14.9431 10 18C10 22.4183 13.5817 26 18 26C22.4183 26 26 22.4183 26 18C26 13.5817 22.4183 10 18 10C16.6387 10 15.3568 10.34 14.2346 10.9398Z" stroke="#64E267" stroke-width="2.5"/>
</svg>
