<svg width="98" height="23" viewBox="0 0 98 23" fill="none" xmlns="http://www.w3.org/2000/svg">
<g clip-path="url(#clip0_3164_16118)">
<mask id="mask0_3164_16118" style="mask-type:luminance" maskUnits="userSpaceOnUse" x="0" y="0" width="98" height="23">
<path d="M0 0H97.755V23H0V0Z" fill="white"/>
</mask>
<g mask="url(#mask0_3164_16118)">
<path d="M13.4352 0L19.2337 21.209C19.5191 22.2573 20.4942 22.9885 21.6084 22.9885H27.813L21.9685 1.60092C21.7113 0.656711 20.8323 0 19.8327 0H13.4352ZM39.8064 0V20.3368C39.8064 21.0051 39.2514 21.5498 38.5618 21.5498C37.9989 21.5498 37.504 21.1818 37.3594 20.6504L32.152 1.60092C31.8947 0.656711 31.0158 0 30.0143 0H23.6217L29.4202 21.209C29.7056 22.2573 30.6807 22.9885 31.7949 22.9885H38.8239C40.1812 22.9885 41.2807 21.9166 41.2807 20.5941V0H39.8064ZM1.47367 22.9879V2.64803C1.47367 1.97982 2.0286 1.43508 2.71827 1.43508C3.28177 1.43508 3.77606 1.80308 3.92061 2.3345L9.12809 21.3839C9.38534 22.3263 10.2643 22.9831 11.2639 22.9831H17.6571L11.8611 1.77947C11.575 0.731158 10.5999 0 9.4864 0H2.45613C1.10005 0 0 1.07374 0 2.39684V22.9879H1.47367Z" fill="#0078EF"/>
<path d="M56.6701 8.35277H52.8499L52.2368 10.1129H49.627L53.3301 0.142979H56.2174L59.9212 10.1165H57.2814L56.6682 8.35701L56.6701 8.35277ZM56.0288 6.47827L54.7621 2.82793L53.5096 6.47766H56.0331H56.0288M62.7344 9.85987C62.1409 9.62322 61.6687 9.27277 61.3128 8.80974C60.9588 8.34732 60.772 7.78685 60.7518 7.13437H63.4057C63.4437 7.50298 63.5766 7.78685 63.7996 7.98114C64.0229 8.17482 64.3145 8.27146 64.6742 8.27106C65.0344 8.27106 65.3339 8.18874 65.5489 8.02229C65.7637 7.85605 65.8709 7.62605 65.8704 7.33229C65.8704 7.08535 65.7865 6.88379 65.6156 6.72098C65.4323 6.55218 65.2196 6.41747 64.9878 6.32332C64.7404 6.21962 64.388 6.10139 63.9307 5.96864C63.2692 5.77072 62.7283 5.57098 62.3137 5.37124C61.8892 5.16585 61.5199 4.86432 61.2357 4.49119C60.9368 4.1014 60.7836 3.59782 60.7836 2.97077C60.784 2.0423 61.1293 1.31598 61.8194 0.791821C62.5109 0.264637 63.4094 0.00195312 64.5199 0.00195312C65.6303 0.00195312 66.5565 0.264637 67.2461 0.790006C67.9358 1.31497 68.3057 2.04714 68.356 2.98651H65.6573C65.6395 2.66269 65.5146 2.4103 65.2935 2.22629C65.0693 2.04189 64.7824 1.94969 64.4329 1.94969C64.1334 1.94969 63.8884 2.02837 63.7053 2.18514C63.5203 2.3417 63.4278 2.56686 63.4278 2.86061C63.4282 3.18382 63.5838 3.43541 63.8945 3.61537C64.204 3.79534 64.6906 3.99003 65.3541 4.19945C66.0136 4.41815 66.5503 4.62637 66.9644 4.82408C67.3839 5.02815 67.7506 5.32443 68.0363 5.69022C68.3358 6.06851 68.4883 6.55635 68.4883 7.15435C68.4883 7.75174 68.3401 8.23958 68.0442 8.702C67.7484 9.16443 67.3184 9.53727 66.7537 9.81085C66.1898 10.086 65.5236 10.2238 64.7551 10.2242C63.987 10.2242 63.3353 10.1068 62.7424 9.87016L62.7381 9.86593L62.7344 9.85987ZM77.3714 0.142979V2.09072H74.6592V10.1165H72.1657V2.08708H69.4536V0.142979H77.3714ZM83.8461 10.1165L81.7164 6.35056H81.1174V10.1165H78.6239V0.142979H82.8085C83.6146 0.143786 84.3022 0.281585 84.8714 0.556374C85.4398 0.831971 85.8647 1.20824 86.146 1.68519C86.4278 2.16516 86.5705 2.69598 86.5705 3.2843C86.5713 3.94807 86.3788 4.54042 85.9929 5.06135C85.6087 5.58187 85.0425 5.95149 84.2944 6.17019L86.6569 10.1207H83.8418H83.8436L83.8461 10.1165ZM81.1192 4.63282H82.6658C83.1223 4.63322 83.4653 4.52387 83.6948 4.30477C83.922 4.08566 84.039 3.78001 84.039 3.37993C84.039 2.98045 83.9263 2.70203 83.6948 2.48656C83.4653 2.26866 83.1223 2.15972 82.6658 2.15972H81.1192V4.63282ZM94.5042 8.35277H90.684L90.0709 10.1129H87.4592L91.1649 0.142979H94.0516L97.7554 10.1165H95.1155L94.5024 8.35701L94.5042 8.35277ZM93.8629 6.47827L92.5963 2.82793L91.3437 6.47766H93.8666H93.8629M64.3827 13.0266L61.7146 23.0001H58.6969L57.0639 16.4379L55.3734 23.0001H52.355L49.7617 13.0266H52.4298L53.9034 20.2843L55.7268 13.0266H58.4678L60.2171 20.2843L61.7048 13.0266H64.387H64.3827ZM68.1287 13.0266V23.0001H65.6352V13.0266H68.1287ZM79.0949 23.0001H76.6015L72.4315 16.8476V23.0001H69.9381V13.0266H72.4315L76.6015 19.2063V13.0266H79.0949V23.0001ZM83.3935 14.9743V16.9905H86.7328V18.8656H83.3935V21.0524H87.1695V23.0001H80.9V13.0266H87.1695V14.9743H83.3935Z" fill="#2A2B30"/>
</g>
</g>
<defs>
<clipPath id="clip0_3164_16118">
<rect width="98" height="23" fill="white"/>
</clipPath>
</defs>
</svg>
