<svg width="36" height="36" viewBox="0 0 36 36" fill="none" xmlns="http://www.w3.org/2000/svg">
<path d="M32.548 14.5H3.45216C2.97662 14.5 2.7696 13.8987 3.14433 13.606L17.6922 2.24048C17.8731 2.09917 18.1269 2.09917 18.3078 2.24048L32.8558 13.606C33.2306 13.8987 33.0235 14.5 32.548 14.5Z" stroke="#64E267" stroke-width="2.5"/>
<path d="M32.5 28H3.5C3.22386 28 3 28.2239 3 28.5V32.5C3 32.7761 3.22386 33 3.5 33H32.5C32.7761 33 33 32.7761 33 32.5V28.5C33 28.2239 32.7761 28 32.5 28Z" stroke="#64E267" stroke-width="2.5"/>
<path d="M9 14.5V28" stroke="#64E267" stroke-width="2.5"/>
<path d="M27 14V27.5" stroke="#64E267" stroke-width="2.5"/>
<path d="M18 14V27.5" stroke="#64E267" stroke-width="2.5"/>
</svg>
