<svg width="37" height="36" viewBox="0 0 37 36" fill="none" xmlns="http://www.w3.org/2000/svg">
<rect x="1.30273" y="0.997803" width="34" height="34" rx="9" stroke="#5ED76A" stroke-width="2"/>
<path d="M13.2988 24.9978L14.0122 22.715C14.2049 22.0983 14.3013 21.79 14.4871 21.5617C14.6513 21.3601 14.864 21.2036 15.1054 21.1071C15.3788 20.9978 15.7018 20.9978 16.3479 20.9978H20.2498C20.8958 20.9978 21.2189 20.9978 21.4922 21.1071C21.7336 21.2036 21.9464 21.3601 22.1105 21.5617C22.2964 21.79 22.3927 22.0983 22.5854 22.715L23.2988 24.9978" stroke="#5ED76A" stroke-width="2"/>
<path d="M5.2998 21.9978L5.82937 20.5856C6.04404 20.0132 6.15138 19.7269 6.33727 19.516C6.50149 19.3297 6.70862 19.1861 6.94075 19.0978C7.20353 18.9978 7.50923 18.9978 8.12062 18.9978H11.479C12.0904 18.9978 12.3961 18.9978 12.6589 19.0978C12.891 19.1861 13.0981 19.3297 13.2623 19.516C13.4482 19.7269 13.5556 20.0132 13.7702 20.5856L14.2998 21.9978" stroke="#5ED76A" stroke-width="2"/>
<path d="M22.2988 21.9978L22.8284 20.5856C23.0431 20.0132 23.1504 19.7269 23.3363 19.516C23.5005 19.3297 23.7076 19.1861 23.9398 19.0978C24.2026 18.9978 24.5082 18.9978 25.1196 18.9978H28.478C29.0894 18.9978 29.3951 18.9978 29.6579 19.0978C29.89 19.1861 30.0971 19.3297 30.2614 19.516C30.4473 19.7269 30.5546 20.0132 30.7693 20.5856L31.2988 21.9978" stroke="#5ED76A" stroke-width="2"/>
<path d="M21.3018 15.9978C21.3018 17.6547 19.9586 18.9978 18.3018 18.9978C16.6449 18.9978 15.3018 17.6547 15.3018 15.9978C15.3018 14.3409 16.6449 12.9978 18.3018 12.9978C19.9586 12.9978 21.3018 14.3409 21.3018 15.9978Z" stroke="#5ED76A" stroke-width="2"/>
<path d="M12.2988 14.4978C12.2988 15.8785 11.1795 16.9978 9.79883 16.9978C8.41812 16.9978 7.29883 15.8785 7.29883 14.4978C7.29883 13.1171 8.41812 11.9978 9.79883 11.9978C11.1795 11.9978 12.2988 13.1171 12.2988 14.4978Z" stroke="#5ED76A" stroke-width="2"/>
<path d="M29.2998 14.4978C29.2998 15.8785 28.1805 16.9978 26.7998 16.9978C25.4191 16.9978 24.2998 15.8785 24.2998 14.4978C24.2998 13.1171 25.4191 11.9978 26.7998 11.9978C28.1805 11.9978 29.2998 13.1171 29.2998 14.4978Z" stroke="#5ED76A" stroke-width="2"/>
</svg>
