<svg width="167" height="30" viewBox="0 0 167 30" fill="none" xmlns="http://www.w3.org/2000/svg">
<g clip-path="url(#clip0_3164_16094)">
<path d="M4.07223 19.0027V12.1533H5.71739C7.19042 12.1533 8.4031 12.3247 9.26807 12.8476C10.133 13.3662 10.6555 14.2362 10.6555 15.6205C10.6555 17.9605 9.26807 19.0027 5.9786 19.0027H4.07223ZM0.085641 22.2942H5.88868C12.3863 22.2942 14.7277 19.4313 14.7277 15.4447C14.7277 12.7567 13.6015 10.9362 11.6104 9.89388C10.0517 9.02817 8.05968 8.76674 5.63175 8.76674H4.07309V3.56388H12.8222L13.8627 0.353027H0V22.2907H0.085641V22.2942ZM17.4134 22.2942H21.2244L26.1625 15.1833C27.1174 13.8839 27.8076 12.5819 28.2436 11.8876H28.3292C28.2436 12.8433 28.1579 14.0562 28.1579 15.269V22.205H32.0554V6.60246H28.2444L23.3063 13.7133C22.4414 15.0127 21.6612 16.3147 21.2253 17.009H21.1396C21.2253 16.0542 21.3109 14.8405 21.3109 13.6276V6.6916H17.4134V22.3027V22.2959V22.2942ZM38.7277 22.2942H42.7143V9.89474H47.3912L48.4317 6.59988H33.9618V9.8956H38.7277V22.2959V22.2942ZM53.7166 30.185V22.2942C54.496 22.5556 55.2753 22.6413 56.1403 22.6413C61.0792 22.6413 64.2864 19.2599 64.2864 14.4033C64.2864 9.54674 61.3404 6.16531 55.7086 6.16531C53.5419 6.16531 51.4643 6.59817 49.73 7.12017L49.8157 30.1859L53.7166 30.185ZM53.7166 18.9127V9.72331C54.3247 9.55188 54.8428 9.46188 55.5365 9.46188C58.3969 9.46188 60.2133 11.0219 60.2133 14.4042C60.2133 17.4385 58.7403 19.3465 55.7943 19.3465C55.0149 19.3465 54.4069 19.175 53.7132 18.9127H53.7166ZM66.6244 22.2942H70.4363L75.3744 15.1833C76.3293 13.8839 77.0187 12.5819 77.4555 11.8876H77.5411C77.4555 12.8433 77.3698 14.0562 77.3698 15.269V22.205H81.2665V6.60246H77.4555L72.5174 13.7133C71.6524 15.0127 70.8731 16.3147 70.4363 17.009H70.3507C70.4363 16.0542 70.522 14.8405 70.522 13.6276V6.6916H66.6253V22.3027V22.2959L66.6244 22.2942ZM84.3881 22.2942H88.3755V15.7919H90.7135C91.1469 15.7919 91.5794 16.2247 92.1009 17.2662L94.0929 22.2942H98.3373L95.4769 16.3113C94.9579 15.269 94.4364 14.6647 93.6562 14.4033V14.3176C94.9545 13.5376 95.1301 11.2833 95.9094 10.1553C96.1706 9.80817 96.5174 9.63588 97.0356 9.63588C97.2968 9.63588 97.6436 9.63589 97.9005 9.80731V6.4276C97.4681 6.25617 96.6887 6.16703 96.2562 6.16703C94.8688 6.16703 94.003 6.6856 93.3958 7.5556C92.0975 9.46274 92.0975 12.7585 90.1886 12.7585H88.3678V6.60246H84.3812V22.2985L84.3881 22.2942ZM107.173 22.6413C109.34 22.6413 111.331 21.947 112.543 21.0813L111.416 18.3933C110.29 19.0019 109.25 19.4347 107.777 19.4347C105.092 19.4347 103.358 17.699 103.358 14.4925C103.358 11.6296 105.092 9.37531 108.034 9.37531C109.593 9.37531 110.719 9.80817 111.845 10.5882V7.20846C110.98 6.68903 109.593 6.16703 107.602 6.16703C102.924 6.16703 99.2845 9.63417 99.2845 14.5765C99.2845 19.085 102.056 22.6396 107.169 22.6396L107.173 22.643V22.6413Z" fill="#0BBBEF"/>
<path d="M158.508 16.9954C153.831 16.9954 150.105 13.266 150.016 8.49601C150.016 3.8143 153.828 -0.00341797 158.508 -0.00341797C163.188 -0.00341797 167 3.81087 167 8.49601C167 13.1803 163.188 16.9954 158.508 16.9954ZM158.508 2.07258C154.979 2.07258 152.09 4.96372 152.09 8.49601C152.169 12.1097 154.979 14.9194 158.508 14.9194C162.037 14.9194 164.926 12.0274 164.926 8.49601C164.926 4.96372 162.037 2.07258 158.508 2.07258Z" fill="#005893"/>
<path d="M157.432 4.14795H159.087V9.73738H157.432V4.14795Z" fill="#005893"/>
<path d="M163.02 8.08006V9.73691H157.435V8.08006H163.02ZM114.799 22.2949H130.049V18.9135H119.998C121.385 13.3626 129.874 12.1498 129.874 5.99377C129.874 2.69806 127.621 0.271484 122.855 0.271484C119.908 0.271484 117.309 1.1372 115.578 2.0072L116.619 5.1272C118.178 4.3472 119.998 3.65291 122.25 3.65291C123.985 3.65291 125.63 4.43291 125.63 6.42663C125.63 10.9361 115.664 11.2832 114.799 22.2949ZM140.268 16.9198V22.2949H144.166V16.9198H147.459V13.6241H144.166V0.271484H141.305L130.475 14.3183V16.9198H140.268ZM134.898 13.7998L140.443 6.34091C140.443 6.94948 140.272 8.85663 140.272 10.5889V13.7089H137.672C136.893 13.7089 135.419 13.7955 134.901 13.7955L134.898 13.7998Z" fill="#005893"/>
</g>
<defs>
<clipPath id="clip0_3164_16094">
<rect width="167" height="30" fill="white"/>
</clipPath>
</defs>
</svg>
