<svg width="36" height="36" viewBox="0 0 36 36" fill="none" xmlns="http://www.w3.org/2000/svg">
<path d="M9 30.5V13.5C9 13.2239 8.77614 13 8.5 13H4.5C4.22386 13 4 13.2239 4 13.5V30.5C4 30.7761 4.22386 31 4.5 31H8.5C8.77614 31 9 30.7761 9 30.5Z" stroke="#64E267" stroke-width="2.5"/>
<path d="M21 30.5V8.5C21 8.22386 20.7761 8 20.5 8H15.5C15.2239 8 15 8.22386 15 8.5V30.5C15 30.7761 15.2239 31 15.5 31H20.5C20.7761 31 21 30.7761 21 30.5Z" stroke="#64E267" stroke-width="2.5"/>
<path d="M32 30.5V3.5C32 3.22386 31.7761 3 31.5 3H27.5C27.2239 3 27 3.22386 27 3.5V30.5C27 30.7761 27.2239 31 27.5 31H31.5C31.7761 31 32 30.7761 32 30.5Z" stroke="#64E267" stroke-width="2.5"/>
</svg>
