<svg width="163" height="30" viewBox="0 0 163 30" fill="none" xmlns="http://www.w3.org/2000/svg">
<g clip-path="url(#clip0_3164_16106)">
<path d="M11.2524 0L2.45473 5.05687C1.86819 5.39299 1.38067 5.87805 1.04139 6.46307C0.702123 7.04809 0.523118 7.71234 0.522461 8.38875V18.4688L3.55888 16.7231V8.38875C3.55888 8.095 3.71689 7.8225 3.97294 7.675L11.2524 3.49062V0ZM12.7556 29.4844L3.95795 24.4275L6.99437 22.6819L14.2738 26.8662C14.5298 27.0138 14.8459 27.0138 15.1019 26.8662L22.352 22.7L25.3884 24.445L16.6207 29.485C16.0326 29.8225 15.3664 30.0001 14.6885 30.0001C14.0105 30.0001 13.3443 29.8225 12.7562 29.485M28.8532 18.5031V8.38875C28.8525 7.71245 28.6734 7.04832 28.3341 6.46342C27.9949 5.87852 27.5074 5.39356 26.921 5.0575L18.1527 0.01625V3.50688L25.4034 7.67438C25.6594 7.82188 25.8174 8.09375 25.8174 8.38812V16.7569L28.8532 18.5031ZM20.805 20.1656L21.399 19.1488L14.6791 15.3131L7.91055 19.1756L8.48885 20.1656H20.805ZM7.20733 17.9125L13.9753 14.0494V6.14937H12.9929L6.66525 16.9844L7.20733 17.9125ZM15.3773 6.15V14.0494L22.0972 17.885L22.6755 16.8956L16.399 6.15H15.3773Z" fill="#D50032"/>
<path fill-rule="evenodd" clip-rule="evenodd" d="M134.979 12.9737C133.929 12.9737 133.367 12.9481 132.601 12.8962C131.85 12.8562 131.208 12.7731 130.677 12.6412C130.146 12.4979 129.711 12.3029 129.373 12.0562C129.043 11.7993 128.782 11.4634 128.615 11.0793C128.433 10.676 128.31 10.1814 128.245 9.59556C128.181 9.01056 128.148 8.30765 128.149 7.48681V7.17494C128.149 6.35411 128.181 5.65119 128.245 5.06619C128.311 4.48077 128.434 3.98619 128.615 3.58244C128.796 3.16577 129.049 2.8339 129.373 2.58681C129.711 2.33931 130.145 2.15056 130.677 2.02056C131.208 1.89098 131.849 1.80619 132.601 1.76619C133.392 1.7093 134.186 1.68324 134.979 1.68806H135.484C136.534 1.68806 137.091 1.71431 137.843 1.76619C138.609 1.80556 139.257 1.88869 139.789 2.02056C140.319 2.15056 140.747 2.33931 141.071 2.58681C141.409 2.83473 141.668 3.16661 141.849 3.58244C142.03 3.98619 142.153 4.48077 142.218 5.06619C142.283 5.65119 142.315 6.35411 142.315 7.17494V7.48681C142.314 8.30765 142.282 9.01056 142.218 9.59556C142.153 10.1814 142.03 10.6824 141.849 11.0987C141.679 11.4861 141.411 11.8226 141.071 12.0749C140.747 12.3224 140.319 12.5112 139.789 12.6412C139.257 12.7712 138.609 12.856 137.843 12.8956C137.058 12.9526 136.271 12.9786 135.484 12.9737H134.979ZM135.367 10.4162C136.314 10.4162 136.706 10.3906 137.24 10.3387C137.784 10.2862 138.186 10.1626 138.445 9.96807C138.717 9.75973 138.879 9.4539 138.931 9.05056C138.996 8.6464 139.028 8.09973 139.028 7.41057V7.23556C139.027 6.53265 138.995 5.97931 138.931 5.57556C138.879 5.1589 138.717 4.85286 138.445 4.65744C138.186 4.45036 137.784 4.31994 137.24 4.26619C136.708 4.21431 136.314 4.18807 135.367 4.18807H135.095C134.136 4.18807 133.734 4.21431 133.203 4.26619C132.672 4.31786 132.27 4.44827 131.998 4.65744C131.739 4.85307 131.577 5.15744 131.511 5.57556C131.459 5.97931 131.434 6.53265 131.434 7.23556V7.41057C131.434 8.10056 131.459 8.64723 131.511 9.05056C131.577 9.4539 131.739 9.75973 131.998 9.96807C132.27 10.1635 132.672 10.287 133.203 10.3387C133.734 10.3906 134.136 10.4162 135.095 10.4162H135.367ZM39.4717 2.40244H49.9543V4.85619H42.6742V12.9731H39.4717V2.40244ZM60.4512 7.81806C60.1036 7.85598 59.6277 7.87473 59.0236 7.87431V7.87306H55.2808V4.72369H59.0236C59.6289 4.72369 60.1048 4.74244 60.4512 4.77994C60.7985 4.81744 61.062 4.89244 61.2419 5.00494C61.4221 5.10494 61.5316 5.25494 61.5704 5.45494C61.6216 5.65619 61.6472 5.91869 61.6472 6.24244V6.37369C61.6472 6.69994 61.6216 6.96265 61.5704 7.16181C61.5308 7.34931 61.4213 7.49931 61.2419 7.61181C61.062 7.71181 60.7985 7.78056 60.4512 7.81806ZM52.0795 12.9737H55.2808V10.2349H59.5825C60.6509 10.2349 61.5254 10.1849 62.2061 10.0849C62.8869 9.98494 63.4206 9.79786 63.8074 9.52369C64.1921 9.24869 64.4554 8.86744 64.5974 8.37994C64.7515 7.87994 64.8285 7.23619 64.8285 6.44869V6.16869C64.8285 5.38202 64.7515 4.74494 64.5974 4.25744C64.4571 3.75744 64.1938 3.37619 63.8074 3.11369C63.4223 2.83952 62.8885 2.65244 62.2061 2.55244C61.5241 2.45244 60.6498 2.40244 59.5831 2.40244H52.0789L52.0795 12.9737ZM80.4109 12.9737H76.8155L75.7832 11.0806H68.7099L67.6969 12.9737H64.1209L70.22 2.40244H74.2931L80.4109 12.9737ZM74.5885 8.86869L72.2634 4.61431H72.1841L69.899 8.86869H74.5885ZM81.9685 2.40244V12.9737H91.5592C92.2229 12.9737 92.7972 12.9299 93.2823 12.8424C93.7673 12.7424 94.1695 12.5799 94.4889 12.3549C94.8082 12.1174 95.0441 11.8051 95.1964 11.4181C95.3493 11.0193 95.4257 10.5197 95.4257 9.91932C95.4257 9.17015 95.2662 8.60181 94.9473 8.21431C94.6279 7.82681 94.1685 7.58306 93.5689 7.48306V7.44557C94.0411 7.30806 94.411 7.05806 94.6787 6.69557C94.9473 6.33182 95.0809 5.78369 95.0809 5.04556C95.0813 4.54556 95.0112 4.12682 94.8704 3.78931C94.7318 3.45182 94.4939 3.18307 94.1629 2.98369C93.8306 2.77119 93.3837 2.62119 92.822 2.53369C92.2741 2.44619 91.5851 2.40244 90.7549 2.40244H81.9685ZM91.9989 10.4612C91.8211 10.6362 91.4897 10.7237 91.0047 10.7237H85.1473V8.58681H91.0047C91.4889 8.58681 91.8203 8.66806 91.9989 8.83056C92.1904 8.99306 92.2862 9.26181 92.2862 9.63681C92.2862 9.99931 92.1904 10.2741 91.9989 10.4612ZM91.6935 6.35681C91.5157 6.49431 91.2605 6.56307 90.9278 6.56307V6.56494H85.1473V4.57744H90.9278C91.2597 4.57744 91.5149 4.64619 91.6935 4.78369C91.885 4.92077 91.9806 5.18931 91.9802 5.58931C91.9802 5.96348 91.8846 6.21931 91.6935 6.35681ZM97.6939 12.9737H102.678L109.231 5.06244H109.311V12.9731H112.568V2.40244H107.504L101.03 10.3124H100.97V2.40244H97.6939V12.9737ZM118.718 12.9737H121.975V4.78119H126.732V2.40244H113.983V4.78119H118.718V12.9737ZM154.85 12.9737H158.039V2.40244H154.85V6.26306H147.771V2.40244H144.582V12.9737H147.771V8.88682H154.85V12.9737Z" fill="#464646"/>
<path fill-rule="evenodd" clip-rule="evenodd" d="M40.4078 22.9864H41.9891C42.3064 22.9864 42.5651 23.0383 42.7654 23.142C42.9661 23.2449 43.1133 23.392 43.2069 23.5833C43.3006 23.7745 43.3475 24.0012 43.3475 24.2633C43.3475 24.522 43.2925 24.747 43.1826 24.9383C43.0727 25.1258 42.9126 25.2714 42.7023 25.3752C42.4954 25.4785 42.2433 25.5302 41.946 25.5302H40.4078V22.9864ZM40.4078 22.2339V19.9908H41.7855C42.0961 19.9908 42.3516 20.0297 42.5518 20.1077C42.7558 20.1818 42.9063 20.3016 43.0033 20.467C43.1033 20.6287 43.1532 20.8391 43.1532 21.0983C43.1532 21.3345 43.0968 21.5383 42.984 21.7095C42.8741 21.8783 42.7188 22.0077 42.5181 22.0977C42.3182 22.1885 42.0838 22.2339 41.8149 22.2339H40.4078ZM43.0527 22.5683C43.1193 22.5391 43.1838 22.507 43.2463 22.472C43.5111 22.3229 43.7178 22.1318 43.8664 21.8989C44.0155 21.6627 44.09 21.3989 44.09 21.1077C44.09 20.7777 44.0382 20.4943 43.9345 20.2577C43.8358 20.0272 43.6787 19.8266 43.4786 19.6758C43.265 19.5118 43.0185 19.3958 42.756 19.3358C42.4386 19.2576 42.1125 19.22 41.7855 19.2239H39.4717V26.2927H41.946C42.4182 26.2927 42.8287 26.2149 43.1776 26.0595C43.5273 25.9008 43.7975 25.671 43.9882 25.3702C44.1818 25.066 44.2788 24.6937 44.2792 24.2533C44.2792 23.9491 44.2162 23.6708 44.09 23.4183C43.9685 23.1673 43.7827 22.953 43.5517 22.797C43.4 22.6918 43.2314 22.6144 43.0527 22.5683ZM88.7364 19.2245H87.5336V26.2927H88.4647V23.5352L88.3748 20.5708L90.6918 26.2927H91.4L93.7213 20.5789L93.6314 23.5352V26.2927H94.5626V19.2239H93.3597L91.0509 24.9864L88.7364 19.2245ZM114.169 25.7827V28.3127H113.267V21.0395H114.092L114.136 21.6164C114.309 21.4015 114.53 21.2304 114.781 21.117C115.033 21.0004 115.324 20.942 115.654 20.942C115.984 20.942 116.276 21.007 116.532 21.137C116.787 21.2629 117.002 21.4441 117.177 21.6808C117.352 21.9166 117.482 22.1997 117.57 22.5302C117.66 22.8568 117.705 23.2208 117.705 23.622V23.7245C117.705 24.1062 117.66 24.4604 117.57 24.787C117.489 25.0902 117.354 25.3764 117.172 25.632C117.007 25.8657 116.789 26.0569 116.536 26.1902C116.284 26.3235 115.995 26.3899 115.668 26.3895C115.335 26.3895 115.041 26.3345 114.785 26.2245C114.55 26.124 114.34 25.9732 114.169 25.7827ZM114.189 24.9658L114.203 24.9908C114.32 25.1887 114.475 25.3491 114.669 25.472C114.863 25.5916 115.108 25.6514 115.402 25.6514C115.644 25.6514 115.852 25.6014 116.027 25.5014C116.205 25.3972 116.351 25.2564 116.464 25.0789C116.584 24.8913 116.671 24.6843 116.721 24.467C116.777 24.2235 116.805 23.9744 116.804 23.7245V23.622C116.804 23.3604 116.776 23.1145 116.721 22.8845C116.672 22.6669 116.585 22.4597 116.464 22.2727C116.355 22.0992 116.205 21.9557 116.027 21.8552C115.85 21.7514 115.638 21.6995 115.392 21.6995C115.188 21.6942 114.986 21.7341 114.8 21.8164C114.635 21.8943 114.494 21.9995 114.378 22.132C114.298 22.2211 114.228 22.3188 114.169 22.4233V24.9308L114.179 24.9477L114.189 24.9658ZM118.613 23.7245V23.612C118.613 23.2337 118.668 22.8827 118.778 22.5589C118.88 22.2473 119.041 21.9588 119.254 21.7095C119.459 21.468 119.716 21.2756 120.006 21.1464C120.316 21.0062 120.654 20.9366 120.995 20.9427C121.364 20.9427 121.695 21.0106 121.99 21.1464C122.287 21.2793 122.539 21.467 122.747 21.7095C122.956 21.9487 123.116 22.232 123.227 22.5595C123.337 22.8829 123.392 23.2339 123.392 23.6127V23.7245C123.392 24.1029 123.337 24.4539 123.227 24.7777C123.124 25.0898 122.961 25.3787 122.747 25.6277C122.54 25.8674 122.283 26.0594 121.995 26.1902C121.703 26.3235 121.373 26.3899 121.005 26.3895C120.636 26.3895 120.305 26.3231 120.011 26.1902C119.721 26.0583 119.463 25.8666 119.254 25.6277C119.042 25.3773 118.881 25.0888 118.778 24.7777C118.666 24.4381 118.61 24.0823 118.613 23.7245ZM119.511 23.612V23.7245C119.511 23.9862 119.542 24.2337 119.603 24.467C119.664 24.697 119.757 24.901 119.879 25.0789C120.006 25.2572 120.162 25.3979 120.35 25.5008C120.537 25.6012 120.756 25.6514 121.005 25.6514C121.25 25.6514 121.465 25.6014 121.65 25.5014C121.838 25.3972 121.993 25.2564 122.116 25.0789C122.239 24.9014 122.331 24.6974 122.392 24.467C122.457 24.2337 122.489 23.9862 122.489 23.7245V23.612C122.491 23.3646 122.458 23.1181 122.392 22.8795C122.337 22.6587 122.241 22.4499 122.111 22.2633C121.992 22.0855 121.832 21.9389 121.645 21.8358C121.445 21.7289 121.222 21.6755 120.995 21.6808C120.749 21.6808 120.533 21.7324 120.345 21.8358C120.159 21.9408 120 22.0871 119.879 22.2633C119.752 22.4509 119.658 22.6595 119.603 22.8795C119.54 23.1188 119.509 23.3647 119.511 23.612ZM136.232 23.6127V23.7252C136.232 24.1035 136.287 24.4545 136.397 24.7783C136.507 25.102 136.665 25.3854 136.872 25.6283C137.082 25.8672 137.34 26.0589 137.629 26.1908C137.942 26.3281 138.281 26.3962 138.623 26.3902C138.992 26.3902 139.322 26.3237 139.613 26.1908C139.901 26.06 140.158 25.8681 140.365 25.6283C140.575 25.3854 140.735 25.102 140.845 24.7783C140.955 24.4545 141.01 24.1035 141.01 23.7252V23.6127C141.01 23.2343 140.955 22.8833 140.845 22.5595C140.744 22.2469 140.581 21.958 140.365 21.7102C140.158 21.468 139.899 21.2756 139.608 21.147C139.295 21.0074 138.956 20.9379 138.614 20.9433C138.248 20.9433 137.918 21.0112 137.624 21.147C137.334 21.2762 137.077 21.4686 136.872 21.7102C136.659 21.9596 136.498 22.2484 136.397 22.5602C136.284 22.8997 136.229 23.2549 136.232 23.6127ZM137.129 23.7258V23.6133C137.129 23.3549 137.16 23.1108 137.221 22.8808C137.283 22.6474 137.375 22.442 137.498 22.2645C137.624 22.0833 137.779 21.9408 137.964 21.837C138.151 21.7337 138.368 21.682 138.614 21.682C138.862 21.682 139.079 21.7337 139.263 21.837C139.451 21.9408 139.606 22.0833 139.729 22.2645C139.855 22.442 139.949 22.6474 140.011 22.8808C140.075 23.1108 140.108 23.3552 140.108 23.6139V23.7258C140.108 23.9874 140.075 24.2349 140.011 24.4683C139.955 24.6868 139.861 24.8939 139.734 25.0802C139.611 25.2585 139.456 25.3991 139.268 25.502C139.084 25.6024 138.869 25.6527 138.623 25.6527C138.374 25.6527 138.156 25.6027 137.968 25.5027C137.781 25.3996 137.62 25.255 137.498 25.0802C137.371 24.8939 137.277 24.6868 137.221 24.4683C137.159 24.2257 137.128 23.9762 137.129 23.7258ZM143.034 28.3133V25.7839C143.205 25.9756 143.411 26.1229 143.65 26.2258C143.905 26.3358 144.199 26.3908 144.533 26.3908C144.859 26.3908 145.149 26.3243 145.401 26.1914C145.653 26.0589 145.865 25.8729 146.037 25.6333C146.211 25.3937 146.344 25.1122 146.435 24.7889C146.525 24.4618 146.57 24.1074 146.57 23.7258V23.6233C146.57 23.222 146.525 22.8581 146.435 22.5314C146.358 22.2258 146.225 21.9374 146.042 21.6814C145.874 21.4501 145.652 21.2634 145.396 21.1377C145.141 21.0085 144.848 20.9439 144.519 20.9439C144.188 20.9439 143.897 21.0022 143.645 21.1189C143.394 21.2321 143.173 21.4029 143 21.6177L142.956 21.0408H142.132V28.3127L143.034 28.3133ZM143.068 24.9927L143.034 24.9327V22.4245C143.094 22.3183 143.163 22.2212 143.243 22.1333C143.359 21.9993 143.503 21.8917 143.664 21.8177C143.833 21.7402 144.03 21.7012 144.256 21.7008C144.502 21.7008 144.714 21.7529 144.892 21.857C145.069 21.957 145.215 22.096 145.329 22.2739C145.445 22.4489 145.53 22.6529 145.585 22.8858C145.64 23.1154 145.668 23.3612 145.668 23.6233V23.7258C145.668 23.9874 145.64 24.2349 145.585 24.4683C145.536 24.6855 145.449 24.8925 145.329 25.0802C145.215 25.2585 145.069 25.3991 144.892 25.502C144.717 25.6024 144.509 25.6527 144.266 25.6527C143.972 25.6527 143.727 25.5929 143.534 25.4733C143.342 25.3528 143.182 25.1883 143.068 24.9927ZM154.999 25.7377C154.794 25.9548 154.546 26.1272 154.271 26.2439C154.028 26.3442 153.767 26.3939 153.504 26.3902C153.149 26.3902 152.837 26.3206 152.568 26.1814C152.315 26.0536 152.101 25.861 151.947 25.6233C151.802 25.387 151.729 25.1233 151.729 24.832C151.729 24.5504 151.784 24.3027 151.894 24.0889C152.004 23.8722 152.162 23.6927 152.369 23.5502C152.576 23.4043 152.825 23.2943 153.116 23.2202C153.407 23.1452 153.732 23.1079 154.091 23.1083H154.979V22.6908C154.984 22.5033 154.94 22.3178 154.853 22.152C154.771 21.996 154.642 21.87 154.484 21.7927C154.319 21.7089 154.115 21.6668 153.873 21.6664C153.647 21.6664 153.448 21.7054 153.276 21.7833C153.121 21.851 152.984 21.956 152.878 22.0889C152.785 22.2152 152.738 22.351 152.738 22.4964H151.841C151.841 22.3089 151.889 22.1229 151.986 21.9383C152.083 21.7537 152.222 21.587 152.403 21.4383C152.599 21.2791 152.823 21.1573 153.063 21.0789C153.341 20.9857 153.633 20.9398 153.926 20.9433C154.308 20.9433 154.644 21.0079 154.935 21.137C155.23 21.2666 155.459 21.4624 155.624 21.7245C155.792 21.9837 155.876 22.3091 155.876 22.7008V25.147C155.876 25.322 155.891 25.5083 155.92 25.7058C155.952 25.9033 155.999 26.0731 156.061 26.2152V26.2933H155.124C155.071 26.1608 155.035 26.0222 155.017 25.8808L154.999 25.7377ZM154.979 24.8164C154.945 24.8813 154.907 24.9432 154.863 25.0014C154.739 25.1702 154.573 25.3127 154.363 25.4289C154.153 25.5456 153.91 25.6039 153.635 25.6039C153.416 25.6039 153.229 25.5649 153.077 25.487C152.936 25.4137 152.82 25.3007 152.743 25.162C152.668 25.0232 152.63 24.8678 152.631 24.7102C152.631 24.5485 152.667 24.4079 152.738 24.2883C152.809 24.1654 152.912 24.0633 153.048 23.982C153.205 23.8936 153.376 23.8329 153.553 23.8027C153.778 23.7584 154.007 23.7372 154.237 23.7395H154.979V24.8164ZM151.107 21.7833V21.0402H147.784V26.2933H148.682V21.7833H151.107ZM134.029 21.7683V26.2933H133.127V21.7683H131.4V21.0402H135.79V21.7683H134.029ZM129.32 21.0402L127.535 25.0989L125.759 21.0402H124.6V26.2933H125.498V22.397L127.224 26.2933H127.845L129.543 22.4789V26.2933H130.446V21.0402H129.32ZM110.931 21.7833H108.516V26.2933H107.618V21.0402H111.834V26.2933H110.931V21.7833ZM105.189 23.317V21.0402H106.091V26.2933H105.189V24.0439H102.778V26.292H101.881V21.0389H102.778V23.3158L105.189 23.317ZM97.0425 24.8708L99.4632 21.0402H100.366V26.2933H99.4632V22.4627L97.0425 26.2933H96.1501V21.0402H97.0425V24.8708ZM81.8417 26.3902C81.5013 26.3954 81.1633 26.3328 80.8475 26.2058C80.5595 26.0842 80.3 25.9039 80.0855 25.6764C79.8717 25.4427 79.7067 25.1686 79.6003 24.8702C79.4842 24.5432 79.4269 24.1983 79.431 23.8514V23.647C79.431 23.2199 79.4939 22.8397 79.6196 22.5064C79.7458 22.1697 79.9173 21.8849 80.1342 21.652C80.3507 21.4187 80.5964 21.2422 80.8712 21.1227C81.1405 21.0043 81.4314 20.9432 81.7255 20.9433C82.1002 20.9433 82.4235 21.0079 82.6954 21.137C82.9702 21.267 83.195 21.4483 83.3699 21.6808C83.5439 21.9108 83.6732 22.1827 83.7577 22.4964C83.8418 22.8068 83.8839 23.1468 83.8839 23.5164V23.9189H80.3341C80.3399 24.1431 80.3734 24.3552 80.4346 24.5552C80.5054 24.7718 80.6074 24.9627 80.7407 25.1277C80.8764 25.2931 81.0396 25.4227 81.2303 25.5164C81.4368 25.6129 81.6625 25.661 81.8904 25.657C82.2068 25.657 82.4752 25.5924 82.6954 25.4633C82.9152 25.3333 83.1076 25.1599 83.2725 24.9433L83.8158 25.3752C83.694 25.5569 83.5489 25.7218 83.3843 25.8658C83.2094 26.0212 82.9943 26.1474 82.7391 26.2445C82.4868 26.3416 82.1877 26.3902 81.8417 26.3902ZM80.3603 23.1858H82.9864V23.1183C82.9734 22.8854 82.9243 22.656 82.8409 22.4383C82.7645 22.2246 82.6302 22.0363 82.4531 21.8945C82.2749 21.752 82.0324 21.6808 81.7255 21.6808C81.5295 21.6786 81.3358 21.7238 81.161 21.8126C80.9861 21.9014 80.8353 22.0311 80.7213 22.1908C80.5981 22.3595 80.5025 22.5649 80.4346 22.807C80.4022 22.9245 80.3774 23.0508 80.3603 23.1858ZM74.9513 21.617C75.1239 21.4021 75.3447 21.231 75.5959 21.1177C75.8477 21.001 76.1388 20.9427 76.4689 20.9427C76.7983 20.9427 77.091 21.0077 77.347 21.1377C77.6022 21.2635 77.8173 21.4447 77.9921 21.6814C78.1666 21.9172 78.2975 22.2004 78.385 22.5308C78.4753 22.8574 78.5205 23.2214 78.5205 23.6227V23.7252C78.5205 24.1068 78.4753 24.461 78.385 24.7877C78.3039 25.0909 78.1692 25.3771 77.9871 25.6327C77.8222 25.8663 77.6043 26.0576 77.3514 26.1908C77.0991 26.3241 76.8097 26.3906 76.4833 26.3902C76.1502 26.3902 75.8559 26.3352 75.6002 26.2252C75.3652 26.1247 75.155 25.9738 74.9844 25.7833V28.3127H74.082V21.0395H74.907L74.9513 21.617ZM74.9844 24.932V22.4239C75.043 22.3194 75.113 22.2217 75.193 22.1327C75.3092 22.0002 75.4499 21.8949 75.6152 21.817C75.8013 21.7347 76.0033 21.6948 76.2066 21.7002C76.4523 21.7002 76.6642 21.7522 76.8424 21.8564C77.0202 21.9564 77.1657 22.0954 77.2789 22.2733C77.3951 22.4483 77.4809 22.6522 77.5362 22.8852C77.5912 23.1147 77.6187 23.3606 77.6187 23.6227V23.7252C77.6187 23.9868 77.5912 24.2343 77.5362 24.4677C77.4863 24.6849 77.3992 24.8919 77.2789 25.0795C77.1657 25.2579 77.0202 25.3985 76.8424 25.5014C76.6675 25.6018 76.4589 25.652 76.2166 25.652C75.9227 25.652 75.6785 25.5922 75.4841 25.4727C75.2726 25.3397 75.1002 25.1535 74.9844 24.932ZM71.4422 21.7677V26.2927H70.5397V21.7677H68.8129V21.0395H73.2027V21.7677H71.4422ZM66.7939 25.5208C66.6127 25.6083 66.4156 25.652 66.2024 25.652C65.9243 25.652 65.6914 25.5985 65.5036 25.4914C65.3224 25.3845 65.1707 25.2341 65.0621 25.0539C64.9526 24.8661 64.8756 24.6611 64.8341 24.4477C64.7892 24.224 64.7666 23.9964 64.7667 23.7683V23.5639C64.7667 23.3347 64.7891 23.1097 64.8341 22.8889C64.8793 22.6758 64.9579 22.4712 65.067 22.2827C65.177 22.0977 65.3241 21.9518 65.5086 21.8452C65.6959 21.7356 65.9272 21.6806 66.2024 21.6802C66.4418 21.6802 66.6504 21.7337 66.8282 21.8408C67.0093 21.9441 67.1515 22.0833 67.2548 22.2583C67.3618 22.4333 67.4232 22.6291 67.439 22.8458H68.2927C68.2827 22.5021 68.1823 22.1671 68.0017 21.8745C67.8271 21.5865 67.5773 21.3515 67.2791 21.1952C66.9718 21.0264 66.6129 20.9422 66.2024 20.9427C65.8077 20.9427 65.4632 21.0122 65.1688 21.1514C64.8861 21.2846 64.6373 21.4803 64.4413 21.7239C64.2467 21.9747 64.1003 22.2596 64.0097 22.5639C63.9148 22.8887 63.8675 23.2255 63.8692 23.5639V23.7683C63.8692 24.1208 63.9161 24.4556 64.0097 24.7727C64.1067 25.0868 64.2506 25.3652 64.4413 25.6077C64.6353 25.8506 64.8778 26.0416 65.1688 26.1808C65.4632 26.3199 65.8077 26.3895 66.2024 26.3895C66.5742 26.3895 66.9154 26.3087 67.226 26.147C67.5234 25.993 67.7809 25.7717 67.9779 25.5008C68.172 25.232 68.2769 24.9424 68.2927 24.632H67.439C67.4251 24.8239 67.3561 25.0077 67.2404 25.1614C67.1222 25.315 66.9691 25.4382 66.7939 25.5208ZM61.0139 26.3895C60.6735 26.3948 60.3355 26.3321 60.0197 26.2052C59.7317 26.0836 59.4722 25.9033 59.2578 25.6758C59.0441 25.4421 58.8793 25.1679 58.7731 24.8695C58.6568 24.5427 58.5993 24.1977 58.6033 23.8508V23.6464C58.6033 23.2193 58.6663 22.8391 58.7925 22.5058C58.9186 22.1691 59.09 21.8843 59.3065 21.6514C59.523 21.4181 59.7686 21.2416 60.0434 21.122C60.319 21.0024 60.6038 20.9427 60.8978 20.9427C61.2725 20.9427 61.5958 21.0072 61.8676 21.1364C62.1424 21.2664 62.3672 21.4477 62.5421 21.6802C62.717 21.9102 62.8465 22.182 62.9306 22.4958C63.0142 22.8062 63.0561 23.1462 63.0561 23.5158V23.9183H59.5063C59.5121 24.1424 59.5459 24.3545 59.6075 24.5545C59.6783 24.7712 59.7803 24.962 59.9135 25.127C60.0488 25.2924 60.212 25.422 60.4031 25.5158C60.5967 25.6095 60.8166 25.6564 61.0626 25.6564C61.3795 25.6564 61.648 25.5918 61.8683 25.4627C62.0881 25.3327 62.2804 25.1593 62.4453 24.9427L62.9886 25.3745C62.8667 25.5563 62.7214 25.7213 62.5565 25.8652C62.3816 26.0206 62.1666 26.1468 61.9113 26.2439C61.659 26.341 61.3599 26.3895 61.0139 26.3895ZM59.5325 23.1852H62.1593V23.1177C62.1461 22.8848 62.0968 22.6554 62.0131 22.4377C61.937 22.2238 61.8027 22.0355 61.6253 21.8939C61.4475 21.7514 61.205 21.6802 60.8978 21.6802C60.7018 21.6785 60.5083 21.724 60.3336 21.8127C60.1588 21.9015 60.0079 22.0309 59.8935 22.1902C59.7615 22.3764 59.6645 22.5853 59.6075 22.8064C59.5742 22.9239 59.5492 23.0502 59.5325 23.1852ZM54.7487 26.2052C55.0648 26.3322 55.403 26.3949 55.7436 26.3895C56.0896 26.3895 56.3887 26.341 56.641 26.2439C56.8773 26.1581 57.096 26.0297 57.2861 25.8652C57.461 25.7102 57.6049 25.5466 57.7177 25.3745L57.1744 24.9433C57.0177 25.1523 56.8217 25.3285 56.5973 25.462C56.3775 25.592 56.1089 25.6568 55.7917 25.6564C55.546 25.6564 55.3262 25.6095 55.1322 25.5158C54.943 25.4229 54.776 25.2903 54.6425 25.127C54.5069 24.9562 54.4033 24.7622 54.3365 24.5545C54.2743 24.348 54.2405 24.1339 54.236 23.9183H57.7858V23.5158C57.7892 23.1717 57.7467 22.8287 57.6596 22.4958C57.5852 22.201 57.4534 21.9239 57.2718 21.6802C57.0955 21.4457 56.8637 21.2589 56.5973 21.1364C56.3254 21.0072 56.0021 20.9427 55.6274 20.9427C55.3333 20.9426 55.0424 21.0037 54.7731 21.122C54.4983 21.242 54.2526 21.4185 54.0361 21.6514C53.8103 21.8997 53.6355 22.19 53.5215 22.5058C53.3954 22.8391 53.3323 23.2193 53.3323 23.6464V23.8502C53.3323 24.2193 53.3889 24.5593 53.5022 24.8702C53.6154 25.181 53.7772 25.4497 53.9874 25.6764C54.2019 25.9037 54.4608 26.0838 54.7487 26.2052ZM56.889 23.1852H54.2628C54.2795 23.0506 54.3045 22.9245 54.3378 22.807C54.3948 22.5857 54.4917 22.3766 54.6238 22.1902C54.7462 22.0218 54.8932 21.8956 55.0647 21.8114C55.2363 21.7239 55.4238 21.6802 55.6274 21.6802C55.9347 21.6802 56.1774 21.7514 56.3556 21.8939C56.5338 22.0364 56.6631 22.2177 56.7434 22.4377C56.8275 22.6577 56.876 22.8843 56.889 23.1177V23.1852ZM49.4977 21.117C49.2465 21.2305 49.0257 21.4019 48.8532 21.617L48.8095 21.0395H47.9845V28.3127H48.887V25.7833C49.0581 25.9749 49.2633 26.1222 49.5027 26.2252C49.7584 26.3352 50.0527 26.3902 50.3858 26.3902C50.7122 26.3902 51.0016 26.3237 51.2539 26.1908C51.5062 26.0583 51.7181 25.8722 51.8897 25.6327C52.0645 25.3931 52.1971 25.1116 52.2875 24.7883C52.3778 24.4612 52.423 24.1068 52.423 23.7252V23.6227C52.423 23.2214 52.3778 22.8574 52.2875 22.5308C52.211 22.2252 52.0775 21.9368 51.894 21.6808C51.7267 21.4496 51.5054 21.263 51.2495 21.137C50.9939 21.0079 50.7012 20.9433 50.3714 20.9433C50.0413 20.9433 49.7501 21.0016 49.4977 21.1183M48.887 22.4245V24.932C48.8978 24.9529 48.909 24.9731 48.9207 24.9927C49.0373 25.1902 49.1926 25.3504 49.3866 25.4733C49.5806 25.5929 49.8248 25.6527 50.1191 25.6527C50.3615 25.6527 50.57 25.6027 50.7449 25.5027C50.9229 25.3999 51.0729 25.2548 51.1815 25.0802C51.3015 24.8925 51.3884 24.6855 51.4381 24.4683C51.4931 24.2349 51.5206 23.9874 51.5206 23.7258V23.6233C51.5206 23.3616 51.4931 23.1158 51.4381 22.8858C51.3896 22.6682 51.3027 22.461 51.1815 22.2739C51.0729 22.1004 50.9226 21.9568 50.7443 21.8564C50.5669 21.7527 50.3552 21.7008 50.1091 21.7008C49.8831 21.7008 49.6857 21.7397 49.5171 21.8177C49.3522 21.8956 49.2117 22.0008 49.0955 22.1333C49.0155 22.2224 48.9455 22.32 48.887 22.4245Z" fill="#9A9EA9"/>
</g>
<defs>
<clipPath id="clip0_3164_16106">
<rect width="163" height="30" fill="white"/>
</clipPath>
</defs>
</svg>
