<svg width="36" height="36" viewBox="0 0 36 36" fill="none" xmlns="http://www.w3.org/2000/svg">
<path d="M33.429 4.5H2.57185C1.86177 4.5 1.28613 5.07563 1.28613 5.78571V13.5C1.28613 14.2101 1.86177 14.7857 2.57185 14.7857H33.429C34.1391 14.7857 34.7147 14.2101 34.7147 13.5V5.78571C34.7147 5.07563 34.1391 4.5 33.429 4.5Z" stroke="#64E267" stroke-width="2.5"/>
<path d="M33.429 21.2144H2.57185C1.86177 21.2144 1.28613 21.79 1.28613 22.5001V30.2144C1.28613 30.9244 1.86177 31.5001 2.57185 31.5001H33.429C34.1391 31.5001 34.7147 30.9244 34.7147 30.2144V22.5001C34.7147 21.79 34.1391 21.2144 33.429 21.2144Z" stroke="#64E267" stroke-width="2.5"/>
</svg>
