<svg width="206" height="30" viewBox="0 0 206 30" fill="none" xmlns="http://www.w3.org/2000/svg">
<g clip-path="url(#clip0_3164_16059)">
<path d="M0 0V30H72.8997V0H0ZM70.0887 27.2072H2.78475V2.79375H70.0887V27.2072Z" fill="#579AD7"/>
<path d="M16.6156 19.3471C17.7618 18.8699 18.6719 17.9568 19.1463 16.8083C19.6206 15.6598 19.6204 14.3698 19.1457 13.2215C18.9114 12.6529 18.5674 12.1361 18.1334 11.7007C17.6993 11.2654 17.1838 10.92 16.6163 10.6844C16.0488 10.4487 15.4405 10.3275 14.8261 10.3275C14.2117 10.3276 13.6034 10.4489 13.0359 10.6846C11.8896 11.1617 10.9793 12.0747 10.505 13.2233C10.0306 14.3718 10.0309 15.6619 10.5059 16.8102C10.7402 17.3789 11.0842 17.8956 11.5182 18.331C11.9522 18.7663 12.4678 19.1117 13.0353 19.3473C13.6028 19.583 14.2111 19.7042 14.8255 19.7042C15.4398 19.7042 16.0482 19.5828 16.6156 19.3471ZM30.9495 19.3434C32.0958 18.8663 33.0061 17.9533 33.4807 16.8048C33.9552 15.6563 33.9551 14.3662 33.4805 13.2177C33.2463 12.649 32.9023 12.1322 32.4683 11.6967C32.0343 11.2613 31.5189 10.9158 30.9513 10.6801C30.3838 10.4443 29.7755 10.323 29.161 10.323C28.5466 10.3229 27.9382 10.4442 27.3707 10.6799C26.2243 11.1568 25.3138 12.0698 24.8392 13.2184C24.3646 14.3669 24.3648 15.6571 24.8397 16.8055C25.0739 17.3743 25.4179 17.8911 25.8519 18.3266C26.2859 18.762 26.8014 19.1075 27.3689 19.3432C27.9364 19.5789 28.5448 19.7003 29.1592 19.7003C29.7736 19.7003 30.382 19.579 30.9495 19.3434ZM45.2824 19.3387C46.4287 18.8616 47.3391 17.9486 47.8136 16.8001C48.2881 15.6516 48.2881 14.3615 47.8134 13.213C47.5792 12.6445 47.2353 12.1277 46.8014 11.6923C46.3674 11.2569 45.852 10.9115 45.2846 10.6758C44.7172 10.4401 44.109 10.3187 43.4947 10.3186C42.8803 10.3185 42.2721 10.4397 41.7046 10.6752C40.5581 11.1523 39.6475 12.0655 39.173 13.2142C38.6984 14.3629 38.6986 15.6532 39.1736 16.8018C39.4079 17.3704 39.7519 17.8872 40.1859 18.3225C40.62 18.7579 41.1355 19.1033 41.703 19.3389C42.2705 19.5745 42.8788 19.6958 43.4932 19.6958C44.1076 19.6957 44.715 19.5744 45.2824 19.3387ZM59.5938 19.3443C60.7403 18.8674 61.6508 17.9544 62.1253 16.8059C62.5999 15.6573 62.5997 14.3671 62.1248 13.2187C61.8906 12.65 61.5466 12.1331 61.1126 11.6976C60.6787 11.2622 60.1632 10.9167 59.5956 10.681C59.0281 10.4453 58.4198 10.3239 57.8053 10.3239C57.1909 10.3239 56.5825 10.4452 56.015 10.6809C54.8687 11.1579 53.9584 12.071 53.4838 13.2194C53.0093 14.3679 53.0094 15.658 53.484 16.8065C53.7183 17.3752 54.0622 17.8921 54.4962 18.3275C54.9302 18.763 55.4457 19.1084 56.0132 19.3442C56.5807 19.5799 57.1891 19.7012 57.8035 19.7013C58.4179 19.7013 59.0263 19.58 59.5938 19.3443ZM82.4561 8.91555H85.7773L88.5883 16.4474H88.7156L91.5266 8.91555H94.8488V21.059H92.242V13.603H92.139L89.5078 21.0065H87.8467L85.1893 13.5768H85.0872V21.0834H82.4813V8.91555H82.4561ZM104.839 8.91555H107.625V16.934C107.625 17.8565 107.42 18.6252 107.011 19.2655C106.604 19.9108 106.006 20.4124 105.3 20.6999C104.558 21.0337 103.715 21.1874 102.744 21.1874C101.773 21.1874 100.904 21.0327 100.189 20.6999C99.492 20.3973 98.8975 19.8992 98.4772 19.2655C98.068 18.6252 97.8639 17.8565 97.8639 16.934V8.91555H100.649V16.8318C100.649 17.3699 100.853 17.8312 101.237 18.1377C101.62 18.4715 102.131 18.6252 102.744 18.6252C103.383 18.6252 103.894 18.4715 104.277 18.1377C104.466 17.9779 104.617 17.7776 104.719 17.5516C104.821 17.3256 104.871 17.0796 104.865 16.8318V8.91555H104.839ZM110.409 21.0843V8.91555H113.195V18.7021H117.999V21.0843H110.409ZM118.356 11.324V8.94086H127.428V11.323H124.182V21.0843H121.627V11.3249L118.356 11.324ZM132.743 8.91555V21.059H129.957V8.91555H132.743ZM136.166 21.0843V8.91555H143.576V11.2977H138.772V13.7821H143.09V16.1652H138.772V21.059H136.166V21.0843ZM147.23 21.0843H144.088L148.15 8.94086H152.034L156.123 21.0843H152.979L152.187 18.5221H148.022L147.23 21.0843ZM148.712 16.2937H151.498L150.143 11.9896H150.041L148.712 16.2937ZM166.061 13.2187C165.857 12.6299 165.525 12.2202 165.09 11.8612C164.656 11.503 164.094 11.3237 163.404 11.323C162.484 11.323 161.743 11.6568 161.232 12.2971C160.696 12.9374 160.44 13.8346 160.44 14.9877C160.44 16.1915 160.696 17.113 161.232 17.728C161.769 18.343 162.485 18.6505 163.378 18.6505C164.042 18.6505 164.605 18.4968 165.04 18.163C165.474 17.8312 165.908 17.3943 166.087 16.9087L168.617 18.0871C168.617 18.0871 168.514 18.3177 168.463 18.4199C168.173 18.959 167.793 19.4441 167.339 19.8543C166.837 20.2988 166.256 20.6462 165.627 20.879C164.963 21.1359 164.171 21.2634 163.302 21.2634C162.152 21.2634 161.13 21.0327 160.21 20.5462C159.295 20.0728 158.546 19.331 158.064 18.4199C157.527 17.4974 157.272 16.3705 157.272 15.0384C157.272 13.7062 157.527 12.554 158.064 11.6305C158.6 10.709 159.316 9.99086 160.235 9.5043C161.156 9.01773 162.177 8.78711 163.302 8.78711C164.324 8.78711 165.244 8.96648 166.061 9.32523C166.879 9.6843 167.543 10.1962 168.028 10.888C168.284 11.2209 168.642 12.0149 168.642 12.0149L166.061 13.2187ZM170.456 11.324V8.94086H179.527V11.323H176.283V21.0843H173.727V11.3249L170.456 11.324ZM193.837 15.013C193.837 16.3443 193.556 17.4721 192.993 18.4199C192.448 19.3269 191.66 20.0633 190.719 20.5462C189.774 21.0337 188.701 21.2634 187.499 21.2634C186.298 21.2634 185.225 21.0327 184.28 20.5462C183.334 20.0703 182.545 19.3322 182.006 18.4199C181.444 17.4974 181.163 16.3702 181.163 15.0384C181.163 13.7062 181.444 12.554 182.006 11.6305C182.567 10.709 183.309 9.99086 184.28 9.5043C185.225 9.01773 186.324 8.78711 187.499 8.78711C188.701 8.78711 189.774 9.01773 190.719 9.5043C191.665 9.98036 192.454 10.7184 192.993 11.6305C193.555 12.528 193.837 13.6555 193.837 15.013ZM190.974 15.013C190.974 13.8346 190.668 12.9121 190.055 12.2971C189.441 11.6821 188.572 11.3493 187.499 11.3493C186.401 11.3493 185.557 11.6568 184.944 12.2962C184.331 12.9121 184.024 13.8337 184.024 15.013C184.024 16.1915 184.331 17.113 184.944 17.728C185.557 18.343 186.426 18.6759 187.499 18.6759C188.598 18.6759 189.441 18.3684 190.055 17.729C190.668 17.0877 190.974 16.1924 190.974 15.013ZM196.519 21.0843V8.91555H201.349C202.217 8.91555 202.984 9.0693 203.622 9.40211C204.244 9.71655 204.759 10.2065 205.105 10.8112C205.462 11.4262 205.616 12.1434 205.616 12.9627C205.616 13.8084 205.437 14.5259 205.079 15.1152C204.726 15.7037 204.199 16.1686 203.572 16.4465L205.999 21.0843H202.907L200.786 16.9087H199.33V21.059H196.519V21.0843ZM199.33 14.6024H200.709C201.349 14.6024 201.834 14.4743 202.166 14.218C202.499 13.9621 202.651 13.5524 202.651 12.989C202.651 11.8612 202.013 11.2977 200.709 11.2977H199.33V14.6024Z" fill="#579AD7"/>
</g>
<defs>
<clipPath id="clip0_3164_16059">
<rect width="206" height="30" fill="white"/>
</clipPath>
</defs>
</svg>
