<svg width="130" height="30" viewBox="0 0 130 30" fill="none" xmlns="http://www.w3.org/2000/svg">
<g clip-path="url(#clip0_3128_26115)">
<mask id="mask0_3128_26115" style="mask-type:luminance" maskUnits="userSpaceOnUse" x="0" y="0" width="130" height="30">
<path d="M0 0H130V30H0V0Z" fill="white"/>
</mask>
<g mask="url(#mask0_3128_26115)">
<path d="M20.1054 18.0811L12.6769 10.6216C11.9502 9.89189 11.9502 8.75675 12.6769 8.02702L20.1054 0.567561C20.8321 -0.162169 21.9626 -0.162169 22.6893 0.567561L30.1179 8.02702C30.8446 8.75675 30.8446 9.89189 30.1179 10.6216L22.6893 18.0811C21.9626 18.8108 20.8321 18.8108 20.1054 18.0811Z" fill="url(#paint0_linear_3128_26115)"/>
<path d="M7.99362 29.4324L0.565051 22.054C-0.161658 21.3243 -0.161658 20.1081 0.565051 19.3783L7.99362 11.9189C8.72033 11.1891 9.85077 11.1891 10.5775 11.9189L18.006 19.3783C18.7328 20.1081 18.7328 21.3243 18.006 22.054L10.5775 29.4324C9.85077 30.1621 8.72033 30.1621 7.99362 29.4324Z" fill="url(#paint1_linear_3128_26115)"/>
<path d="M32.2173 29.4324L24.7887 22.054C24.062 21.3243 24.062 20.1081 24.7887 19.3783L32.2173 11.9189C32.944 11.1891 34.0744 11.1891 34.8011 11.9189L42.2297 19.3783C42.9564 20.1081 42.9564 21.3243 42.2297 22.054L34.8011 29.4324C34.0744 30.1621 32.944 30.1621 32.2173 29.4324Z" fill="url(#paint2_linear_3128_26115)"/>
<path d="M60.8817 21.7297L65.6457 10.054C65.7264 9.97297 65.6457 9.89189 65.565 9.89189H61.3662C61.2855 9.89189 61.2855 9.89189 61.2855 9.81081L59.7513 7.45945C59.7513 7.37837 59.7513 7.29729 59.832 7.29729H68.5525C68.6333 7.29729 68.6333 7.37837 68.6333 7.37837V9.24324L63.7886 21.8919C63.7886 21.973 63.7886 21.973 63.7078 21.973H61.0432C60.8817 21.8108 60.8817 21.8108 60.8817 21.7297ZM67.8258 16.8649L68.6333 14.5946C68.6333 14.5135 68.714 14.5135 68.714 14.5135H72.5898C72.6705 14.5135 72.6705 14.5946 72.6705 14.5946V16.8649C72.6705 16.9459 72.6705 16.9459 72.5898 16.9459H67.9066C67.8258 16.9459 67.8258 16.9459 67.8258 16.8649ZM95.1178 21.8919V19.7027H94.9563C93.9066 19.7838 92.7761 19.5405 91.8072 19.1351C90.919 18.6486 90.1923 17.9189 89.6271 17.027C89.1426 16.2162 88.8196 15.2432 88.9004 14.2703C88.9004 12.3243 89.9501 10.6216 91.6457 9.72972C92.6146 9.24324 93.6643 8.99999 94.714 9.08108H95.1985V7.29729H97.9438V9.08108H98.4283C99.478 9.08108 100.528 9.32432 101.497 9.72972C103.192 10.6216 104.242 12.4054 104.161 14.2703C104.161 15.2432 103.919 16.2162 103.435 17.027C102.95 17.9189 102.143 18.6486 101.254 19.1351C100.285 19.5405 99.155 19.7838 98.1053 19.7027H97.8631V21.8919H95.1178ZM95.1178 11.3513H94.714C93.9066 11.3513 93.0991 11.5946 92.4532 12.1622C91.8879 12.7297 91.6457 13.4595 91.6457 14.2703C91.565 15.0811 91.8879 15.8919 92.5339 16.4595C93.1799 17.027 94.0681 17.3513 95.037 17.2703H95.1985L95.1178 11.3513ZM97.7823 17.2703H97.9438C98.832 17.2703 99.7202 17.027 100.447 16.4595C101.093 15.8919 101.416 15.0811 101.335 14.2703C101.335 13.4595 101.093 12.7297 100.528 12.1622C99.8817 11.5946 99.155 11.3513 98.2668 11.3513H97.7823V17.2703ZM87.2047 14.5135C87.2047 16.8649 86.7202 18.8108 85.5898 20.027C84.2979 21.3243 82.5215 22.054 80.7451 21.8919C78.9687 21.973 77.1923 21.3243 75.9811 20.027C74.9314 18.8108 74.2855 16.8649 74.2855 14.5135C74.2855 12.1622 74.8507 10.3784 75.9811 9.16216C77.1923 7.86486 78.9687 7.21621 80.7451 7.29729C82.5215 7.21621 84.2171 7.86486 85.5091 9.16216C86.7202 10.7027 87.2855 12.5676 87.2047 14.5135ZM77.273 14.5135C77.1923 15.8108 77.5153 17.1081 78.1612 18.3243C78.7264 19.1351 79.6954 19.6216 80.7451 19.6216C83.0059 19.6216 84.2171 17.7568 84.2171 14.5946C84.2171 11.4324 83.0867 9.56756 80.8258 9.56756C79.7761 9.56756 78.8072 10.054 78.242 10.9459C77.5153 12 77.1923 13.2973 77.273 14.5135ZM59.7513 11.7568C59.832 13.1351 59.2668 14.5135 58.2171 15.4054C56.9252 16.2973 55.391 16.7027 53.8569 16.6216H52.4842V21.8919H49.2544V7.29729H54.0991C55.5525 7.21621 57.0867 7.62162 58.2979 8.43243C59.2668 9.24324 59.832 10.4595 59.7513 11.7568ZM52.4842 14.1081H53.5339C54.3414 14.1892 55.0681 13.9459 55.7948 13.5405C56.2792 13.1351 56.6022 12.5676 56.5215 11.9189C56.6022 11.3513 56.36 10.7027 55.9563 10.2973C55.391 9.89189 54.7451 9.72972 54.0184 9.81081H52.4842V14.1081ZM105.857 7.29729H108.441V14.2703L108.36 16.1351L108.198 18.2432H108.279L114.497 7.29729H117.969V21.8919H115.466V14.8378C115.466 13.8649 115.546 12.5676 115.627 10.7027H115.466L109.248 21.8919H105.776L105.857 7.29729ZM125.962 9.81081C124.913 9.72972 124.025 10.2162 123.459 11.1081C122.813 12.1622 122.49 13.3784 122.49 14.5946C122.49 17.6757 123.621 19.6216 125.962 19.6216C127.174 19.5405 128.385 19.2973 129.515 18.8919V21.1622C128.304 21.6486 127.012 21.8919 125.72 21.8919C124.025 21.973 122.329 21.3243 121.199 20.1081C120.068 18.8919 119.584 16.9459 119.584 14.6757C119.584 13.3784 119.826 12.0811 120.391 10.8649C120.876 9.81081 121.683 8.91891 122.652 8.35135C123.702 7.78378 124.832 7.45945 126.043 7.45945C127.416 7.45945 128.789 7.78378 130.08 8.43243L129.192 10.8649C128.708 10.6216 128.143 10.3784 127.658 10.2162C127.012 9.89189 126.447 9.81081 125.962 9.81081Z" fill="#2A2B30"/>
</g>
</g>
<defs>
<linearGradient id="paint0_linear_3128_26115" x1="21.3974" y1="18.6503" x2="21.3974" y2="-0.000817326" gradientUnits="userSpaceOnUse">
<stop stop-color="#FF8745"/>
<stop offset="1" stop-color="#D13700"/>
</linearGradient>
<linearGradient id="paint1_linear_3128_26115" x1="9.28555" y1="30.1054" x2="9.28555" y2="11.4162" gradientUnits="userSpaceOnUse">
<stop stop-color="#4EB7E5"/>
<stop offset="1" stop-color="#328BCB"/>
</linearGradient>
<linearGradient id="paint2_linear_3128_26115" x1="33.5092" y1="30.0243" x2="33.5092" y2="11.3432" gradientUnits="userSpaceOnUse">
<stop stop-color="#9BDA32"/>
<stop offset="1" stop-color="#6EA70E"/>
</linearGradient>
<clipPath id="clip0_3128_26115">
<rect width="130" height="30" fill="white"/>
</clipPath>
</defs>
</svg>
