<svg width="95" height="30" viewBox="0 0 95 30" fill="none" xmlns="http://www.w3.org/2000/svg">
<g clip-path="url(#clip0_3164_16135)">
<path d="M7.10558 13.3638L1.48633 13.3825V24.5294L3.38158 24.5153L3.37208 20.1419H6.82058C7.89408 20.1419 8.76333 19.8372 9.39983 19.2372C10.0411 18.6278 10.3641 17.7935 10.3641 16.7528C10.3641 15.7169 10.0743 14.8919 9.50433 14.2872C8.92958 13.6731 8.12208 13.3638 7.10558 13.3638ZM8.46408 16.781C8.46408 17.9575 7.88458 18.4825 6.58783 18.4825H3.38158V15.0185H6.78258C7.94633 15.0185 8.46408 15.5622 8.46408 16.781ZM14.7958 16.6919C13.4943 16.6919 12.4683 17.095 11.7463 17.8872C11.0956 18.595 10.7631 19.5513 10.7631 20.7278C10.7631 21.895 11.1051 22.8653 11.7796 23.606C12.1548 24.0044 12.5966 24.2997 13.0953 24.4872C13.5846 24.6653 14.1546 24.7591 14.7958 24.7591C16.1591 24.7591 17.2183 24.3653 17.9498 23.5872C18.6053 22.8935 18.9378 21.9325 18.9378 20.7278C18.9378 19.5185 18.6006 18.5481 17.9403 17.8591C17.2231 17.0856 16.1638 16.6919 14.7958 16.6919ZM12.5158 20.7278C12.5158 20.3247 12.5681 19.9591 12.6773 19.6497C12.7771 19.3497 12.9243 19.0966 13.1143 18.895C13.5181 18.4638 14.0691 18.2575 14.7958 18.2575C16.4251 18.2575 17.1851 19.0403 17.1851 20.7278C17.1851 21.1403 17.1376 21.506 17.0426 21.8106C16.9571 22.1013 16.8241 22.3356 16.6293 22.5419C16.2398 22.9872 15.6413 23.2075 14.7958 23.2075C14.0453 23.2075 13.4943 22.9966 13.1096 22.5606C12.7106 22.1153 12.5158 21.5153 12.5158 20.7278ZM26.1578 20.3622C25.7731 20.1653 25.1128 20.0153 24.1486 19.9122C22.9278 19.7622 22.4671 19.6591 22.3008 19.6028C21.9066 19.4528 21.8496 19.2653 21.8496 19.1013C21.8496 18.8013 21.9541 18.6091 22.1821 18.4685C22.3816 18.3513 22.7853 18.2106 23.5881 18.2106C25.1176 18.2106 25.3123 18.8341 25.3123 19.3825V19.6497H27.0793V19.3825C27.0793 18.1638 26.4808 16.7106 23.6166 16.7106C23.0893 16.7106 22.6096 16.7528 22.1963 16.8372C21.7688 16.9216 21.4078 17.0481 21.0848 17.2263C20.4436 17.6481 20.1206 18.281 20.1206 19.12C20.1206 19.9872 20.5053 20.6294 21.2368 20.9669C21.4316 21.0606 21.8733 21.206 23.3933 21.4263C24.7946 21.6278 25.0463 21.6888 25.0891 21.7028C25.4216 21.8294 25.5641 22.0263 25.5641 22.3638C25.5641 22.6028 25.5641 23.2544 23.7686 23.2544C22.7331 23.2544 22.2771 23.0528 22.0633 22.8747C21.8686 22.7247 21.7641 22.495 21.7308 22.1903H19.9163C19.9638 22.5794 20.0493 22.9216 20.1728 23.2028C20.3296 23.5356 20.5386 23.8122 20.7998 24.0138C21.1228 24.281 21.5456 24.4685 22.0491 24.581C22.5193 24.6888 23.0988 24.7403 23.7686 24.7403C26.7326 24.7403 27.3548 23.381 27.3548 22.2419C27.3548 21.37 26.9368 20.7185 26.1578 20.3622ZM66.6516 20.3622C66.2621 20.1653 65.6018 20.0153 64.6376 19.9122C63.4216 19.7622 62.9608 19.6591 62.7946 19.6028C62.3956 19.4528 62.3433 19.2653 62.3433 19.1013C62.3433 18.8013 62.4431 18.6091 62.6758 18.4685C62.8706 18.3513 63.2791 18.2106 64.0818 18.2106C65.6066 18.2106 65.8013 18.8341 65.8013 19.3825V19.6497H67.5731V19.3825C67.5731 18.1638 66.9698 16.7106 64.1103 16.7106C63.5783 16.7106 63.0986 16.7528 62.6853 16.8372C62.2626 16.9216 61.8968 17.0481 61.5786 17.2263C60.9373 17.6481 60.6096 18.281 60.6096 19.12C60.6096 19.9872 60.9943 20.6294 61.7258 20.9669C61.9253 21.0606 62.3623 21.206 63.8871 21.4263C65.2836 21.6278 65.5401 21.6888 65.5781 21.7028C65.9153 21.8294 66.0531 22.0263 66.0531 22.3638C66.0531 22.6028 66.0531 23.2544 64.2623 23.2544C63.2221 23.2544 62.7661 23.0528 62.5523 22.8747C62.3576 22.7247 62.2531 22.495 62.2198 22.1903H60.4053C60.4528 22.5794 60.5383 22.9216 60.6666 23.2028C60.8186 23.5356 61.0276 23.8122 61.2888 24.0138C61.6166 24.281 62.0346 24.4685 62.5381 24.581C63.0083 24.6888 63.5878 24.7403 64.2623 24.7403C67.2216 24.7403 67.8438 23.381 67.8438 22.2419C67.8438 21.37 67.4258 20.7185 66.6516 20.3622ZM42.8778 17.4372C42.7876 17.3575 42.7211 17.306 42.6688 17.2638C42.0846 16.8841 41.3341 16.6919 40.4363 16.6919C39.1301 16.6919 38.1041 17.0669 37.3963 17.7888C36.7218 18.4591 36.3751 19.42 36.3751 20.6435C36.3751 21.2481 36.4606 21.7966 36.6268 22.27C36.7978 22.7622 37.0496 23.1841 37.3916 23.5403C38.0993 24.2435 39.1016 24.595 40.3651 24.595C41.3958 24.595 42.2366 24.3653 42.8778 23.9013V24.0653C42.8683 25.4669 42.7116 25.706 42.3648 26.0575C42.0323 26.3997 41.4386 26.5778 40.6026 26.5778C39.6051 26.5778 39.1443 26.381 38.9306 26.2169C38.7311 26.0622 38.5791 25.7388 38.4936 25.2841L38.4271 24.9372L36.6886 24.956L36.6981 25.4294C36.7218 25.6169 36.7551 25.7903 36.8026 25.9591C36.9641 26.5872 37.2681 27.07 37.6956 27.4028C38.3083 27.8716 39.2678 28.1013 40.6311 28.1013C43.9561 28.1013 44.6543 26.1513 44.6543 24.5106V16.9122H42.8826L42.8778 17.4372ZM41.5811 22.8606C41.3103 22.9685 40.9921 23.02 40.6311 23.02C38.9401 23.02 38.1848 22.2888 38.1848 20.6435C38.1848 19.8888 38.3843 19.3169 38.7928 18.9091C39.2061 18.4966 39.7856 18.2997 40.5646 18.2997C41.3436 18.2997 41.9088 18.4966 42.2936 18.9044C42.6878 19.3263 42.8778 19.8841 42.8778 20.606C42.8778 21.3935 42.6783 21.9981 42.2936 22.3966C42.0846 22.6028 41.8423 22.7575 41.5811 22.8606ZM47.8368 17.1325C47.8083 17.156 47.7798 17.1747 47.7513 17.1981V16.9169H46.0128L46.0223 24.5106H47.7513V20.7888C47.7513 18.6044 48.7678 18.3513 49.5326 18.3513C49.7368 18.3513 50.7011 18.356 50.7011 18.356V16.6919H49.6798C48.8818 16.6919 48.2881 16.8325 47.8368 17.1325ZM57.3748 22.1903C57.0376 22.8841 56.4248 23.2169 55.4653 23.2169C54.6531 23.2169 54.0546 22.9825 53.6318 22.5044C53.3468 22.181 53.1758 21.7872 53.1141 21.3091H59.4648V20.8919C59.4648 19.6497 59.1418 18.6513 58.5101 17.92C58.1538 17.5028 57.7026 17.1888 57.1753 16.9872C56.6671 16.795 56.0686 16.6919 55.3988 16.6919C54.1306 16.6919 53.1236 17.0528 52.4063 17.7653C51.6938 18.4778 51.3281 19.4481 51.3281 20.6435C51.3281 21.8435 51.6748 22.8138 52.3588 23.531C53.0998 24.3325 54.1496 24.7403 55.4748 24.7403C55.9973 24.7403 56.4913 24.6653 56.9426 24.52C57.3986 24.3747 57.8023 24.1638 58.1633 23.8825C58.7096 23.4185 59.0801 22.8513 59.2653 22.1903H57.3748ZM53.7221 18.7919C53.9358 18.5856 54.1828 18.4263 54.4488 18.3278C54.7243 18.2247 55.0473 18.1731 55.3988 18.1731C56.0828 18.1731 56.6196 18.3841 57.0471 18.82C57.3653 19.1435 57.5601 19.4903 57.6408 19.8653H53.1806C53.2993 19.4106 53.4846 19.0497 53.7221 18.7919Z" fill="#1090CF"/>
<path d="M35.3875 24.2671V23.8546H33.6727V24.2765C33.6727 24.2765 33.6775 24.5061 33.6727 24.5811C33.668 24.6936 33.611 25.1296 33.5825 25.2327C33.535 25.4155 33.4732 25.6311 33.44 25.7483C33.4115 25.8186 33.3782 25.889 33.345 25.9546C33.041 26.5452 32.3617 26.8265 31.7015 26.7093C30.7372 26.5452 30.0295 25.6452 30.1625 24.6702C30.229 24.1827 30.3477 23.6999 30.5757 23.264C31.0032 22.439 31.5257 21.6655 32.0577 20.9015C32.1575 20.7561 32.5327 20.2124 32.9697 19.3686C33.421 19.5702 33.82 19.6827 34.0812 19.7436C34.5657 19.8561 34.8602 19.8843 35.0882 19.8327C35.1167 19.8233 35.3305 19.7905 35.3827 19.7061C35.4017 19.678 35.3542 19.6171 35.2925 19.603C34.5752 19.4155 33.877 19.1811 33.326 18.6421C33.7915 17.6343 34.2712 16.3405 34.542 14.8686C34.7462 13.7858 34.9837 12.7077 35.036 11.5921C35.0882 10.664 35.055 9.6327 34.922 8.76083C34.6512 6.92333 33.839 5.6202 32.5802 4.28426C30.9367 2.54051 28.6425 1.73895 26.2722 1.51395C23.7642 1.27958 22.306 1.96864 21.1945 2.87333C19.874 3.95145 19.608 4.95926 19.513 6.39833C19.4417 7.55145 19.6602 8.21239 20.2492 9.39833C20.6767 10.2608 22.458 11.7561 22.9567 12.5765C23.4365 13.3686 23.3082 13.4671 23.6502 14.3296C23.8212 14.7608 24.6952 15.478 25.4932 15.3702C26.2865 15.2624 26.9182 14.6999 27.3552 13.603C27.512 13.1999 27.5215 12.8155 27.569 12.4733C27.6877 11.5593 27.6592 10.8046 27.7495 9.6702C27.7637 9.54364 27.7732 9.39364 27.7162 9.32333C27.5595 9.13583 27.3552 9.21551 27.2602 9.39364C27.1985 9.50614 27.1842 9.64208 27.1462 9.76864C26.7852 10.978 26.0395 12.7265 26.0062 12.8296C25.897 13.1155 25.6215 13.6827 25.4315 13.664C25.3317 13.6546 25.2557 13.6499 25.1987 13.4671C25.1417 13.2702 24.8852 12.3374 24.0255 11.2874C22.5055 9.42645 21.6695 8.53114 21.3892 7.30301C21.0852 5.95301 21.7027 4.51864 22.876 3.87176C23.4887 3.53426 24.7665 3.02801 26.1392 3.16864C27.8302 3.34676 29.7017 3.93739 30.8655 5.20301C32.2477 6.7077 33.1407 7.56083 33.1882 10.2983C33.2167 11.9061 32.8557 13.7811 32.4615 15.3327C32.4092 15.4874 32.357 15.6468 32.3047 15.8061C32.1575 16.2374 32.0245 16.6077 31.8962 16.9452C31.8582 16.889 31.7917 16.7952 31.7727 16.7671C31.5637 16.4765 31.3785 16.2046 31.1647 15.9561C30.9082 15.6561 30.647 15.3327 30.3287 15.1077C29.925 14.8218 29.4927 14.7515 29.1412 15.1358C28.9655 15.328 28.8467 15.6046 28.975 15.9186C29.3502 16.8468 30.0817 17.5311 30.8892 18.1733C30.9272 18.2061 31.0745 18.3046 31.2455 18.4124C30.9605 18.9655 30.6375 19.4999 30.2147 20.2077C29.6067 21.2155 28.9132 22.3921 28.69 22.9405C28.2672 23.9858 28.2245 25.0686 28.4857 26.1608C28.5997 26.639 28.8372 27.0421 29.1792 27.3983C30.2527 28.5327 32.0957 28.8046 33.4875 28.2608C33.8105 28.1343 34.1287 27.8999 34.3472 27.6327C34.922 26.9343 35.2545 26.1468 35.359 25.2936C35.3685 25.1999 35.3732 24.9515 35.3827 24.7358C35.3827 24.6983 35.3875 24.6608 35.3875 24.6374C35.3922 24.5436 35.3875 24.2718 35.3875 24.2671ZM32.566 12.4218C32.566 12.9046 32.1717 13.2983 31.6825 13.2983C31.1932 13.2983 30.7942 12.9046 30.7942 12.4218C30.7942 11.939 31.1932 11.5499 31.6825 11.5499C32.1717 11.5499 32.566 11.939 32.566 12.4218ZM75.506 13.364L69.8867 13.3827V24.5296L71.782 24.5155L71.7725 20.1421H75.221C76.2945 20.1421 77.1637 19.8374 77.8002 19.2374C78.4415 18.628 78.7645 17.7936 78.7645 16.753C78.7645 15.7171 78.4747 14.8921 77.9047 14.2874C77.33 13.6733 76.5225 13.364 75.506 13.364ZM76.8645 16.7811C76.8645 17.9577 76.285 18.4827 74.9882 18.4827H71.782V15.0186H75.183C76.3467 15.0186 76.8645 15.5624 76.8645 16.7811ZM89.3712 16.6921C88.0697 16.6921 87.0437 17.0952 86.3217 17.8874C85.671 18.5952 85.3385 19.5515 85.3385 20.728C85.3385 21.8952 85.6805 22.8655 86.355 23.6061C86.7302 24.0046 87.172 24.2999 87.6707 24.4874C88.16 24.6655 88.73 24.7593 89.3712 24.7593C90.7345 24.7593 91.7937 24.3655 92.5252 23.5874C93.1807 22.8936 93.5132 21.9327 93.5132 20.728C93.5132 19.5186 93.176 18.5483 92.5157 17.8593C91.7985 17.0858 90.7392 16.6921 89.3712 16.6921ZM87.0912 20.728C87.0912 20.3249 87.1435 19.9593 87.2527 19.6499C87.3525 19.3499 87.4997 19.0968 87.6897 18.8952C88.0935 18.464 88.6445 18.2577 89.3712 18.2577C91.0005 18.2577 91.7605 19.0405 91.7605 20.728C91.7605 21.1405 91.713 21.5061 91.618 21.8108C91.5325 22.1015 91.3995 22.3358 91.2047 22.5421C90.8152 22.9874 90.2167 23.2077 89.3712 23.2077C88.6207 23.2077 88.0697 22.9968 87.685 22.5608C87.286 22.1155 87.0912 21.5155 87.0912 20.728ZM81.8852 17.1327C81.8567 17.1561 81.8282 17.1749 81.7997 17.1983V16.9171H80.0612L80.0707 24.5108H81.7997V20.789C81.7997 18.6046 82.8162 18.3515 83.581 18.3515C83.7852 18.3515 84.7495 18.3561 84.7495 18.3561V16.6921H83.7282C82.9302 16.6921 82.3365 16.8327 81.8852 17.1327Z" fill="#003D52"/>
</g>
<defs>
<clipPath id="clip0_3164_16135">
<rect width="95" height="30" fill="white"/>
</clipPath>
</defs>
</svg>
