<svg width="161" height="30" viewBox="0 0 161 30" fill="none" xmlns="http://www.w3.org/2000/svg">
<g clip-path="url(#clip0_3164_16083)">
<path d="M45.1912 8.62084H42.7754L48.6954 21.5619H49.4579L55.3772 8.62084H53.0163L49.0933 17.3456L45.1912 8.62084ZM87.8523 15.0007C87.8473 15.9018 88.0217 16.7948 88.3655 17.6277C88.6957 18.4138 89.1806 19.1254 89.7913 19.7199C90.4118 20.3191 91.1451 20.7888 91.9486 21.1016C92.8127 21.4358 93.7315 21.6053 94.6578 21.6014C95.4062 21.6031 96.1506 21.494 96.867 21.2775C97.5381 21.0717 98.1734 20.7632 98.7503 20.3631C99.88 19.5763 100.722 18.442 101.15 17.1325C101.374 16.445 101.487 15.7262 101.486 15.003C101.492 14.097 101.321 13.1986 100.98 12.359C100.653 11.5723 100.17 10.8604 99.5592 10.2668C98.9362 9.67058 98.2011 9.20435 97.3965 8.89516C96.5222 8.56343 95.5943 8.39634 94.6594 8.40231C93.9207 8.39966 93.1861 8.51207 92.4819 8.73552C91.8138 8.94724 91.1819 9.25977 90.6079 9.66232C90.0495 10.0571 89.5559 10.5366 89.145 11.0835C88.7334 11.6332 88.4125 12.2454 88.1944 12.8968C87.966 13.5743 87.8507 14.2849 87.853 14.9999M90.2859 15.0371C90.2835 14.4131 90.3968 13.794 90.6203 13.2114C90.8297 12.6714 91.1415 12.177 91.5384 11.7554C91.9313 11.3405 92.4057 11.0115 92.9317 10.789C93.4893 10.5569 94.0872 10.4374 94.6911 10.4374C95.295 10.4374 95.893 10.5569 96.4506 10.789C96.975 11.0099 97.4467 11.3395 97.8346 11.7561C98.2313 12.1767 98.5417 12.6711 98.748 13.2114C98.9678 13.7946 99.0793 14.4131 99.077 15.0363C99.0791 15.6585 98.9625 16.2752 98.7333 16.8535C98.5205 17.3939 98.205 17.8878 97.8044 18.308C97.3989 18.7276 96.913 19.0609 96.3758 19.288C95.8386 19.5151 95.2611 19.6314 94.678 19.6299C94.0948 19.6284 93.518 19.5091 92.982 19.2792C92.446 19.0492 91.9618 18.7134 91.5585 18.2918C91.1542 17.8715 90.8356 17.3764 90.6203 16.8341C90.3959 16.262 90.2814 15.6526 90.2828 15.0379M80.4522 21.3992H82.7016V8.62084H80.4507L80.4522 21.3992ZM75.4285 17.9461C75.4345 17.5519 75.3764 17.1594 75.2567 16.7838C75.1303 16.4108 74.9284 16.0678 74.6638 15.7764C74.3355 15.4214 73.9555 15.1181 73.5367 14.8767C72.9681 14.5462 72.3725 14.2647 71.7564 14.0352C71.2609 13.8622 70.7787 13.6535 70.3135 13.4106C70.0083 13.2571 69.7369 13.044 69.5154 12.7837C69.3523 12.5751 69.2652 12.317 69.2685 12.0522C69.2647 11.7646 69.3371 11.4812 69.4783 11.2307C69.6277 10.9717 69.8538 10.7656 70.1254 10.641C71.2509 10.1063 73.4748 10.5387 74.5863 11.2664L75.2938 9.35546C74.4142 8.86613 73.4459 8.55728 72.4457 8.44698C71.4454 8.33668 70.4332 8.42713 69.4682 8.71305C68.9708 8.89311 68.5147 9.17138 68.1268 9.53136C67.7696 9.86492 67.4847 10.2685 67.29 10.717C67.0995 11.1572 67.0017 11.632 67.0028 12.1118C66.9944 12.6017 67.1021 13.0866 67.3171 13.5268C67.5687 14.0046 67.93 14.4158 68.3714 14.7264C68.9791 15.1515 69.6436 15.4888 70.3452 15.7283C70.9165 15.9402 71.3856 16.1365 71.7525 16.3173C72.0545 16.4557 72.3386 16.6303 72.5985 16.8372C72.7747 16.9773 72.9163 17.156 73.0127 17.3595C73.0894 17.5459 73.1271 17.7461 73.1234 17.9477C73.1253 18.2215 73.0443 18.4895 72.8911 18.7164C72.7097 18.9725 72.458 19.1706 72.1666 19.2867C71.7735 19.4458 71.352 19.5222 70.9281 19.5115C69.5448 19.475 68.1966 19.068 67.0237 18.3328L66.2373 20.3685C67.6435 21.1721 69.2316 21.6021 70.8507 21.6177C71.6908 21.6393 72.5264 21.4874 73.3053 21.1713C73.9405 20.9146 74.486 20.476 74.8735 19.9106C75.2494 19.3259 75.4422 18.6421 75.427 17.9469M59.3829 21.3992H61.6362V8.62084H59.3829V21.3992ZM106.31 21.4015H114.607V19.3286H108.56V8.62006H106.31V21.4015ZM158.458 8.62316L155.207 14.28L151.956 8.62316H149.362L154.046 16.3297V21.4015H156.314V16.349L161 8.62316H158.458ZM144.438 14.4079V18.9799C143.571 19.3244 142.646 19.4971 141.713 19.4882C141.084 19.4945 140.46 19.3809 139.874 19.1535C139.33 18.945 138.833 18.6287 138.413 18.2236C138 17.8242 137.672 17.3453 137.448 16.8155C137.215 16.2518 137.097 15.6472 137.101 15.0371C137.097 14.4185 137.21 13.8047 137.435 13.2285C137.65 12.6901 137.976 12.2034 138.392 11.8003C138.828 11.3857 139.345 11.0664 139.911 10.8627C140.559 10.6322 141.243 10.5189 141.931 10.5279C142.346 10.529 142.759 10.5719 143.165 10.6558C143.528 10.7288 143.885 10.8253 144.235 10.9448C144.552 11.0523 144.804 11.1478 144.988 11.2315C145.265 11.3571 145.268 11.3571 145.271 11.3625L146.054 9.4345C146.054 9.4345 145.988 9.39575 145.86 9.32601C145.732 9.25627 145.538 9.17103 145.291 9.07184C144.989 8.95093 144.68 8.84744 144.367 8.76187C143.954 8.65175 143.536 8.5661 143.114 8.50538C142.595 8.43448 142.072 8.39875 141.549 8.39844C140.814 8.39831 140.083 8.51094 139.382 8.73243C138.71 8.94609 138.074 9.25955 137.495 9.66232C136.927 10.0575 136.424 10.5367 136.001 11.0835C135.58 11.6314 135.249 12.2437 135.023 12.8968C134.786 13.5724 134.665 14.2837 134.668 14.9999C134.66 15.9042 134.836 16.8007 135.186 17.6346C135.52 18.4269 136.017 19.1398 136.645 19.7269C137.299 20.3371 138.069 20.8091 138.91 21.1148C139.854 21.4585 140.853 21.6288 141.858 21.6177C142.836 21.621 143.806 21.4478 144.722 21.1062C145.393 20.8788 146.03 20.561 146.616 20.1616V14.4079H144.438ZM117.437 14.9999C117.433 15.9012 117.607 16.7943 117.95 17.6277C118.28 18.4137 118.765 19.1253 119.375 19.7199C119.996 20.3193 120.73 20.789 121.534 21.1016C122.398 21.4355 123.317 21.6048 124.243 21.6006C124.991 21.6023 125.736 21.4931 126.452 21.2767C127.123 21.0708 127.758 20.7624 128.334 20.3623C128.892 19.972 129.384 19.4954 129.793 18.9504C130.201 18.3987 130.519 17.7849 130.734 17.1325C130.958 16.4447 131.071 15.7257 131.07 15.0023C131.075 14.0971 130.902 13.1997 130.561 12.3613C130.235 11.5747 129.752 10.8628 129.142 10.2691C128.519 9.67227 127.783 9.20549 126.978 8.89593C126.104 8.56412 125.177 8.39678 124.243 8.40231C123.503 8.40083 122.767 8.51348 122.062 8.7363C121.394 8.94798 120.762 9.26164 120.19 9.6662C119.63 10.0608 119.136 10.5403 118.724 11.0874C118.313 11.6372 117.992 12.2494 117.775 12.9007C117.547 13.5785 117.432 14.2888 117.432 15.0038M119.864 15.041C119.862 14.4173 119.975 13.7985 120.198 13.2161C120.407 12.6758 120.719 12.1811 121.116 11.7592C121.51 11.3453 121.984 11.0164 122.509 10.7929C123.064 10.5573 123.66 10.4379 124.263 10.4419C124.87 10.4379 125.472 10.5574 126.031 10.7929C126.557 11.0131 127.03 11.3425 127.419 11.7592C127.815 12.1804 128.125 12.6754 128.33 13.2161C128.55 13.7993 128.661 14.4178 128.658 15.041C128.661 15.6612 128.546 16.2763 128.32 16.8535C128.105 17.392 127.788 17.8838 127.387 18.3018C126.991 18.7125 126.518 19.0395 125.994 19.2635C125.448 19.5006 124.859 19.6217 124.264 19.6192C123.67 19.6238 123.081 19.5036 122.536 19.2666C122.01 19.0383 121.537 18.7062 121.142 18.2902C120.742 17.87 120.426 17.3761 120.214 16.8357C119.988 16.2637 119.873 15.6543 119.874 15.0394" fill="black"/>
<path d="M2.14648 5.92344L16.0332 13.9492L29.9199 5.92344C28.4931 3.45763 26.4396 1.41391 23.9681 0L16.0332 4.58671L8.09827 0C5.62682 1.41391 3.57333 3.45763 2.14648 5.92344Z" fill="#E3032D"/>
<path d="M16.0332 16.6243L1.13324 8.0127C0.382232 9.90154 -0.00237057 11.9163 1.0993e-05 13.9493C0.000421511 18.2061 1.68976 22.2885 4.69648 25.2985C7.7032 28.3085 11.7811 29.9997 16.0332 30.0001V16.6243Z" fill="#FFD400"/>
<path d="M30.9332 8.0127L16.0332 16.6243V29.9993C20.2853 29.9989 24.3631 28.3078 27.3699 25.298C30.3768 22.2882 32.0664 18.206 32.0672 13.9493C32.0703 11.9162 31.6854 9.90122 30.9332 8.0127Z" fill="#86BC34"/>
</g>
<defs>
<clipPath id="clip0_3164_16083">
<rect width="161" height="30" fill="white"/>
</clipPath>
</defs>
</svg>
