<svg width="37" height="36" viewBox="0 0 37 36" fill="none" xmlns="http://www.w3.org/2000/svg">
<rect x="1.62891" y="0.997803" width="34" height="34" rx="9" stroke="#5ED76A" stroke-width="2"/>
<path fill-rule="evenodd" clip-rule="evenodd" d="M23.5719 12.674C24.3901 12.8036 25.1585 12.2453 25.2881 11.4271C25.4177 10.6089 24.8594 9.8405 24.0412 9.71091C23.223 9.58131 22.4546 10.1396 22.325 10.9578C22.1954 11.776 22.7537 12.5444 23.5719 12.674ZM27.2635 11.74C27.0155 13.3056 25.7652 14.4634 24.2703 14.6625L23.9611 16.6146L26.6236 17.0363L26.6594 17.0419C27.0517 17.104 27.4036 17.1598 27.6924 17.23C28.0013 17.3051 28.3231 17.4153 28.621 17.6318C29.0531 17.9457 29.3748 18.3884 29.5398 18.8965C29.6536 19.2466 29.659 19.5867 29.635 19.9038C29.6125 20.2001 29.5568 20.552 29.4946 20.9442L29.4946 20.9443L29.4889 20.9801L28.9102 24.6342C30.2687 25.2862 31.0989 26.7727 30.851 28.3373C30.5487 30.2465 28.7558 31.5491 26.8466 31.2467C24.9374 30.9443 23.6348 29.1515 23.9372 27.2423C24.1855 25.6749 25.4382 24.5164 26.9352 24.3191L27.5136 20.6673C27.5831 20.228 27.6251 19.9578 27.6407 19.7528C27.6479 19.6571 27.6473 19.5978 27.6446 19.5608C27.6421 19.5278 27.6382 19.5158 27.6377 19.5146L27.6377 19.5145C27.6032 19.4082 27.5359 19.3155 27.4454 19.2498L27.4453 19.2497C27.4443 19.249 27.4341 19.2415 27.4035 19.229C27.3691 19.2149 27.3129 19.196 27.2197 19.1733C27.0199 19.1248 26.75 19.0812 26.3107 19.0116L23.6481 18.5899C23.6002 18.8866 23.5537 19.1549 23.4981 19.3837C23.4229 19.6926 23.3127 20.0144 23.0963 20.3123C22.7824 20.7444 22.3397 21.0661 21.8316 21.2311C21.4815 21.3449 21.1413 21.3503 20.8243 21.3263C20.528 21.3038 20.1761 21.2481 19.7838 21.1859L19.748 21.1802L15.392 20.4903L15.0825 22.4445C16.4404 23.0968 17.27 24.5829 17.0222 26.1471C16.7198 28.0563 14.927 29.3589 13.0178 29.0565C11.1086 28.7541 9.80601 26.9613 10.1084 25.0521C10.3567 23.4843 11.6101 22.3256 13.1076 22.1287L13.4166 20.1775L10.7542 19.7558L10.7184 19.7501C10.3261 19.688 9.97418 19.6323 9.6854 19.562C9.37647 19.4869 9.05464 19.3767 8.75678 19.1603C8.32464 18.8463 8.00298 18.4036 7.83792 17.8956C7.72414 17.5454 7.71879 17.2053 7.74279 16.8883C7.76523 16.5919 7.82098 16.24 7.88314 15.8477L7.88881 15.8119L8.46713 12.1606C7.10534 11.5099 6.27267 10.0215 6.52082 8.45479C6.8232 6.5456 8.61605 5.24302 10.5252 5.54541C12.4344 5.84779 13.737 7.64064 13.4346 9.54984C13.1867 11.1151 11.937 12.2726 10.4427 12.4722L9.86419 16.1248C9.79461 16.5641 9.7526 16.8343 9.73709 17.0392C9.72985 17.1349 9.73043 17.1942 9.73319 17.2312C9.73564 17.2643 9.7396 17.2762 9.74001 17.2775L9.74003 17.2775C9.77458 17.3839 9.8419 17.4765 9.93235 17.5422L9.93241 17.5423C9.93345 17.5431 9.94362 17.5505 9.97429 17.5631C10.0087 17.5771 10.0649 17.596 10.1581 17.6187C10.3578 17.6673 10.6278 17.7108 11.0671 17.7804L13.7297 18.2021C13.7775 17.9055 13.824 17.6371 13.8797 17.4084C13.9548 17.0995 14.065 16.7776 14.2814 16.4798C14.5954 16.0476 15.0381 15.726 15.5461 15.5609C15.8963 15.4471 16.2364 15.4418 16.5534 15.4658C16.8498 15.4882 17.2017 15.544 17.594 15.6061L17.6298 15.6118L21.9857 16.3017L22.2948 14.3502C20.9337 13.6992 20.1016 12.2112 20.3497 10.6449C20.652 8.73572 22.4449 7.43314 24.3541 7.73553C26.2633 8.03792 27.5659 9.83076 27.2635 11.74ZM9.74307 10.4838C10.5613 10.6134 11.3297 10.0552 11.4593 9.23697C11.5889 8.41874 11.0306 7.65038 10.2124 7.52078C9.39415 7.39119 8.62579 7.94944 8.49619 8.76766C8.3666 9.58589 8.92485 10.3543 9.74307 10.4838ZM15.7052 18.515L20.0608 19.2049C20.5001 19.2744 20.7703 19.3165 20.9753 19.332C21.0709 19.3392 21.1303 19.3386 21.1673 19.3359C21.2011 19.3334 21.2128 19.3293 21.2136 19.329C21.3199 19.2945 21.4126 19.2272 21.4783 19.1367L22.2873 19.7245L21.4783 19.1367L21.4783 19.1366C21.4791 19.1356 21.4866 19.1254 21.4991 19.0948C21.5132 19.0604 21.5321 19.0042 21.5547 18.911C21.5923 18.7567 21.6268 18.5606 21.6726 18.277L17.3169 17.5872C16.8776 17.5176 16.6074 17.4756 16.4025 17.4601C16.3068 17.4528 16.2475 17.4534 16.2105 17.4562C16.1774 17.4586 16.1654 17.4626 16.1642 17.463L16.1642 17.463C16.0578 17.4976 15.9652 17.5649 15.8994 17.6553L15.0904 17.0675L15.8994 17.6553L15.8994 17.6554C15.8986 17.6564 15.8912 17.6666 15.8786 17.6973C15.8646 17.7316 15.8457 17.7879 15.823 17.8811C15.7855 18.0353 15.751 18.2314 15.7052 18.515ZM25.9126 27.5551C26.0422 26.7369 26.8106 26.1787 27.6288 26.3082C28.447 26.4378 29.0053 27.2062 28.8757 28.0244C28.7461 28.8427 27.9777 29.4009 27.1595 29.2713C26.3413 29.1417 25.783 28.3734 25.9126 27.5551ZM12.0838 25.3649C12.2134 24.5467 12.9817 23.9885 13.8 24.1181C14.6182 24.2477 15.1764 25.016 15.0468 25.8342C14.9172 26.6525 14.1489 27.2107 13.3307 27.0811C12.5124 26.9515 11.9542 26.1832 12.0838 25.3649Z" fill="#5ED76A"/>
</svg>
