<svg width="48" height="654" viewBox="0 0 48 654" fill="none" xmlns="http://www.w3.org/2000/svg">
<mask id="path-1-inside-1_3164_49359" fill="white">
<path fill-rule="evenodd" clip-rule="evenodd" d="M24 0C10.7452 0 0 10.7452 0 24V77C0 86.7753 5.8442 95.1856 14.2292 98.9276C18.835 100.983 22.9615 104.956 22.9615 110C22.9615 115.044 18.835 119.017 14.2292 121.072C5.8442 124.814 0 133.225 0 143V217C0 224.989 3.90392 232.067 9.90823 236.429C16.4533 241.185 19.7258 243.562 20.4517 244.383C22.2894 246.46 22.1237 246.135 22.7243 248.843C22.9615 249.913 22.9615 251.608 22.9615 255C22.9615 258.392 22.9615 260.087 22.7243 261.157C22.1237 263.865 22.2894 263.54 20.4517 265.617C19.7258 266.438 16.4533 268.815 9.90825 273.571C3.90393 277.933 0 285.011 0 293V338C0 347.598 5.63381 355.88 13.7748 359.719C18.5894 361.99 22.9615 366.177 22.9615 371.5C22.9615 376.823 18.5894 381.01 13.7748 383.281C5.63381 387.12 0 395.402 0 405V484C0 493.242 5.22372 501.264 12.8796 505.274C16.185 507.005 17.8377 507.871 18.0669 508.007C22.1823 510.45 22.6923 511.293 22.9473 516.073C22.9615 516.339 22.9615 517.059 22.9615 518.5C22.9615 519.941 22.9615 520.661 22.9473 520.927C22.6923 525.707 22.1823 526.55 18.0669 528.993C17.8377 529.129 16.185 529.995 12.8796 531.726C5.22371 535.736 0 543.758 0 553V630C0 643.255 10.7452 654 24 654C37.2548 654 48 643.255 48 630V553C48 544.109 43.1649 536.346 35.9806 532.2C32.4129 530.14 30.629 529.11 30.3114 528.893C26.6928 526.415 26.3282 525.784 25.9911 521.411C25.9615 521.027 25.9615 520.185 25.9615 518.5C25.9615 516.815 25.9615 515.973 25.9911 515.589C26.3282 511.216 26.6928 510.585 30.3114 508.107C30.629 507.889 32.4129 506.86 35.9806 504.8C43.1649 500.653 48 492.891 48 484V405C48 395.752 42.769 387.725 35.1044 383.718C32.525 382.369 31.2353 381.695 31.1434 381.644C26.77 379.24 26.0684 378.081 25.9637 373.091C25.9615 372.987 25.9615 372.491 25.9615 371.5C25.9615 370.509 25.9615 370.013 25.9637 369.909C26.0684 364.919 26.77 363.76 31.1434 361.356C31.2353 361.305 32.525 360.631 35.1044 359.282C42.769 355.275 48 347.248 48 338V293C48 285.363 44.433 278.559 38.8741 274.164C32.1739 268.866 28.8238 266.217 28.0887 265.278C26.623 263.407 26.8007 263.774 26.2418 261.463C25.9615 260.304 25.9615 258.536 25.9615 255C25.9615 251.464 25.9615 249.696 26.2418 248.537C26.8007 246.226 26.623 246.593 28.0887 244.722C28.8239 243.783 32.1739 241.134 38.874 235.836C44.433 231.441 48 224.637 48 217V143C48 133.574 42.5655 125.416 34.6586 121.491C30.0651 119.21 25.9615 115.128 25.9615 110C25.9615 104.872 30.0651 100.79 34.6586 98.5093C42.5655 94.5836 48 86.4265 48 77V24C48 10.7452 37.2548 0 24 0Z"/>
</mask>
<path d="M22.9473 520.927L25.9431 521.087L22.9473 520.927ZM12.8796 531.726L11.4876 529.069L12.8796 531.726ZM18.0669 528.993L16.5353 526.414L18.0669 528.993ZM25.9911 515.589L23 515.359L25.9911 515.589ZM35.9806 504.8L34.4809 502.202L35.9806 504.8ZM30.3114 508.107L32.0065 510.582L30.3114 508.107ZM34.6586 98.5093L33.3245 95.8223L34.6586 98.5093ZM13.7748 383.281L15.0545 385.994L13.7748 383.281ZM35.9806 532.2L34.4809 534.798L35.9806 532.2ZM30.3114 528.893L28.6164 531.368L30.3114 528.893ZM25.9911 521.411L28.9822 521.18L25.9911 521.411ZM34.6586 121.491L33.3245 124.178L34.6586 121.491ZM13.7748 359.719L15.0545 357.006L13.7748 359.719ZM38.8741 274.164L37.0133 276.517L38.8741 274.164ZM28.0887 265.278L25.7269 267.128L28.0887 265.278ZM26.2418 261.463L23.3259 262.169L26.2418 261.463ZM9.90823 236.429L11.6716 234.002L9.90823 236.429ZM20.4517 244.383L22.6988 242.395L20.4517 244.383ZM22.7243 248.843L25.6531 248.193L22.7243 248.843ZM35.1044 383.718L36.4944 381.059L35.1044 383.718ZM31.1434 381.644L32.5888 379.016L31.1434 381.644ZM25.9637 373.091L28.9631 373.028L25.9637 373.091ZM12.8796 505.274L14.2716 502.616L12.8796 505.274ZM18.0669 508.007L19.5985 505.427L18.0669 508.007ZM22.9473 516.073L25.9431 515.913L22.9473 516.073ZM25.9637 369.909L28.9631 369.972L25.9637 369.909ZM35.1044 359.282L36.4944 361.941L35.1044 359.282ZM31.1434 361.356L32.5888 363.984L31.1434 361.356ZM26.2418 248.537L23.3259 247.831L26.2418 248.537ZM38.874 235.836L37.0133 233.483L38.874 235.836ZM28.0887 244.722L30.4506 246.572L28.0887 244.722ZM22.7243 261.157L19.7955 260.507L22.7243 261.157ZM20.4517 265.617L22.6988 267.605L20.4517 265.617ZM3 24C3 12.402 12.402 3 24 3V-3C9.08831 -3 -3 9.08831 -3 24H3ZM3 77V24H-3V77H3ZM15.4518 96.188C8.10844 92.9109 3 85.5488 3 77H-3C-3 88.0018 3.57995 97.4603 13.0066 101.667L15.4518 96.188ZM3 143C3 134.451 8.10845 127.089 15.4518 123.812L13.0066 118.333C3.57995 122.54 -3 131.998 -3 143H3ZM3 217V143H-3V217H3ZM11.6716 234.002C6.41075 230.18 3 223.989 3 217H-3C-3 225.99 1.39708 233.954 8.14489 238.857L11.6716 234.002ZM3 293C3 286.011 6.41076 279.82 11.6716 275.998L8.14491 271.143C1.39709 276.046 -3 284.01 -3 293H3ZM3 338V293H-3V338H3ZM15.0545 357.006C7.92419 353.643 3 346.393 3 338H-3C-3 348.802 3.34342 358.116 12.4951 362.432L15.0545 357.006ZM3 405C3 396.607 7.92419 389.357 15.0545 385.994L12.4951 380.568C3.34342 384.884 -3 394.198 -3 405H3ZM3 484V405H-3V484H3ZM14.2716 502.616C7.56516 499.103 3 492.082 3 484H-3C-3 494.401 2.88228 503.424 11.4876 507.931L14.2716 502.616ZM3 553C3 544.918 7.56516 537.897 14.2716 534.384L11.4876 529.069C2.88227 533.576 -3 542.599 -3 553H3ZM3 630V553H-3V630H3ZM24 651C12.402 651 3 641.598 3 630H-3C-3 644.912 9.08831 657 24 657V651ZM45 630C45 641.598 35.598 651 24 651V657C38.9117 657 51 644.912 51 630H45ZM45 553V630H51V553H45ZM34.4809 534.798C40.775 538.431 45 545.224 45 553H51C51 542.993 45.5549 534.262 37.4804 529.601L34.4809 534.798ZM45 484C45 491.776 40.775 498.569 34.4809 502.202L37.4804 507.399C45.5549 502.738 51 494.007 51 484H45ZM45 405V484H51V405H45ZM33.7144 386.376C40.4285 389.887 45 396.912 45 405H51C51 394.591 45.1095 385.564 36.4944 381.059L33.7144 386.376ZM45 338C45 346.088 40.4285 353.113 33.7144 356.624L36.4944 361.941C45.1095 357.436 51 348.409 51 338H45ZM45 293V338H51V293H45ZM37.0133 276.517C41.8836 280.368 45 286.319 45 293H51C51 284.407 46.9823 276.75 40.7348 271.81L37.0133 276.517ZM45 217C45 223.681 41.8836 229.632 37.0133 233.483L40.7348 238.19C46.9823 233.25 51 225.593 51 217H45ZM45 143V217H51V143H45ZM33.3245 124.178C40.2503 127.616 45 134.756 45 143H51C51 132.391 44.8806 123.216 35.9927 118.804L33.3245 124.178ZM45 77C45 85.2438 40.2503 92.3837 33.3245 95.8223L35.9927 101.196C44.8806 96.7836 51 87.6092 51 77H45ZM45 24V77H51V24H45ZM24 3C35.598 3 45 12.402 45 24H51C51 9.08831 38.9117 -3 24 -3V3ZM19.9615 518.5C19.9615 519.223 19.9615 519.756 19.9598 520.141C19.9589 520.333 19.9576 520.48 19.9559 520.591C19.955 520.647 19.9541 520.689 19.9532 520.721C19.9523 520.754 19.9516 520.767 19.9516 520.767L25.9431 521.087C25.9629 520.716 25.9615 519.869 25.9615 518.5H19.9615ZM14.2716 534.384C17.4953 532.695 19.2778 531.763 19.5985 531.573L16.5353 526.414C16.5511 526.404 16.4764 526.446 16.2129 526.587C15.9817 526.71 15.6563 526.882 15.2299 527.107C14.378 527.555 13.1415 528.202 11.4876 529.069L14.2716 534.384ZM19.9516 520.767C19.8199 523.236 19.6197 523.9 19.3881 524.283C19.1565 524.666 18.6609 525.151 16.5353 526.414L19.5985 531.573C21.5883 530.391 23.4055 529.234 24.5215 527.389C25.6375 525.545 25.8198 523.398 25.9431 521.087L19.9516 520.767ZM28.9615 518.5C28.9615 516.721 28.9642 516.053 28.9822 515.82L23 515.359C22.9588 515.893 22.9615 516.909 22.9615 518.5H28.9615ZM34.4809 502.202C31.0232 504.198 29.0605 505.328 28.6164 505.632L32.0065 510.582C31.992 510.592 32.076 510.537 32.3638 510.366C32.6184 510.215 32.9723 510.007 33.4359 509.737C34.3619 509.199 35.6943 508.43 37.4804 507.399L34.4809 502.202ZM28.9822 515.82C29.1588 513.529 29.3268 512.97 29.5187 512.638C29.7106 512.305 30.1112 511.88 32.0065 510.582L28.6164 505.632C26.8931 506.812 25.302 507.941 24.3227 509.637C23.3433 511.333 23.1605 513.276 23 515.359L28.9822 515.82ZM28.9615 110C28.9615 106.568 31.8005 103.278 35.9927 101.196L33.3245 95.8223C28.3298 98.3021 22.9615 103.175 22.9615 110H28.9615ZM19.9615 371.5C19.9615 375.078 16.9178 378.482 12.4951 380.568L15.0545 385.994C20.261 383.539 25.9615 378.568 25.9615 371.5H19.9615ZM37.4804 529.601C35.6943 528.57 34.3619 527.801 33.4359 527.263C32.9723 526.993 32.6184 526.785 32.3638 526.634C32.076 526.463 31.992 526.408 32.0065 526.418L28.6164 531.368C29.0605 531.672 31.0232 532.802 34.4809 534.798L37.4804 529.601ZM22.9615 518.5C22.9615 520.091 22.9588 521.107 23 521.641L28.9822 521.18C28.9642 520.947 28.9615 520.279 28.9615 518.5H22.9615ZM32.0065 526.418C30.1112 525.12 29.7106 524.695 29.5187 524.362C29.3268 524.03 29.1588 523.471 28.9822 521.18L23 521.641C23.1605 523.724 23.3433 525.667 24.3227 527.363C25.302 529.059 26.8931 530.188 28.6164 531.368L32.0065 526.418ZM35.9927 118.804C31.8005 116.722 28.9615 113.432 28.9615 110H22.9615C22.9615 116.825 28.3298 121.698 33.3245 124.178L35.9927 118.804ZM12.4951 362.432C16.9178 364.518 19.9615 367.922 19.9615 371.5H25.9615C25.9615 364.432 20.261 359.461 15.0545 357.006L12.4951 362.432ZM40.7348 271.81C37.3761 269.155 34.8858 267.185 33.1412 265.762C32.2683 265.049 31.6086 264.495 31.1325 264.073C30.6095 263.609 30.449 263.426 30.4506 263.428L25.7269 267.128C26.096 267.599 26.63 268.099 27.1512 268.562C27.7194 269.066 28.4538 269.681 29.3478 270.41C31.1371 271.87 33.6719 273.875 37.0133 276.517L40.7348 271.81ZM22.9615 255C22.9615 256.747 22.9611 258.133 22.9983 259.225C23.035 260.301 23.1116 261.282 23.3259 262.169L29.1577 260.758C29.0918 260.485 29.0283 260.003 28.9948 259.021C28.9619 258.055 28.9615 256.79 28.9615 255H22.9615ZM30.4506 263.428C30.0467 262.913 29.8346 262.65 29.6624 262.42C29.5128 262.22 29.5089 262.194 29.5254 262.228C29.5419 262.262 29.5238 262.243 29.4598 262.002C29.386 261.724 29.3117 261.395 29.1577 260.758L23.3259 262.169C23.5439 263.07 23.7335 264.034 24.125 264.843C24.5165 265.651 25.1553 266.398 25.7269 267.128L30.4506 263.428ZM8.14489 238.857C11.4254 241.24 13.8592 243.008 15.5656 244.284C16.4194 244.923 17.0662 245.419 17.5341 245.797C18.0497 246.213 18.2088 246.375 18.2047 246.371L22.6988 242.395C22.3317 241.98 21.8095 241.537 21.3028 241.128C20.7483 240.681 20.0319 240.132 19.1587 239.479C17.411 238.172 14.9361 236.374 11.6716 234.002L8.14489 238.857ZM25.9615 255C25.9615 253.323 25.9619 251.998 25.9305 250.96C25.8998 249.943 25.8358 249.017 25.6531 248.193L19.7955 249.493C19.85 249.738 19.9047 250.195 19.9332 251.141C19.9612 252.067 19.9615 253.285 19.9615 255H25.9615ZM18.2047 246.371C18.7033 246.934 18.977 247.236 19.1891 247.491C19.3764 247.717 19.3907 247.762 19.3789 247.739C19.3671 247.715 19.3948 247.753 19.4673 248.037C19.5494 248.359 19.6325 248.758 19.7955 249.493L25.6531 248.193C25.4117 247.105 25.212 245.971 24.7249 245.015C24.2378 244.059 23.4373 243.23 22.6988 242.395L18.2047 246.371ZM13.0066 101.667C17.161 103.521 19.9615 106.703 19.9615 110H25.9615C25.9615 103.21 20.5091 98.4449 15.4518 96.188L13.0066 101.667ZM36.4944 381.059C35.2044 380.385 34.2378 379.879 33.582 379.536C33.2541 379.365 33.005 379.234 32.8325 379.144C32.6388 379.042 32.5787 379.01 32.5888 379.016L29.6979 384.273C29.8266 384.344 31.1695 385.046 33.7144 386.376L36.4944 381.059ZM22.9615 371.5C22.9615 372.457 22.9613 373.008 22.9644 373.154L28.9631 373.028C28.9631 373.032 28.9628 373.007 28.9624 372.926C28.9621 372.854 28.9619 372.754 28.9618 372.625C28.9615 372.366 28.9615 371.996 28.9615 371.5H22.9615ZM32.5888 379.016C30.3885 377.806 29.7955 377.24 29.5189 376.783C29.2423 376.327 29.0157 375.539 28.9631 373.028L22.9644 373.154C23.0164 375.634 23.1929 377.92 24.3866 379.891C25.5804 381.863 27.5249 383.078 29.6979 384.273L32.5888 379.016ZM11.4876 507.931C13.1415 508.798 14.378 509.445 15.2299 509.893C15.6563 510.118 15.9817 510.29 16.2129 510.413C16.4764 510.554 16.5511 510.596 16.5353 510.586L19.5985 505.427C19.2778 505.237 17.4953 504.305 14.2716 502.616L11.4876 507.931ZM25.9615 518.5C25.9615 517.131 25.9629 516.284 25.9431 515.913L19.9516 516.232C19.9516 516.232 19.9523 516.246 19.9532 516.279C19.9541 516.311 19.955 516.353 19.9559 516.409C19.9576 516.52 19.9589 516.667 19.9598 516.859C19.9615 517.244 19.9615 517.776 19.9615 518.5H25.9615ZM16.5353 510.586C18.6609 511.849 19.1564 512.334 19.3881 512.717C19.6197 513.1 19.8199 513.764 19.9516 516.232L25.9431 515.913C25.8198 513.602 25.6375 511.455 24.5215 509.611C23.4055 507.766 21.5882 506.609 19.5985 505.427L16.5353 510.586ZM28.9615 371.5C28.9615 371.004 28.9615 370.634 28.9618 370.375C28.9619 370.246 28.9621 370.146 28.9624 370.074C28.9628 369.993 28.9631 369.968 28.9631 369.972L22.9644 369.846C22.9613 369.992 22.9615 370.543 22.9615 371.5H28.9615ZM33.7144 356.624C31.1695 357.954 29.8266 358.656 29.6979 358.727L32.5888 363.984C32.5787 363.99 32.6388 363.958 32.8325 363.856C33.005 363.766 33.2541 363.635 33.582 363.464C34.2378 363.121 35.2044 362.615 36.4944 361.941L33.7144 356.624ZM28.9631 369.972C29.0157 367.461 29.2423 366.673 29.5189 366.217C29.7955 365.76 30.3885 365.194 32.5888 363.984L29.6979 358.727C27.5249 359.922 25.5804 361.137 24.3866 363.109C23.1929 365.08 23.0164 367.366 22.9644 369.846L28.9631 369.972ZM19.9615 110C19.9615 113.297 17.161 116.479 13.0066 118.333L15.4518 123.812C20.5091 121.555 25.9615 116.79 25.9615 110H19.9615ZM28.9615 255C28.9615 253.21 28.9619 251.945 28.9948 250.979C29.0283 249.997 29.0918 249.515 29.1577 249.242L23.3259 247.831C23.1116 248.718 23.035 249.699 22.9983 250.775C22.9611 251.867 22.9615 253.253 22.9615 255H28.9615ZM37.0133 233.483C33.6719 236.125 31.1371 238.13 29.3478 239.59C28.4538 240.319 27.7194 240.934 27.1512 241.438C26.63 241.901 26.096 242.401 25.7269 242.872L30.4506 246.572C30.449 246.574 30.6095 246.391 31.1325 245.927C31.6086 245.505 32.2683 244.951 33.1412 244.238C34.8858 242.815 37.3761 240.845 40.7348 238.19L37.0133 233.483ZM29.1577 249.242C29.3117 248.605 29.386 248.276 29.4598 247.998C29.5238 247.757 29.5419 247.738 29.5254 247.772C29.5089 247.806 29.5128 247.78 29.6624 247.58C29.8346 247.35 30.0467 247.087 30.4506 246.572L25.7269 242.872C25.1553 243.602 24.5165 244.349 24.125 245.157C23.7335 245.966 23.5439 246.93 23.3259 247.831L29.1577 249.242ZM19.9615 255C19.9615 256.715 19.9612 257.933 19.9332 258.859C19.9047 259.805 19.85 260.262 19.7955 260.507L25.6531 261.807C25.8358 260.983 25.8998 260.057 25.9305 259.04C25.9619 258.002 25.9615 256.677 25.9615 255H19.9615ZM11.6716 275.998C14.9361 273.626 17.411 271.828 19.1587 270.521C20.0319 269.868 20.7483 269.319 21.3028 268.872C21.8095 268.463 22.3317 268.02 22.6988 267.605L18.2047 263.629C18.2088 263.625 18.0497 263.787 17.5341 264.203C17.0662 264.581 16.4194 265.077 15.5656 265.716C13.8592 266.992 11.4254 268.76 8.14491 271.143L11.6716 275.998ZM19.7955 260.507C19.6325 261.242 19.5494 261.641 19.4673 261.963C19.3948 262.247 19.3671 262.285 19.3789 262.261C19.3907 262.238 19.3764 262.283 19.1891 262.509C18.977 262.764 18.7032 263.066 18.2047 263.629L22.6988 267.605C23.4373 266.77 24.2378 265.941 24.7249 264.985C25.212 264.029 25.4117 262.895 25.6531 261.807L19.7955 260.507Z" fill="#5ED76A" mask="url(#path-1-inside-1_3164_49359)"/>
</svg>
