<svg width="48" height="651" viewBox="0 0 48 651" fill="none" xmlns="http://www.w3.org/2000/svg">
<mask id="path-1-inside-1_3115_25234" fill="white">
<path fill-rule="evenodd" clip-rule="evenodd" d="M24 0C10.7452 0 0 10.7452 0 24V77C0 86.7753 5.8442 95.1856 14.2292 98.9276C18.835 100.983 22.9615 104.956 22.9615 110C22.9615 115.044 18.835 119.017 14.2292 121.072C5.8442 124.814 0 133.225 0 143V217C0 226.775 5.84419 235.186 14.2292 238.928C18.835 240.983 22.9615 244.956 22.9615 250C22.9615 255.044 18.835 259.017 14.2292 261.072C5.8442 264.814 0 273.225 0 283V336C0 345.775 5.84419 354.186 14.2292 357.928C18.835 359.983 22.9615 363.956 22.9615 369C22.9615 374.044 18.835 378.017 14.2292 380.072C5.84419 383.814 0 392.225 0 402V476C0 485.775 5.8442 494.186 14.2292 497.928C18.835 499.983 22.9615 503.956 22.9615 509C22.9615 514.044 18.835 518.017 14.2292 520.072C5.84419 523.814 0 532.225 0 542V627C0 640.255 10.7452 651 24 651C37.2548 651 48 640.255 48 627V542C48 532.573 42.5654 524.416 34.6585 520.491C30.0651 518.21 25.9615 514.128 25.9615 509C25.9615 503.872 30.0651 499.79 34.6586 497.509C42.5655 493.584 48 485.426 48 476V402C48 392.574 42.5655 384.416 34.6586 380.491C30.0651 378.21 25.9615 374.128 25.9615 369C25.9615 363.872 30.0651 359.79 34.6586 357.509C42.5655 353.584 48 345.426 48 336V283C48 273.574 42.5655 265.416 34.6586 261.491C30.0651 259.21 25.9615 255.128 25.9615 250C25.9615 244.872 30.0651 240.79 34.6586 238.509C42.5655 234.584 48 226.426 48 217V143C48 133.574 42.5655 125.416 34.6586 121.491C30.0651 119.21 25.9615 115.128 25.9615 110C25.9615 104.872 30.0651 100.79 34.6586 98.5093C42.5655 94.5836 48 86.4265 48 77V24C48 10.7452 37.2548 0 24 0Z"/>
</mask>
<path d="M14.2292 520.072L13.0066 517.333L14.2292 520.072ZM34.6586 497.509L33.3245 494.822L34.6586 497.509ZM34.6586 98.5093L33.3245 95.8223L34.6586 98.5093ZM14.2292 380.072L15.4518 382.812L14.2292 380.072ZM34.6585 520.491L33.3245 523.178L34.6585 520.491ZM34.6586 121.491L33.3245 124.178L34.6586 121.491ZM14.2292 357.928L13.0066 360.667L14.2292 357.928ZM34.6586 261.491L33.3245 264.178L34.6586 261.491ZM14.2292 238.928L13.0066 241.667L14.2292 238.928ZM34.6586 380.491L33.3245 383.178L34.6586 380.491ZM14.2292 497.928L13.0066 500.667L14.2292 497.928ZM34.6586 357.509L33.3245 354.822L34.6586 357.509ZM14.2292 261.072L13.0066 258.333L14.2292 261.072ZM3 24C3 12.402 12.402 3 24 3V-3C9.08831 -3 -3 9.08831 -3 24H3ZM3 77V24H-3V77H3ZM15.4518 96.188C8.10844 92.9109 3 85.5488 3 77H-3C-3 88.0018 3.57995 97.4603 13.0066 101.667L15.4518 96.188ZM3 143C3 134.451 8.10845 127.089 15.4518 123.812L13.0066 118.333C3.57995 122.54 -3 131.998 -3 143H3ZM3 217V143H-3V217H3ZM15.4518 236.188C8.10844 232.911 3 225.549 3 217H-3C-3 228.002 3.57994 237.46 13.0066 241.667L15.4518 236.188ZM3 283C3 274.451 8.10844 267.089 15.4518 263.812L13.0066 258.333C3.57995 262.54 -3 271.998 -3 283H3ZM3 336V283H-3V336H3ZM15.4518 355.188C8.10844 351.911 3 344.549 3 336H-3C-3 347.002 3.57995 356.46 13.0066 360.667L15.4518 355.188ZM3 402C3 393.451 8.10844 386.089 15.4518 382.812L13.0066 377.333C3.57995 381.54 -3 390.998 -3 402H3ZM3 476V402H-3V476H3ZM15.4518 495.188C8.10845 491.911 3 484.549 3 476H-3C-3 487.002 3.57996 496.46 13.0066 500.667L15.4518 495.188ZM3 542C3 533.451 8.10844 526.089 15.4518 522.812L13.0066 517.333C3.57994 521.54 -3 530.998 -3 542H3ZM3 627V542H-3V627H3ZM24 648C12.402 648 3 638.598 3 627H-3C-3 641.912 9.08831 654 24 654V648ZM45 627C45 638.598 35.598 648 24 648V654C38.9117 654 51 641.912 51 627H45ZM45 542V627H51V542H45ZM33.3245 523.178C40.2503 526.616 45 533.756 45 542H51C51 531.391 44.8806 522.216 35.9926 517.804L33.3245 523.178ZM45 476C45 484.244 40.2503 491.384 33.3245 494.822L35.9926 500.196C44.8806 495.784 51 486.609 51 476H45ZM45 402V476H51V402H45ZM33.3245 383.178C40.2503 386.616 45 393.756 45 402H51C51 391.391 44.8806 382.216 35.9926 377.804L33.3245 383.178ZM45 336C45 344.244 40.2503 351.384 33.3245 354.822L35.9926 360.196C44.8806 355.784 51 346.609 51 336H45ZM45 283V336H51V283H45ZM33.3245 264.178C40.2503 267.616 45 274.756 45 283H51C51 272.391 44.8806 263.216 35.9927 258.804L33.3245 264.178ZM45 217C45 225.244 40.2503 232.384 33.3245 235.822L35.9927 241.196C44.8806 236.784 51 227.609 51 217H45ZM45 143V217H51V143H45ZM33.3245 124.178C40.2503 127.616 45 134.756 45 143H51C51 132.391 44.8806 123.216 35.9927 118.804L33.3245 124.178ZM45 77C45 85.2438 40.2503 92.3837 33.3245 95.8223L35.9927 101.196C44.8806 96.7836 51 87.6092 51 77H45ZM45 24V77H51V24H45ZM24 3C35.598 3 45 12.402 45 24H51C51 9.08831 38.9117 -3 24 -3V3ZM19.9615 509C19.9615 512.297 17.161 515.479 13.0066 517.333L15.4518 522.812C20.509 520.555 25.9615 515.79 25.9615 509H19.9615ZM28.9615 509C28.9615 505.568 31.8005 502.278 35.9926 500.196L33.3245 494.822C28.3298 497.302 22.9615 502.175 22.9615 509H28.9615ZM28.9615 110C28.9615 106.568 31.8005 103.278 35.9927 101.196L33.3245 95.8223C28.3298 98.3021 22.9615 103.175 22.9615 110H28.9615ZM19.9615 369C19.9615 372.297 17.161 375.479 13.0066 377.333L15.4518 382.812C20.5091 380.555 25.9615 375.79 25.9615 369H19.9615ZM35.9926 517.804C31.8004 515.722 28.9615 512.432 28.9615 509H22.9615C22.9615 515.825 28.3297 520.698 33.3245 523.178L35.9926 517.804ZM35.9927 118.804C31.8005 116.722 28.9615 113.432 28.9615 110H22.9615C22.9615 116.825 28.3298 121.698 33.3245 124.178L35.9927 118.804ZM13.0066 360.667C17.161 362.521 19.9615 365.703 19.9615 369H25.9615C25.9615 362.21 20.5091 357.445 15.4518 355.188L13.0066 360.667ZM35.9927 258.804C31.8005 256.722 28.9615 253.432 28.9615 250H22.9615C22.9615 256.825 28.3298 261.698 33.3245 264.178L35.9927 258.804ZM13.0066 241.667C17.161 243.521 19.9615 246.703 19.9615 250H25.9615C25.9615 243.21 20.5091 238.445 15.4518 236.188L13.0066 241.667ZM13.0066 101.667C17.161 103.521 19.9615 106.703 19.9615 110H25.9615C25.9615 103.21 20.5091 98.4449 15.4518 96.188L13.0066 101.667ZM35.9926 377.804C31.8005 375.722 28.9615 372.432 28.9615 369H22.9615C22.9615 375.825 28.3298 380.698 33.3245 383.178L35.9926 377.804ZM13.0066 500.667C17.161 502.521 19.9615 505.703 19.9615 509H25.9615C25.9615 502.21 20.5091 497.445 15.4518 495.188L13.0066 500.667ZM28.9615 369C28.9615 365.568 31.8005 362.278 35.9926 360.196L33.3245 354.822C28.3298 357.302 22.9615 362.175 22.9615 369H28.9615ZM19.9615 110C19.9615 113.297 17.161 116.479 13.0066 118.333L15.4518 123.812C20.5091 121.555 25.9615 116.79 25.9615 110H19.9615ZM28.9615 250C28.9615 246.568 31.8005 243.278 35.9927 241.196L33.3245 235.822C28.3298 238.302 22.9615 243.175 22.9615 250H28.9615ZM19.9615 250C19.9615 253.297 17.161 256.479 13.0066 258.333L15.4518 263.812C20.5091 261.555 25.9615 256.79 25.9615 250H19.9615Z" fill="#5ED76A" mask="url(#path-1-inside-1_3115_25234)"/>
</svg>
