<svg width="48" height="707" viewBox="0 0 48 707" fill="none" xmlns="http://www.w3.org/2000/svg">
<mask id="path-1-inside-1_3164_49386" fill="white">
<path fill-rule="evenodd" clip-rule="evenodd" d="M24 0.863281C10.7452 0.863281 0 11.6084 0 24.8633V81.8633C0 91.694 5.91069 100.144 14.3722 103.854C18.9114 105.844 22.9619 109.751 22.9619 114.707C22.9619 119.664 18.9114 123.57 14.3722 125.56C5.91069 129.27 0 137.721 0 147.551V235.551C0 243.172 3.55182 249.963 9.09033 254.359C16.4899 260.233 20.1897 263.17 20.9635 264.202C22.2882 265.97 22.0739 265.526 22.6344 267.662C22.9619 268.91 22.9619 270.8 22.9619 274.579C22.9619 278.358 22.9619 280.248 22.6344 281.496C22.0739 283.632 22.2882 283.188 20.9635 284.955C20.1897 285.988 16.4899 288.925 9.09033 294.798C3.55182 299.195 0 305.986 0 313.606V387.606C0 396.573 4.91754 404.392 12.2029 408.512C16.2641 410.808 18.2947 411.957 18.6813 412.226C22.2322 414.702 22.5105 415.179 22.9176 419.489C22.9619 419.958 22.9619 420.931 22.9619 422.877C22.9619 424.823 22.9619 425.796 22.9176 426.266C22.5105 430.575 22.2322 431.052 18.6813 433.528C18.2947 433.798 16.2641 434.946 12.2029 437.243C4.91755 441.363 0 449.181 0 458.148V537.148C0 546.262 5.08057 554.19 12.5641 558.253C16.2233 560.24 18.0528 561.234 18.3585 561.43C22.2083 563.897 22.6039 564.562 22.9356 569.123C22.9619 569.485 22.9619 570.326 22.9619 572.006C22.9619 573.686 22.9619 574.526 22.9356 574.888C22.6039 579.449 22.2083 580.114 18.3585 582.582C18.0528 582.777 16.2233 583.771 12.5641 585.758C5.08057 589.821 0 597.749 0 606.863V682.863C0 696.118 10.7452 706.863 24 706.863C37.2548 706.863 48 696.118 48 682.863V606.863C48 598.1 43.3031 590.433 36.2894 586.244C32.3779 583.908 30.4221 582.74 30.0357 582.455C26.6743 579.982 26.4073 579.512 26.0078 575.358C25.9619 574.88 25.9619 573.922 25.9619 572.006C25.9619 570.089 25.9619 569.131 26.0078 568.653C26.4073 564.499 26.6743 564.029 30.0357 561.556C30.4221 561.272 32.3779 560.103 36.2894 557.767C43.3031 553.578 48 545.911 48 537.148V458.148C48 449.532 43.4601 441.977 36.6421 437.744C32.3403 435.073 30.1894 433.737 29.7313 433.372C26.6572 430.924 26.4891 430.621 26.0303 426.718C25.9619 426.136 25.9619 425.05 25.9619 422.877C25.9619 420.704 25.9619 419.618 26.0303 419.036C26.4891 415.133 26.6572 414.831 29.7313 412.382C30.1894 412.017 32.3403 410.682 36.6421 408.011C43.4601 403.777 48 396.222 48 387.606V313.606C48 306.214 44.6573 299.601 39.4008 295.199C32.154 289.129 28.5307 286.095 27.7741 285.016C26.6249 283.377 26.8219 283.799 26.3034 281.865C25.9619 280.592 25.9619 278.704 25.9619 274.928L25.9619 274.23C25.9619 270.454 25.9619 268.565 26.3034 267.292C26.8219 265.359 26.6249 265.781 27.7741 264.142C28.5307 263.063 32.1541 260.028 39.4008 253.959C44.6573 249.556 48 242.944 48 235.551V147.551C48 138.069 42.5014 129.872 34.519 125.973C29.99 123.761 25.9619 119.748 25.9619 114.707C25.9619 109.667 29.99 105.653 34.519 103.441C42.5015 99.5427 48 91.3451 48 81.8633V24.8633C48 11.6084 37.2548 0.863281 24 0.863281Z"/>
</mask>
<path d="M22.9356 574.888L19.9435 574.67L22.9356 574.888ZM18.3585 582.582L16.7395 580.056L18.3585 582.582ZM26.0078 568.653L23.0216 568.366L26.0078 568.653ZM30.0357 561.556L28.2579 559.139L30.0357 561.556ZM34.519 103.441L35.8356 106.137L34.519 103.441ZM22.9176 426.266L25.9043 426.548L22.9176 426.266ZM12.2029 437.243L13.6797 439.854L12.2029 437.243ZM18.6813 433.528L16.9655 431.067L18.6813 433.528ZM36.2894 586.244L34.751 588.82L36.2894 586.244ZM30.0357 582.455L31.8136 580.039L30.0357 582.455ZM26.0078 575.358L23.0216 575.645L26.0078 575.358ZM34.519 125.973L33.2025 128.669L34.519 125.973ZM12.2029 408.512L13.6797 405.9L12.2029 408.512ZM18.6813 412.226L20.3971 409.766L18.6813 412.226ZM22.9176 419.489L19.9309 419.771L22.9176 419.489ZM39.4008 295.199L41.327 292.899L39.4008 295.199ZM27.7741 285.016L30.2304 283.293L27.7741 285.016ZM26.3034 281.865L23.4058 282.643L26.3034 281.865ZM9.09033 254.359L7.22516 256.709L9.09033 254.359ZM20.9635 264.202L23.364 262.403L20.9635 264.202ZM22.6344 267.662L25.5362 266.901L22.6344 267.662ZM36.6421 437.744L38.2245 435.195L36.6421 437.744ZM29.7313 433.372L27.8622 435.719L29.7313 433.372ZM26.0303 426.718L23.0508 427.068L26.0303 426.718ZM12.5641 558.253L13.9957 555.617L12.5641 558.253ZM18.3585 561.43L16.7395 563.955L18.3585 561.43ZM22.9356 569.123L19.9435 569.341L22.9356 569.123ZM26.0303 419.036L23.0508 418.686L26.0303 419.036ZM36.6421 408.011L38.2245 410.559L36.6421 408.011ZM29.7313 412.382L27.8622 410.036L29.7313 412.382ZM25.9619 274.23H22.9619H25.9619ZM26.3034 267.292L29.2009 268.07L26.3034 267.292ZM39.4008 253.959L41.327 256.259L39.4008 253.959ZM27.7741 264.142L30.2304 265.865L27.7741 264.142ZM22.6344 281.496L25.5362 282.257L22.6344 281.496ZM9.09033 294.798L7.22516 292.449L9.09033 294.798ZM20.9635 284.955L18.563 283.156L20.9635 284.955ZM3 24.8633C3 13.2653 12.402 3.86328 24 3.86328V-2.13672C9.08831 -2.13672 -3 9.95159 -3 24.8633H3ZM3 81.8633V24.8633H-3V81.8633H3ZM15.5768 101.107C8.16668 97.8577 3 90.4605 3 81.8633H-3C-3 92.9275 3.65469 102.431 13.1675 106.602L15.5768 101.107ZM3 147.551C3 138.954 8.16668 131.557 15.5768 128.308L13.1675 122.813C3.65469 126.984 -3 136.487 -3 147.551H3ZM3 235.551V147.551H-3V235.551H3ZM10.9555 252.01C6.10307 248.158 3 242.218 3 235.551H-3C-3 244.126 1.00056 251.768 7.22516 256.709L10.9555 252.01ZM3 313.606C3 306.94 6.10307 301 10.9555 297.148L7.22516 292.449C1.00056 297.39 -3 305.032 -3 313.606H3ZM3 387.606V313.606H-3V387.606H3ZM13.6797 405.9C7.29719 402.291 3 395.449 3 387.606H-3C-3 397.698 2.53788 406.492 10.7261 411.123L13.6797 405.9ZM3 458.148C3 450.306 7.2972 443.463 13.6797 439.854L10.7261 434.631C2.53789 439.262 -3 448.056 -3 458.148H3ZM3 537.148V458.148H-3V537.148H3ZM13.9957 555.617C7.43987 552.057 3 545.119 3 537.148H-3C-3 547.406 2.72127 556.323 11.1326 560.89L13.9957 555.617ZM3 606.863C3 598.892 7.43987 591.954 13.9957 588.394L11.1326 583.121C2.72127 587.689 -3 596.606 -3 606.863H3ZM3 682.863V606.863H-3V682.863H3ZM24 703.863C12.402 703.863 3 694.461 3 682.863H-3C-3 697.775 9.08831 709.863 24 709.863V703.863ZM45 682.863C45 694.461 35.598 703.863 24 703.863V709.863C38.9117 709.863 51 697.775 51 682.863H45ZM45 606.863V682.863H51V606.863H45ZM34.751 588.82C40.8959 592.49 45 599.199 45 606.863H51C51 597.001 45.7104 588.377 37.8277 583.669L34.751 588.82ZM45 537.148C45 544.812 40.8959 551.521 34.751 555.192L37.8277 560.343C45.7104 555.634 51 547.01 51 537.148H45ZM45 458.148V537.148H51V458.148H45ZM35.0596 440.292C41.0332 444.001 45 450.613 45 458.148H51C51 448.452 45.887 439.953 38.2245 435.195L35.0596 440.292ZM45 387.606C45 395.142 41.0332 401.753 35.0596 405.462L38.2245 410.559C45.887 405.802 51 397.302 51 387.606H45ZM45 313.606V387.606H51V313.606H45ZM37.4745 297.499C42.0796 301.356 45 307.139 45 313.606H51C51 305.288 47.235 297.847 41.327 292.899L37.4745 297.499ZM22.9619 274.23L22.9619 274.928H28.9619L28.9619 274.23H22.9619ZM45 235.551C45 242.019 42.0796 247.802 37.4745 251.659L41.327 256.259C47.235 251.311 51 243.869 51 235.551H45ZM45 147.551V235.551H51V147.551H45ZM33.2025 128.669C40.1942 132.084 45 139.259 45 147.551H51C51 136.88 44.8087 127.66 35.8356 123.278L33.2025 128.669ZM45 81.8633C45 90.1554 40.1942 97.3308 33.2025 100.746L35.8356 106.137C44.8087 101.755 51 92.5348 51 81.8633H45ZM45 24.8633V81.8633H51V24.8633H45ZM24 3.86328C35.598 3.86328 45 13.2653 45 24.8633H51C51 9.95159 38.9117 -2.13672 24 -2.13672V3.86328ZM19.9619 572.006C19.9619 573.777 19.9595 574.45 19.9435 574.67L25.9277 575.106C25.9643 574.601 25.9619 573.594 25.9619 572.006H19.9619ZM13.9957 588.394C17.548 586.465 19.5499 585.381 19.9775 585.107L16.7395 580.056C16.7554 580.046 16.6705 580.097 16.3759 580.262C16.1161 580.407 15.7538 580.607 15.2793 580.866C14.3313 581.384 12.9641 582.127 11.1326 583.121L13.9957 588.394ZM19.9435 574.67C19.7697 577.06 19.5909 577.645 19.3881 577.986C19.1853 578.327 18.7563 578.763 16.7395 580.056L19.9775 585.107C21.8104 583.932 23.5042 582.802 24.5446 581.053C25.5849 579.305 25.7698 577.277 25.9277 575.106L19.9435 574.67ZM28.9619 572.006C28.9619 569.978 28.966 569.232 28.994 568.941L23.0216 568.366C22.9578 569.03 22.9619 570.201 22.9619 572.006H28.9619ZM34.751 555.192C32.7982 556.358 31.3238 557.239 30.2899 557.863C29.3339 558.44 28.5914 558.894 28.2579 559.139L31.8136 563.972C31.8006 563.982 31.8951 563.916 32.2112 563.719C32.4925 563.544 32.8815 563.307 33.3913 562.999C34.4098 562.384 35.869 561.513 37.8277 560.343L34.751 555.192ZM28.994 568.941C29.2064 566.733 29.3541 566.248 29.5202 565.955C29.6862 565.662 30.027 565.287 31.8136 563.972L28.2579 559.139C26.6831 560.298 25.2096 561.394 24.3019 562.994C23.3942 564.593 23.2087 566.42 23.0216 568.366L28.994 568.941ZM28.9619 114.707C28.9619 111.364 31.7262 108.144 35.8356 106.137L33.2025 100.746C28.2538 103.163 22.9619 107.97 22.9619 114.707H28.9619ZM19.9619 422.877C19.9619 424.935 19.9579 425.698 19.9309 425.983L25.9043 426.548C25.9659 425.895 25.9619 424.712 25.9619 422.877H19.9619ZM13.6797 439.854C15.7074 438.707 17.2377 437.842 18.3087 437.23C19.2997 436.663 20.0627 436.222 20.3971 435.989L16.9655 431.067C16.9801 431.057 16.883 431.121 16.555 431.314C16.2638 431.485 15.8602 431.718 15.3315 432.021C14.2753 432.624 12.7596 433.481 10.7261 434.631L13.6797 439.854ZM19.9309 425.983C19.714 428.279 19.5594 428.777 19.387 429.073C19.2145 429.368 18.8568 429.748 16.9655 431.067L20.3971 435.989C22.0567 434.832 23.6135 433.735 24.5697 432.096C25.5259 430.457 25.714 428.562 25.9043 426.548L19.9309 425.983ZM37.8277 583.669C35.869 582.499 34.4098 581.627 33.3913 581.012C32.8815 580.704 32.4925 580.467 32.2112 580.292C31.8951 580.095 31.8006 580.029 31.8136 580.039L28.2579 584.872C28.5914 585.117 29.3339 585.571 30.2899 586.148C31.3238 586.773 32.7982 587.653 34.751 588.82L37.8277 583.669ZM22.9619 572.006C22.9619 573.811 22.9578 574.981 23.0216 575.645L28.994 575.071C28.966 574.779 28.9619 574.033 28.9619 572.006H22.9619ZM31.8136 580.039C30.027 578.724 29.6862 578.349 29.5202 578.056C29.3541 577.764 29.2064 577.279 28.994 575.071L23.0216 575.645C23.2087 577.591 23.3942 579.418 24.3019 581.018C25.2096 582.617 26.6831 583.713 28.2579 584.872L31.8136 580.039ZM35.8356 123.278C31.7262 121.271 28.9619 118.051 28.9619 114.707H22.9619C22.9619 121.444 28.2538 126.252 33.2025 128.669L35.8356 123.278ZM10.7261 411.123C12.7596 412.273 14.2753 413.13 15.3315 413.734C15.8602 414.036 16.2638 414.269 16.555 414.44C16.883 414.634 16.9801 414.697 16.9655 414.687L20.3971 409.766C20.0628 409.532 19.2997 409.091 18.3087 408.525C17.2377 407.913 15.7074 407.047 13.6797 405.9L10.7261 411.123ZM25.9619 422.877C25.9619 421.043 25.9659 419.859 25.9043 419.207L19.9309 419.771C19.9579 420.057 19.9619 420.82 19.9619 422.877H25.9619ZM16.9655 414.687C18.8568 416.006 19.2146 416.386 19.387 416.682C19.5594 416.977 19.714 417.476 19.9309 419.771L25.9043 419.207C25.714 417.193 25.5259 415.298 24.5697 413.658C23.6135 412.019 22.0567 410.923 20.3971 409.766L16.9655 414.687ZM41.327 292.899C37.6944 289.856 35.0008 287.6 33.1185 285.969C32.1767 285.152 31.4666 284.517 30.9566 284.033C30.3961 283.501 30.2288 283.291 30.2304 283.293L25.3177 286.738C25.6976 287.28 26.267 287.854 26.8252 288.384C27.4338 288.962 28.2243 289.667 29.1887 290.503C31.119 292.176 33.8605 294.472 37.4745 297.499L41.327 292.899ZM22.9619 274.928C22.9619 276.792 22.9614 278.276 23.0068 279.451C23.0518 280.614 23.1462 281.675 23.4058 282.643L29.2009 281.088C29.1191 280.783 29.0427 280.263 29.0023 279.219C28.9624 278.188 28.9619 276.84 28.9619 274.928H22.9619ZM30.2304 283.293C29.9032 282.827 29.7512 282.619 29.6086 282.41C29.49 282.237 29.4976 282.232 29.5206 282.282C29.5436 282.331 29.5355 282.334 29.4787 282.132C29.4104 281.889 29.3486 281.638 29.2009 281.088L23.4058 282.643C23.5174 283.059 23.6254 283.481 23.702 283.754C23.79 284.067 23.9017 284.43 24.0839 284.82C24.2661 285.21 24.4723 285.529 24.6562 285.797C24.8161 286.031 25.0703 286.385 25.3177 286.738L30.2304 283.293ZM7.22516 256.709C10.9341 259.653 13.6854 261.837 15.6085 263.415C16.5707 264.205 17.2973 264.82 17.8196 265.288C18.3948 265.804 18.5666 266.006 18.563 266.002L23.364 262.403C22.9736 261.882 22.3927 261.33 21.8253 260.821C21.205 260.265 20.3991 259.585 19.4147 258.777C17.4445 257.161 14.6462 254.939 10.9555 252.01L7.22516 256.709ZM25.9619 274.579C25.9619 272.713 25.9624 271.23 25.9189 270.06C25.876 268.905 25.7861 267.853 25.5362 266.901L19.7327 268.423C19.8102 268.719 19.8841 269.236 19.923 270.283C19.9614 271.315 19.9619 272.666 19.9619 274.579H25.9619ZM18.563 266.002C18.9376 266.501 19.1169 266.731 19.2793 266.954C19.416 267.142 19.4087 267.15 19.3841 267.099C19.3594 267.047 19.3702 267.047 19.4323 267.271C19.506 267.536 19.5742 267.819 19.7327 268.423L25.5362 266.901C25.4144 266.437 25.2992 265.974 25.214 265.667C25.1172 265.318 24.9937 264.917 24.7869 264.489C24.5802 264.061 24.3431 263.715 24.1299 263.422C23.9424 263.165 23.6518 262.787 23.364 262.403L18.563 266.002ZM13.1675 106.602C17.2367 108.386 19.9619 111.497 19.9619 114.707H25.9619C25.9619 108.004 20.5862 103.303 15.5768 101.107L13.1675 106.602ZM38.2245 435.195C36.0697 433.857 34.4666 432.862 33.344 432.155C32.7822 431.801 32.3537 431.527 32.043 431.324C31.696 431.097 31.5897 431.017 31.6005 431.026L27.8622 435.719C28.2555 436.032 29.0908 436.567 30.1466 437.232C31.2895 437.952 32.9127 438.959 35.0596 440.292L38.2245 435.195ZM22.9619 422.877C22.9619 424.92 22.9558 426.26 23.0508 427.068L29.0098 426.368C28.968 426.012 28.9619 425.18 28.9619 422.877H22.9619ZM31.6005 431.026C29.9383 429.702 29.6609 429.382 29.5218 429.132C29.3828 428.882 29.2578 428.478 29.0098 426.368L23.0508 427.068C23.2615 428.861 23.45 430.56 24.2783 432.049C25.1065 433.538 26.4503 434.594 27.8622 435.719L31.6005 431.026ZM11.1326 560.89C12.9641 561.884 14.3313 562.627 15.2793 563.145C15.7538 563.405 16.1161 563.604 16.3759 563.749C16.6705 563.914 16.7554 563.966 16.7395 563.955L19.9775 558.904C19.5499 558.63 17.548 557.546 13.9957 555.617L11.1326 560.89ZM25.9619 572.006C25.9619 570.417 25.9643 569.41 25.9277 568.906L19.9435 569.341C19.9595 569.561 19.9619 570.234 19.9619 572.006H25.9619ZM16.7395 563.955C18.7563 565.248 19.1853 565.685 19.3881 566.025C19.5909 566.366 19.7697 566.952 19.9435 569.341L25.9277 568.906C25.7698 566.734 25.5849 564.706 24.5446 562.958C23.5042 561.209 21.8104 560.079 19.9775 558.904L16.7395 563.955ZM28.9619 422.877C28.9619 420.575 28.968 419.742 29.0098 419.387L23.0508 418.686C22.9558 419.494 22.9619 420.834 22.9619 422.877H28.9619ZM35.0596 405.462C32.9127 406.795 31.2895 407.803 30.1466 408.523C29.0908 409.188 28.2555 409.722 27.8622 410.036L31.6005 414.729C31.5897 414.737 31.696 414.658 32.043 414.43C32.3537 414.227 32.7822 413.954 33.344 413.6C34.4666 412.893 36.0697 411.897 38.2245 410.559L35.0596 405.462ZM29.0098 419.387C29.2578 417.276 29.3828 416.872 29.5218 416.622C29.6609 416.372 29.9383 416.053 31.6005 414.729L27.8622 410.036C26.4503 411.16 25.1065 412.216 24.2783 413.706C23.45 415.195 23.2615 416.894 23.0508 418.686L29.0098 419.387ZM19.9619 114.707C19.9619 117.917 17.2367 121.029 13.1675 122.813L15.5768 128.308C20.5862 126.112 25.9619 121.41 25.9619 114.707H19.9619ZM28.9619 274.23C28.9619 272.318 28.9624 270.97 29.0023 269.938C29.0427 268.895 29.1191 268.375 29.2009 268.07L23.4058 266.515C23.1462 267.483 23.0518 268.543 23.0068 269.706C22.9614 270.881 22.9619 272.366 22.9619 274.23H28.9619ZM37.4745 251.659C33.8605 254.686 31.119 256.982 29.1887 258.655C28.2243 259.491 27.4338 260.196 26.8252 260.774C26.267 261.304 25.6976 261.878 25.3177 262.42L30.2304 265.865C30.2288 265.867 30.3961 265.657 30.9566 265.125C31.4666 264.641 32.1768 264.005 33.1185 263.189C35.0008 261.557 37.6944 259.301 41.327 256.259L37.4745 251.659ZM29.2009 268.07C29.3486 267.519 29.4104 267.269 29.4787 267.026C29.5355 266.824 29.5436 266.827 29.5206 266.876C29.4976 266.925 29.49 266.921 29.6086 266.748C29.7512 266.539 29.9032 266.331 30.2304 265.865L25.3177 262.42C25.0703 262.773 24.8161 263.127 24.6562 263.36C24.4723 263.629 24.2661 263.948 24.0839 264.338C23.9017 264.728 23.79 265.091 23.702 265.404C23.6254 265.677 23.5174 266.099 23.4058 266.515L29.2009 268.07ZM19.9619 274.579C19.9619 276.492 19.9614 277.843 19.923 278.875C19.8841 279.922 19.8102 280.439 19.7327 280.734L25.5362 282.257C25.7861 281.305 25.876 280.253 25.9189 279.098C25.9624 277.928 25.9619 276.445 25.9619 274.579H19.9619ZM10.9555 297.148C14.6462 294.218 17.4445 291.997 19.4147 290.38C20.3991 289.573 21.205 288.893 21.8253 288.336C22.3927 287.828 22.9736 287.276 23.364 286.755L18.563 283.156C18.5666 283.151 18.3948 283.354 17.8196 283.869C17.2973 284.338 16.5707 284.953 15.6085 285.742C13.6854 287.32 10.9341 289.504 7.22516 292.449L10.9555 297.148ZM19.7327 280.734C19.5742 281.338 19.506 281.621 19.4323 281.887C19.3702 282.111 19.3594 282.11 19.3841 282.059C19.4087 282.008 19.416 282.016 19.2793 282.204C19.1169 282.427 18.9376 282.656 18.563 283.156L23.364 286.755C23.6518 286.371 23.9424 285.993 24.1299 285.735C24.3431 285.443 24.5802 285.097 24.7869 284.669C24.9937 284.241 25.1172 283.84 25.214 283.491C25.2992 283.184 25.4144 282.721 25.5362 282.257L19.7327 280.734Z" fill="#5ED76A" mask="url(#path-1-inside-1_3164_49386)"/>
</svg>
