<svg width="137" height="98" viewBox="0 0 137 98" fill="none" xmlns="http://www.w3.org/2000/svg">
<g clip-path="url(#clip0_3167_8627)">
<path d="M91.9624 0.355957H13.3174V80.4314H91.9624V0.355957Z" fill="#FFCC00"/>
<path d="M131.066 92.3459C128.922 91.2158 127.075 92.1768 127.622 87.1029C128.013 83.4674 126.005 80.6586 123.28 78.8235C120.397 76.8793 116.773 76.451 113.597 75.188C113.085 74.9825 112.577 74.7618 112.073 74.5257C109.734 73.4572 107.292 71.8655 105.446 70.0399C105.433 70.0314 105.422 70.0198 105.411 70.0051C104.863 69.4546 104.335 68.8842 103.829 68.2948C103.476 62.625 105.327 56.7371 105.537 51.9478C105.612 50.2407 105.484 48.502 105.221 46.8202C104.684 43.3696 102.275 39.2758 104.624 36.0987C104.897 35.7304 105.206 35.4759 105.612 35.0839C106.857 33.87 108.033 32.3178 108.229 30.5237C108.274 30.1049 108.269 29.7619 108.293 29.5184C108.624 29.1359 108.825 28.5479 108.762 28.0469C108.739 27.7982 108.632 27.5647 108.459 27.3846C108.245 27.185 107.965 27.0704 107.673 27.0621C107.741 27.2706 107.756 27.4928 107.717 27.7086C107.676 27.9016 107.592 28.0831 107.472 28.2397C107.424 28.3032 107.373 28.3649 107.32 28.4246C107.339 28.3025 107.338 28.178 107.316 28.0563C107.274 27.8774 107.195 27.7097 107.082 27.5648C106.971 27.4176 106.843 27.284 106.701 27.1664C106.697 27.1612 106.69 27.1559 106.68 27.1506C106.129 27.2407 105.572 27.2755 104.957 27.266C104.559 27.2581 104.162 27.2364 103.766 27.2012C102.91 27.1317 101.913 27.002 100.668 26.8471C98.5526 26.5848 96.3998 26.4204 94.3023 26.9325C91.3275 27.6628 88.9786 29.7081 87.9813 32.7019C87.2636 34.8642 87.1214 37.1577 86.6488 39.3753C86.3548 40.7331 85.2847 42.6868 82.9943 45.5019C80.6439 45.965 77.8699 45.5478 77.089 45.4229C76.831 45.3839 76.5747 45.3344 76.3208 45.2743C76.2408 45.3586 76.1675 45.4482 76.1011 45.543C75.9667 45.7195 75.8811 45.9283 75.853 46.1484C75.8435 46.259 75.853 46.3686 75.8814 46.4772C75.3977 46.0504 75.3487 45.5873 75.4562 45.1984C75.472 45.1447 75.4905 45.0904 75.5115 45.0356L75.423 45.004C75.1195 44.895 74.8856 44.8807 74.7054 44.9408C74.6188 44.9708 74.5397 45.0192 74.4736 45.0828C74.4076 45.1464 74.3561 45.2236 74.3229 45.3091C74.2913 45.3828 74.2639 45.4571 74.2407 45.532C74.1568 45.8101 74.1624 46.1075 74.2565 46.3823C74.2871 46.4824 74.3276 46.5804 74.3782 46.6763C74.413 46.7501 74.4536 46.8212 74.4999 46.8897C74.5221 46.9287 74.5484 46.9688 74.579 47.0099C74.9109 47.4825 75.5843 48.4514 77.6454 49.3318C77.0448 49.4425 75.8135 49.237 74.4304 48.0531C72.7502 50.3766 77.127 53.0874 78.6823 54.2745C78.8183 56.8462 77.2013 58.9216 75.8972 60.1134C73.561 62.252 70.5436 63.7141 67.9592 65.5145C64.545 67.8918 61.4185 70.5283 59.0681 74.0341C58.6524 74.6506 58.3062 75.3018 58.028 75.9689C57.1871 77.9731 56.9374 80.1512 57.1539 82.2551C57.4369 84.9991 58.1798 88.1335 55.3409 89.8137C54.2329 90.4713 48.0968 92.0867 46.3818 96.8065C50.6764 94.4434 53.1865 95.9119 56.43 95.2353C59.351 94.6236 60.9823 92.4344 60.7736 89.9876C60.9538 92.6083 62.0634 95.0504 64.5925 96.0557C65.9218 96.5821 67.3823 96.7022 68.7938 96.5583C70.0646 96.4287 71.3592 95.8708 72.6427 96.1158C75.374 96.6279 77.9536 97.3676 80.6992 96.6168C81.5638 96.3797 82.3115 96.1505 83.0133 95.896C84.2604 96.3386 85.4996 96.7022 86.7025 96.9756C88.5677 97.3977 90.4012 97.6221 92.1542 97.6427C94.2928 97.6664 96.3113 97.3882 98.1574 96.816C99.041 96.5425 99.8756 96.19 100.668 95.7917C101.733 96.0114 102.812 96.1395 103.897 96.209H104.028C104.161 96.209 104.36 96.209 104.591 96.1995C105.098 96.4287 105.738 96.6927 106.427 96.7022C107.208 96.7117 107.867 96.3829 108.332 95.757C108.593 95.4233 108.737 95.0126 108.74 94.5889C108.743 94.1652 108.607 93.7523 108.351 93.4144C108.341 93.0895 108.275 92.7688 108.157 92.466C110.986 92.8723 113.931 92.4344 116.128 91.8686C115.176 94.4498 111.61 95.3096 109.206 94.8418C111.185 96.7417 114.09 97.08 116.646 96.443C118.076 96.0927 119.408 95.4249 120.544 94.4893C121.472 93.7179 122.367 92.564 123.715 92.956C124.512 93.1852 124.869 93.8965 125.419 94.4498C126.087 95.1212 126.901 95.6297 127.798 95.9356C130.309 96.8049 132.781 95.5878 135.443 96.8112C134.583 94.886 133.2 93.4745 131.057 92.3459H131.066Z" fill="white"/>
<path d="M86.1927 74.9985C85.6221 74.537 85.1574 74.7061 85.1574 74.7061C85.0989 74.9748 85.4893 75.4522 85.7675 76.1872C86.0457 76.9222 86.6274 77.281 86.7949 76.5302C86.9609 75.7857 86.5547 75.2814 86.1943 74.9938L86.1927 74.9985ZM80.8296 74.2825L80.8739 74.2524C81.1852 74.0738 81.4935 74.009 81.7179 73.96C81.9439 73.9094 82.0815 73.8857 82.0214 73.7862C81.9819 73.7103 81.8554 73.636 81.68 73.5917C81.2983 73.4921 80.8929 73.5418 80.5467 73.7308C79.9207 74.0896 79.5935 74.5907 79.701 74.7899C79.8085 74.9843 80.2226 74.6318 80.8233 74.2841L80.8296 74.2825ZM83.9608 76.3073C83.949 76.1427 83.8897 75.9852 83.7901 75.8536C84.1126 75.8299 84.3465 75.7256 84.3908 75.5517C84.4698 75.2419 83.9514 74.8404 83.2338 74.6508C82.5493 74.4722 81.9376 74.5512 81.8112 74.8246C81.8064 74.8404 81.7922 74.8499 81.7922 74.8641C81.7732 74.9421 81.7912 75.0238 81.846 75.1092C81.8935 75.1826 81.9509 75.2491 82.0167 75.3067H82.0072C81.9629 75.3225 81.9187 75.3478 81.8807 75.3668C81.8058 75.4074 81.7367 75.4579 81.6752 75.517C81.4998 75.517 81.25 75.517 80.9813 75.5407C80.5704 75.5865 80.112 75.6861 79.8243 75.9137C80.3351 75.8597 80.8509 75.8751 81.3575 75.9595C81.3417 75.989 81.327 76.0222 81.3133 76.0591C81.2448 76.0728 81.1584 76.0939 81.054 76.1223C80.5909 76.2425 79.8575 76.4954 79.5208 76.9285C80.0335 76.7364 80.5712 76.6192 81.1173 76.5807H81.1331C81.1173 76.6276 81.1057 76.6757 81.0983 76.7246C80.7506 76.8684 79.7848 77.3015 79.4766 77.9037C80.1515 77.5054 80.7411 77.3363 81.0303 77.2715C81.0112 77.5793 81.0844 77.8859 81.2406 78.1519C81.0446 78.1914 80.9023 78.291 80.8486 78.4364C80.7474 78.7336 81.0793 79.1272 81.5867 79.3058C81.6215 79.3152 81.6499 79.3152 81.68 79.3263C82.0704 79.4401 82.4276 79.3895 82.5968 79.2157C82.6379 79.1762 82.6758 79.1414 82.6963 79.0924C82.7438 78.9485 82.6963 78.7841 82.5699 78.6292C82.8813 78.5502 83.18 78.3558 83.4139 78.0571C83.5799 78.2467 83.9988 78.7683 84.337 79.5745C84.4493 78.8537 83.8391 77.8136 83.6921 77.575C83.709 77.536 83.7222 77.4964 83.7317 77.4564C83.9466 77.6303 84.4256 78.0681 84.8745 78.7683C84.8587 78.0223 84.0589 77.0881 83.8929 76.9032L83.9087 76.84C84.1853 76.9791 84.699 77.2762 85.2364 77.7836C85.0705 77.1624 84.2975 76.5507 83.9561 76.3025L83.9608 76.3073Z" fill="#1D1D1B"/>
<path d="M131.066 92.3461C128.921 91.2159 127.075 92.177 127.622 87.1031C128.012 83.4676 126.005 80.6588 123.28 78.8237C120.397 76.8795 116.772 76.4511 113.597 75.1882C113.085 74.9827 112.577 74.7619 112.073 74.5259C109.734 73.4574 107.292 71.8657 105.445 70.04C105.433 70.0316 105.421 70.02 105.411 70.0052C104.862 69.4548 104.335 68.8843 103.828 68.295C103.476 62.6252 105.327 56.7373 105.537 51.948C105.611 50.2409 105.483 48.5022 105.221 46.8203C104.684 43.3698 102.275 39.2759 104.624 36.0988C104.897 35.7305 105.205 35.4761 105.611 35.0841C106.857 33.8701 108.033 32.3179 108.229 30.5239C108.273 30.105 108.268 29.762 108.292 29.5186C108.624 29.1361 108.825 28.5481 108.762 28.047C108.738 27.7983 108.631 27.5649 108.458 27.3847C108.244 27.1852 107.965 27.0705 107.673 27.0623C107.741 27.2708 107.756 27.4929 107.717 27.7088C107.676 27.9018 107.592 28.0832 107.472 28.2399C107.424 28.3034 107.373 28.3651 107.32 28.4248C107.339 28.3026 107.337 28.1782 107.315 28.0565C107.274 27.8776 107.194 27.7099 107.081 27.5649C106.97 27.4178 106.843 27.2841 106.7 27.1666C106.696 27.1613 106.689 27.1561 106.68 27.1508C106.128 27.2409 105.572 27.2757 104.957 27.2662C104.559 27.2582 104.162 27.2366 103.765 27.2014C102.91 27.1318 101.913 27.0022 100.667 26.8473C98.5523 26.5849 96.3994 26.4205 94.3019 26.9327C91.3271 27.6629 88.9783 29.7083 87.9809 32.702C87.2633 34.8643 87.121 37.1579 86.6484 39.3755C86.3544 40.7333 85.2843 42.687 82.994 45.5021C80.6436 45.9652 77.8695 45.5479 77.0887 45.4231C76.8307 45.3841 76.5744 45.3345 76.3205 45.2745C76.2404 45.3588 76.1672 45.4483 76.1008 45.5432C75.9664 45.7197 75.8808 45.9285 75.8526 46.1486C75.8431 46.2592 75.8526 46.3688 75.8811 46.4773C75.3974 46.0506 75.3484 45.5874 75.4559 45.1986C75.4717 45.1449 75.4901 45.0906 75.5112 45.0358L75.4227 45.0042C75.1192 44.8951 74.8853 44.8809 74.7051 44.941C74.6184 44.9709 74.5393 45.0194 74.4733 45.083C74.4072 45.1466 74.3558 45.2238 74.3226 45.3092C74.2909 45.383 74.2635 45.4573 74.2404 45.5321C74.1565 45.8103 74.162 46.1077 74.2562 46.3825C74.2867 46.4826 74.3273 46.5806 74.3779 46.6765C74.4127 46.7503 74.4532 46.8214 74.4996 46.8899C74.5217 46.9289 74.5481 46.9689 74.5786 47.01C74.9106 47.4826 75.5839 48.4516 77.6451 49.332C77.0444 49.4426 75.8131 49.2371 74.43 48.0532C72.7498 50.3768 77.1266 53.0876 78.682 54.2747C78.8179 56.8464 77.2009 58.9218 75.8969 60.1136C73.5607 62.2522 70.5432 63.7143 67.9589 65.5146C64.5447 67.8919 61.4182 70.5284 59.0677 74.0343C58.652 74.6508 58.3059 75.302 58.0277 75.969C57.1868 77.9733 56.937 80.1514 57.1536 82.2552C57.4365 84.9993 58.1794 88.1337 55.3406 89.8139C54.2326 90.4714 48.0965 92.0869 46.3815 96.8067C50.6761 94.4436 53.1862 95.912 56.4297 95.2355C59.3507 94.6238 60.9819 92.4346 60.7733 89.9878C60.9535 92.6085 62.0631 95.0506 64.5921 96.0559C65.9214 96.5822 67.3819 96.7023 68.7935 96.5585C70.0643 96.4289 71.3588 95.8709 72.6423 96.1159C75.3737 96.6281 77.9533 97.3678 80.6989 96.617C81.5635 96.3799 82.3111 96.1507 83.0129 95.8962C84.2601 96.3388 85.4993 96.7023 86.7022 96.9758C88.5673 97.3978 90.4009 97.6223 92.1538 97.6428C94.2924 97.6665 96.3109 97.3883 98.1571 96.8161C99.0407 96.5427 99.8753 96.1902 100.667 95.7919C101.733 96.0116 102.812 96.1396 103.896 96.2092H104.028C104.16 96.2092 104.36 96.2092 104.59 96.1997C105.098 96.4289 105.738 96.6929 106.427 96.7023C107.208 96.7118 107.867 96.3831 108.332 95.7571C108.593 95.4234 108.736 95.0128 108.74 94.5891C108.743 94.1654 108.606 93.7525 108.351 93.4146C108.341 93.0897 108.275 92.7689 108.156 92.4662C110.986 92.8724 113.93 92.4346 116.127 91.8687C115.176 94.4499 111.61 95.3098 109.206 94.8419C111.185 96.7419 114.09 97.0801 116.646 96.4431C118.075 96.0928 119.408 95.4251 120.544 94.4894C121.472 93.7181 122.366 92.5642 123.715 92.9562C124.511 93.1854 124.868 93.8967 125.419 94.4499C126.087 95.1214 126.901 95.6298 127.797 95.9357C130.309 96.8051 132.781 95.588 135.443 96.8114C134.583 94.8862 133.2 93.4747 131.057 92.3461H131.066ZM87.4403 40.5009C88.2939 38.729 88.7333 36.739 89.2122 35.2532L89.364 34.8201C90.1021 35.1188 91.0395 34.5814 91.4741 33.5872C91.8503 32.7321 91.7334 31.8216 91.2402 31.3537C92.9947 29.076 95.5238 27.5602 98.5823 27.9032C101.541 28.2304 102.954 28.2509 106.299 27.7293C105.235 28.9922 103.221 29.1361 101.908 28.9227C102.26 29.2246 102.426 29.5581 102.426 29.5581C102.426 29.5581 101.303 32.2784 98.3863 30.6677C99.6319 31.0107 100.667 31.1403 101.693 29.3495C100.443 28.2604 98.7372 28.8373 98.361 29.389C97.8679 30.1208 97.185 30.3532 96.1924 31.4027C95.206 32.4523 94.8346 34.4534 94.8346 34.4534C94.8346 34.4534 94.4347 33.6757 95.1128 31.8959C93.9843 32.8581 93.0865 34.0616 92.4858 35.4176C91.6749 37.2069 91.3366 41.982 93.6918 46.2387C92.3293 45.0152 91.1232 42.9968 90.9573 40.1168C89.4035 44.334 93.0722 48.5369 94.7619 52.0823C96.4532 55.623 96.921 57.5577 97.5707 59.1241C98.7277 61.9187 99.5433 63.4108 101.073 65.3913C98.1334 63.542 96.1639 57.398 94.9231 54.7078L94.6591 54.1356C93.7108 52.0776 92.6565 49.8994 90.9952 48.333C90.7345 48.0869 90.4601 47.8558 90.1733 47.6407C88.9688 46.7461 87.1811 45.4831 83.9771 45.5416C84.9034 44.3482 85.896 43.6922 87.4388 40.4993M99.673 29.7762C99.693 29.8676 99.7351 29.9525 99.7958 30.0237C99.8564 30.0948 99.9337 30.1499 100.021 30.1841C99.997 30.1999 99.9764 30.2236 99.9527 30.2378C99.5955 30.4528 99.2446 30.3816 99.1703 30.0845C99.0976 29.7842 99.3284 29.3732 99.684 29.1598C99.7077 29.144 99.7283 29.144 99.7472 29.1345C99.6568 29.3356 99.6298 29.56 99.673 29.7762ZM66.4936 82.8464C64.1148 83.8422 62.1848 85.2585 60.729 87.4524C60.9535 87.1142 59.2732 82.8369 59.1958 82.0861C58.2189 72.686 66.8461 68.2713 73.3568 64.0193C77.909 61.0446 79.7995 58.1599 79.3111 55.0065C81.3422 57.0202 82.3744 59.7864 81.8654 63.621C81.2252 68.4483 81.8559 70.1396 81.8559 70.1396C81.8559 70.1396 78.3042 70.9552 76.3395 76.3816C74.7873 79.7325 72.7941 80.5481 71.2071 81.1156C72.3262 80.1562 73.009 78.7984 73.1861 77.7994C71.0364 80.2858 69.1017 81.7573 66.4936 82.8464ZM87.2159 95.46C86.1888 95.2362 85.1742 94.9587 84.1763 94.6285L83.8191 94.5131C84.2648 94.3298 84.7137 94.1306 85.1974 93.9078C85.8518 93.598 86.3149 92.8282 86.6374 91.9778C86.9161 91.2149 87.1034 90.4217 87.1953 89.6147C87.2491 89.1627 87.2491 88.8639 87.2048 88.8687C87.1748 88.8687 87.1116 89.0093 87.0199 89.237C86.9456 89.4156 86.8476 89.6495 86.7401 89.9182C86.4619 90.59 86.0715 91.4546 85.5878 92.1659C85.2464 92.6733 84.8544 93.0969 84.4308 93.3008C82.9892 93.9773 82.2463 94.5037 80.8048 94.9605C80.6436 95.0111 80.4839 95.0616 80.3021 95.1106C78.5935 95.5785 77.6546 95.5374 76.3505 95.2102C76.3284 95.2039 76.3021 95.197 76.2715 95.1897C76.1656 95.1596 76.0629 95.1359 75.9554 95.1059C75.5437 94.99 75.1264 94.895 74.7051 94.8214C74.3621 94.7629 74.0728 94.7329 73.8057 94.7028C73.4199 94.6668 73.0366 94.6071 72.6581 94.5242C72.3578 94.4547 72.1771 94.3451 72.116 94.1954C72.0622 94.0553 72.0865 93.853 72.1887 93.5885C72.2804 93.3461 72.4353 93.0547 72.6534 92.7144C73.3963 91.5542 75.1002 91.6237 76.3316 92.0426C77.909 92.5737 78.9001 92.1659 79.4676 91.4846L79.6478 91.2712C80.3907 90.4303 80.1757 89.4456 79.9417 88.2838C79.8185 87.6753 79.6873 87.0193 79.6825 86.308C79.6825 86.1389 79.6825 85.9698 79.6968 85.7959C79.6335 85.7706 79.4865 85.9856 79.349 86.3633C79.1894 86.8059 79.0566 87.4761 79.1119 88.287C79.1109 88.3544 79.1135 88.4229 79.1198 88.4925L79.1498 88.7754C79.281 90.0526 79.281 90.0779 78.7341 90.7149L78.5492 90.933C78.5302 90.9541 78.5123 90.9757 78.4955 90.9978C78.3058 90.8634 77.7826 90.4161 77.2831 89.4108C77.2831 89.3708 77.2705 89.3328 77.2452 89.297L77.1962 89.2227C77.0897 88.9829 76.9932 88.7387 76.9069 88.4909C76.7262 87.9492 76.5878 87.3943 76.4928 86.8312C76.4309 86.4663 76.3819 86.0994 76.3458 85.7311C76.2317 84.527 76.2369 83.3145 76.3616 82.1114C76.575 80.0771 77.1614 78.1282 78.1825 76.0686C78.2246 75.9927 78.2652 75.9148 78.3042 75.8347C78.4654 75.5106 78.6267 75.1929 78.8132 74.8642C79.2874 74.0248 79.8185 73.4226 80.3654 72.9848C80.6499 72.7561 80.9381 72.5717 81.23 72.4315C81.5303 72.2872 81.8285 72.1797 82.1246 72.1091C82.5451 72.0048 82.9545 71.9747 83.3354 71.9795C84.0296 71.9994 84.7147 72.1429 85.3586 72.4031C87.6932 73.3625 88.7965 75.3225 88.2449 77.5054C88.1089 78.0476 87.9525 78.5486 87.8007 79.0386C87.17 81.0714 86.9993 82.5888 88.9198 83.8865C89.7544 84.4476 90.6048 84.6262 92.1538 85.1747C93.0137 89.4614 90.3266 93.9267 87.2048 95.4536L87.2159 95.46ZM107.105 94.8119C107.046 94.8938 106.971 94.9636 106.885 95.0174C106.446 95.2892 105.806 95.0411 105.03 94.6823C104.896 94.6222 104.771 94.5658 104.654 94.5131C104.364 94.388 104.068 94.2804 103.765 94.1907C103.307 94.0513 102.831 93.982 102.352 93.9852C102.608 93.8163 102.789 93.5545 102.856 93.255C102.904 93.0273 102.866 92.8377 102.812 92.7839C102.803 92.7729 102.724 92.8282 102.588 92.923C102.221 93.1807 101.405 93.7687 100.15 94.3598C99.6129 94.6127 98.9869 94.872 98.2883 95.1059C97.234 95.4584 95.2218 95.7429 93.1354 95.8962C97.0238 94.7376 99.379 90.9772 100.365 89.8487C102.025 90.0225 103.071 91.4056 103.511 91.7296C104.018 92.1027 104.546 92.3208 105.572 92.4994C106.651 92.6843 106.808 92.9262 106.832 93.4241C106.446 93.2265 105.532 93.0716 105.109 93.3198C106.089 93.3846 107.047 94.0864 107.194 94.4547C107.228 94.5337 107.247 94.6475 107.126 94.8182L107.105 94.8119ZM111.395 81.0761C109.313 80.9465 107.995 80.3111 106.96 79.4796C106.114 78.7984 105.455 77.9875 104.742 77.2114C104.126 76.546 103.172 76.0986 102.66 77.0976C102.216 77.9733 102.63 78.9675 102.708 79.8732C102.85 81.4491 102.107 82.9713 101.284 84.2548C101.034 84.642 100.643 85.298 100.134 86.0883C100.53 84.7021 100.882 83.0061 101.004 81.0761C100.179 84.1441 98.4985 87.6611 97.1945 90.1379C95.3625 92.2813 93.0911 94.2207 90.619 94.4942C92.7292 92.1469 93.4768 89.6005 93.7993 87.601C93.5843 85.6663 93.3061 81.0571 95.1128 78.0918C94.7571 79.1967 94.6449 80.5987 94.6639 82.0008C94.8061 81.4981 94.9674 81.0065 95.1855 80.5339C95.8857 79.0228 97.1155 78.0476 98.2361 76.8795C99.3631 75.7003 98.5681 74.3773 97.3067 73.7498C95.4068 72.8062 91.2149 68.4847 90.0136 60.7063C89.511 62.8876 89.6769 65.5952 89.9741 67.2202C87.9272 62.9587 89.081 57.9007 88.4314 53.3263C88.0647 50.7593 86.7938 48.8056 84.249 48.1339C83.6693 47.9861 83.0781 47.8878 82.4818 47.8399C82.4518 47.8399 82.4218 47.8304 82.387 47.8304C82.0408 47.9442 81.6599 48.1481 81.377 48.5417C81.5335 48.7946 81.7184 48.989 81.9191 49.1376C82.1246 49.2925 82.3491 49.4015 82.5735 49.4758C82.6642 49.4168 82.7409 49.3387 82.7982 49.247C82.8555 49.1552 82.8921 49.0521 82.9055 48.9447C82.9355 48.6613 82.8746 48.3757 82.7316 48.1291C82.76 48.1386 82.7885 48.1386 82.8185 48.1528C83.3069 48.382 83.6531 48.8847 83.5946 49.2767C83.5833 49.3488 83.5542 49.417 83.5101 49.4752C83.466 49.5334 83.4081 49.5798 83.3417 49.6102C83.9218 49.6355 84.3818 49.5059 84.3818 49.5059C84.3818 49.5059 83.0619 50.2962 82.2274 49.8741C81.6852 49.5909 81.1615 49.2736 80.6594 48.9242L80.5661 48.861C80.5661 48.861 80.7036 48.5022 81.0356 48.1781C81.2064 48.0071 81.4109 47.8736 81.6362 47.7861C81.6014 47.7861 81.573 47.7798 81.5335 47.7798C81.4355 47.7798 81.3485 47.7703 81.2553 47.764C78.2947 47.6012 77.8316 46.373 77.8316 46.373C78.9444 46.8061 80.3606 46.7713 81.9444 46.6907C82.368 46.6718 82.8043 46.6465 83.2485 46.6307C83.4845 46.6201 83.7216 46.6122 83.9598 46.607C86.2912 46.5516 88.2797 47.4763 90.0437 49.7746C89.962 49.8035 89.8856 49.8457 89.8176 49.8994C89.3055 50.3262 89.4462 51.3663 90.1353 52.2167C90.1511 52.2356 90.1659 52.252 90.1796 52.2657C90.4768 52.6245 90.8292 52.8821 91.1659 53.0275C91.5516 53.1919 91.9246 53.2062 92.1965 53.0465C92.2471 53.1382 92.2977 53.2309 92.3482 53.3247C92.9979 54.5197 93.6444 55.8474 94.5422 57.643C95.696 59.9555 96.6523 62.3865 98.0686 64.5504C99.6176 66.9072 102.09 68.4641 104.243 70.2487C106.305 71.9558 108.077 73.7703 110.353 75.223C113.515 77.2414 117.31 76.9079 120.446 79.3895C115.938 79.7689 114.223 81.261 111.379 81.0856L111.395 81.0761ZM9.52717 55.1646L1.5133 54.3063C1.81678 52.879 2.25146 51.7614 2.82207 50.9395C3.39427 50.1228 4.21515 49.4137 5.28472 48.812C6.05397 48.3768 7.11089 48.0417 8.45549 47.8067C9.79799 47.5685 11.2532 47.4494 12.8212 47.4494C15.3324 47.4494 17.3503 47.5917 18.8751 47.8762C20.3988 48.1649 21.6686 48.7619 22.6845 49.6671C23.3958 50.2993 23.9595 51.1898 24.3758 52.3384C24.7857 53.4912 24.9906 54.5919 24.9906 55.6403V65.472C24.9906 66.5215 25.0554 67.3419 25.185 67.933C25.3168 68.5273 25.6018 69.285 26.0402 70.206H18.1749C17.8588 69.6327 17.6538 69.197 17.56 68.8988C17.4641 68.5985 17.3682 68.1274 17.2723 67.4857C16.1733 68.5605 15.0826 69.3298 14.0004 69.7934C12.5188 70.4099 10.7959 70.7181 8.83169 70.7181C6.22468 70.7181 4.24466 70.1033 2.89162 68.8735C1.53964 67.6438 0.864182 66.1263 0.865236 64.3213C0.865236 62.63 1.35207 61.239 2.32575 60.1483C3.30259 59.0588 5.10031 58.2484 7.71891 57.7173C10.8633 57.0745 12.9018 56.6235 13.8344 56.3643C14.767 56.1051 15.7554 55.7668 16.7997 55.3495C16.7997 54.3 16.5848 53.5697 16.1596 53.1461C15.7338 52.7288 14.9867 52.5202 13.9182 52.5202C12.5452 52.5202 11.5156 52.7441 10.8296 53.1919C10.2922 53.5397 9.86385 54.1956 9.53033 55.1598L9.52717 55.1646ZM16.795 59.652C15.6411 60.0714 14.4398 60.4408 13.1911 60.7601C11.4893 61.2237 10.4108 61.6779 9.95553 62.1226C9.48871 62.5841 9.25583 63.1084 9.25688 63.6953C9.25688 64.3645 9.4866 64.9129 9.94604 65.3408C10.4034 65.7675 11.0794 65.9815 11.974 65.9825C12.8671 65.9825 13.7759 65.7533 14.5773 65.2918C15.3792 64.8281 15.9488 64.2659 16.286 63.6052C16.6232 62.9435 16.7913 62.0794 16.7902 61.013V59.652H16.795ZM30.3016 39.4846H38.7027V70.2202H30.3016V39.4846ZM54.1646 39.4846V47.9552H58.7753V54.202H54.1646V62.0894C54.1635 63.0378 54.2531 63.6658 54.4333 63.9735C54.7083 64.4477 55.1883 64.6848 55.8733 64.6848C56.495 64.6859 57.3596 64.5051 58.4671 64.1426L59.0836 70.0305C57.0129 70.4937 55.0719 70.7229 53.2747 70.7229C51.1882 70.7208 49.6513 70.4489 48.6639 69.9072C47.6766 69.3625 46.9453 68.5353 46.47 67.4256C45.9969 66.3171 45.7608 64.5199 45.7619 62.0341V54.2067H42.6749V47.96H45.7619V43.8724L54.1646 39.4909V39.4846ZM20.2487 14.2954H25.4063V21.3925C25.8804 20.8227 26.474 20.364 27.145 20.049C27.8218 19.7441 28.5573 19.5919 29.2995 19.6032C30.9212 19.6032 32.2648 20.2529 33.3301 21.5522C34.3902 22.8493 34.9208 24.7145 34.9218 27.1476C34.9218 28.7673 34.6795 30.1946 34.1947 31.4296C33.71 32.6646 33.0372 33.5861 32.1762 34.1942C31.3452 34.7955 30.3441 35.1161 29.3184 35.1093C28.4559 35.1158 27.6069 34.8944 26.8574 34.4676C26.2957 34.1336 25.6851 33.505 25.0254 32.5819V34.7758H20.2424V14.2954H20.2487ZM25.3731 27.3199C25.3731 28.6002 25.5876 29.5255 26.0165 30.0955C26.4475 30.6688 26.9933 30.9559 27.654 30.957C28.2641 30.9559 28.7768 30.6741 29.192 30.1113C29.6072 29.5476 29.8142 28.5992 29.8132 27.2662C29.8132 26.0933 29.6093 25.2314 29.2015 24.6802C28.7958 24.1323 28.3042 23.8573 27.7267 23.8552C27.0333 23.8552 26.4669 24.1418 26.0275 24.715C25.5871 25.2872 25.3668 26.156 25.3668 27.3215L25.3731 27.3199ZM42.0347 24.7498L37.1505 24.1776C37.3349 23.2292 37.6 22.4816 37.9456 21.9347C38.2944 21.3867 38.7949 20.9146 39.4472 20.5184C39.9151 20.2286 40.5595 20.0047 41.3803 19.8466C42.2012 19.6886 43.0885 19.609 44.0421 19.608C45.5754 19.608 46.8019 19.7028 47.7361 19.8956C48.6655 20.0853 49.4385 20.4831 50.0549 21.089C50.4891 21.5095 50.8326 22.1033 51.0855 22.8704C51.3363 23.6397 51.4622 24.3741 51.4633 25.0738V31.6288C51.4633 32.3295 51.5023 32.8764 51.5802 33.2695C51.6593 33.6657 51.8331 34.1715 52.1018 34.7869H47.3062C47.1144 34.4044 46.989 34.1125 46.93 33.9112C46.8492 33.6006 46.7901 33.2848 46.7529 32.966C46.0859 33.6826 45.4199 34.1947 44.755 34.5024C43.8519 34.9123 42.8019 35.1178 41.6048 35.1188C40.0125 35.1188 38.806 34.7094 37.9851 33.8907C37.1611 33.0698 36.749 32.0582 36.749 30.8558C36.7501 29.7283 37.0467 28.802 37.6389 28.0771C38.2333 27.35 39.3292 26.8094 40.9267 26.4553C42.8393 26.0285 44.0864 25.7251 44.6523 25.5543C45.2234 25.3826 45.8262 25.1576 46.4605 24.8794C46.4595 24.1787 46.3293 23.6897 46.0701 23.4126C45.8088 23.1333 45.3525 22.9937 44.7013 22.9937C43.8656 22.9937 43.2371 23.1433 42.8156 23.4426C42.4889 23.6755 42.2255 24.1128 42.0252 24.7545L42.0347 24.7498ZM46.4653 27.7388C45.7614 28.018 45.029 28.2652 44.2682 28.4801C43.2292 28.7889 42.5706 29.0924 42.2924 29.3906C42.0201 29.6714 41.8681 30.0474 41.8688 30.4385C41.8688 30.8874 42.011 31.2494 42.2892 31.5387C42.5685 31.8232 42.9805 31.9654 43.5253 31.9654C44.087 31.963 44.6368 31.8031 45.1122 31.5039C45.6001 31.1962 45.9468 30.8216 46.1523 30.3801C46.3578 29.9375 46.4605 29.3621 46.4605 28.654V27.7435L46.4653 27.7388ZM53.6224 30.6646L58.6916 30.1303C58.9023 30.8016 59.1958 31.281 59.572 31.5687C59.9482 31.8564 60.4492 32.0002 61.0752 32.0002C61.7601 32.0002 62.2912 31.8379 62.6685 31.5134C62.8072 31.4071 62.9191 31.2698 62.9954 31.1126C63.0717 30.9553 63.1102 30.7824 63.1079 30.6077C63.1089 30.1988 62.9166 29.8827 62.5309 29.6593C62.257 29.5012 61.5246 29.3052 60.3339 29.0713C58.5583 28.7288 57.3254 28.4106 56.6351 28.1166C55.947 27.8215 55.3659 27.3262 54.8917 26.6308C54.4145 25.9275 54.1671 25.0937 54.1836 24.244C54.1825 23.2672 54.438 22.4241 54.9502 21.715C55.4639 21.01 56.1625 20.4821 57.0603 20.1296C57.955 19.7818 59.1563 19.608 60.6642 19.608C62.2564 19.608 63.4309 19.7439 64.1875 20.0158C64.9441 20.2855 65.5763 20.7049 66.0842 21.274C66.59 21.8419 67.0094 22.6112 67.3424 23.5817L62.4978 24.1128C62.3713 23.6365 62.1627 23.2866 61.8718 23.0632C61.4494 22.7584 60.9383 22.6012 60.4176 22.6159C59.8486 22.6159 59.4202 22.7313 59.1563 22.9589C59.0321 23.0588 58.932 23.1855 58.8636 23.3295C58.7952 23.4734 58.7602 23.631 58.7611 23.7903C58.7611 24.1528 58.9287 24.4279 59.2638 24.6154C59.601 24.7999 60.3286 24.9674 61.4466 25.1181C63.1474 25.332 64.4109 25.6302 65.237 26.0127C66.0674 26.3942 66.7012 26.9379 67.1385 27.644C67.5779 28.3521 67.7977 29.1298 67.7977 29.977C67.7895 30.8566 67.5484 31.7183 67.099 32.4744C66.6354 33.2826 65.903 33.927 64.9019 34.4075C63.9008 34.8859 62.5378 35.1262 60.8128 35.1283C58.3744 35.1283 56.6399 34.7421 55.6093 33.9697C54.5766 33.1994 53.9138 32.1003 53.6208 30.6725L53.6224 30.6646ZM85.0346 28.7741H74.792C74.8847 29.6867 75.106 30.3664 75.4559 30.8132C75.949 31.4549 76.5939 31.7763 77.3906 31.7773C77.8943 31.7773 78.3716 31.6382 78.8227 31.3601C79.1008 31.1799 79.3933 30.8716 79.7157 30.4243L84.7517 30.9412C83.9814 32.4323 83.0519 33.5018 81.9634 34.1499C80.8727 34.7964 79.3158 35.1188 77.2784 35.1188C75.5112 35.1188 74.1223 34.8422 73.1118 34.289C72.1002 33.7368 71.2614 32.8569 70.5954 31.6493C69.9315 30.4406 69.5996 29.0212 69.5996 27.3911C69.5996 25.0738 70.2682 23.1929 71.6023 21.7608C72.9374 20.3277 74.7804 19.6101 77.1314 19.608C79.0408 19.608 80.5471 19.9294 81.6504 20.5722C82.7537 21.216 83.5957 22.1475 84.1763 23.3667C84.7527 24.587 85.0409 26.1755 85.0409 28.1324V28.7741H85.0346ZM79.8374 26.0475C79.7363 24.9495 79.4712 24.1623 79.0424 23.686C78.6135 23.2097 78.0466 22.9726 77.3416 22.9747C76.5302 22.9747 75.8821 23.333 75.3974 24.0496C75.0886 24.4964 74.8916 25.1623 74.8062 26.0475H79.8422H79.8374Z" fill="#1D1D1B"/>
</g>
<defs>
<clipPath id="clip0_3167_8627">
<rect width="135.935" height="98" fill="white" transform="translate(0.865234)"/>
</clipPath>
</defs>
</svg>
