<svg width="176" height="44" viewBox="0 0 176 44" fill="none" xmlns="http://www.w3.org/2000/svg">
<g clip-path="url(#clip0_3167_8650)">
<path d="M38.2228 0.125H12.9688L22.4817 9.52264C22.6969 9.5102 22.9125 9.5041 23.1281 9.50436C25.2927 9.50051 27.415 10.0939 29.2548 11.2174C31.0975 12.3417 32.5888 13.9529 33.5621 15.8707C33.7496 15.8582 33.9374 15.8521 34.1253 15.8524C35.6871 15.8504 37.218 16.2806 38.5437 17.0939C39.8738 17.9103 40.9466 19.0758 41.6416 20.4595L44.6297 17.5118V6.77217C44.6006 5.07049 43.9254 3.44265 42.7392 2.21421C41.5487 0.983106 39.9379 0.237953 38.2228 0.125Z" fill="#00B4FF"/>
<path d="M41.6488 20.4595L29.502 32.4438L40.2119 43.0069C41.4983 42.53 42.6084 41.681 43.3964 40.5715C44.1876 39.4579 44.6218 38.1362 44.6429 36.7771V17.5083L41.6488 20.4595Z" fill="#FF6E6E"/>
<path d="M5.54878 28.5469C5.22491 27.7634 5.05907 26.9253 5.06052 26.0794C5.06052 22.5633 7.86409 19.7131 11.3209 19.7131H11.5611C11.8666 17.0075 13.1322 14.4984 15.131 12.635C17.1398 10.7694 19.747 9.66723 22.4937 9.52232L12.9761 0.130371H7.13127C5.39233 0.237634 3.75908 0.996225 2.56173 2.25288C1.36979 3.50517 0.706536 5.16327 0.70801 6.88638V33.3247L5.54878 28.5469Z" fill="#23D3FF"/>
<path d="M29.491 32.4435H11.318C10.3728 32.4445 9.44035 32.2278 8.59519 31.8108C7.21387 31.1258 6.1302 29.9659 5.54572 28.5469L0.705078 33.3236V36.6758C0.707394 38.0158 1.11089 39.3253 1.86507 40.4405C2.61612 41.5517 3.68564 42.4178 4.93764 42.9287C5.77093 43.2701 6.6645 43.4457 7.56695 43.4456H37.7758C38.6039 43.4451 39.4251 43.2972 40.1998 43.0089L29.491 32.4435Z" fill="#00F5D0"/>
<path d="M44.6031 6.77217C44.5732 5.06928 43.8972 3.44035 42.7101 2.21082C41.5167 0.979111 39.9024 0.235048 38.1845 0.125H7.08558C5.34873 0.234806 3.71843 0.994123 2.52293 2.24968C1.33283 3.50076 0.668958 5.15584 0.666992 6.87653V36.6843C0.668161 37.5727 0.846237 38.4522 1.19113 39.273C1.53526 40.0922 2.03998 40.8365 2.67642 41.4633C3.96569 42.7333 5.7082 43.446 7.52419 43.446H37.7413C38.5694 43.4459 39.3906 43.298 40.1651 43.0095H40.1732C41.4597 42.5327 42.5695 41.6835 43.3568 40.5735C44.1472 39.4595 44.5802 38.1374 44.5996 36.7783V6.77217H44.6031Z" fill="url(#paint0_radial_3167_8650)"/>
<path d="M41.6767 20.4734C40.9821 19.0896 39.9096 17.9238 38.5798 17.1071C37.2542 16.2936 35.7234 15.8632 34.1616 15.8651C33.9724 15.8651 33.7842 15.872 33.5995 15.8834C32.6267 13.9649 31.1354 12.3529 29.2925 11.228C27.4525 10.1038 25.3296 9.50996 23.1644 9.51369C22.9439 9.51369 22.7338 9.51369 22.5191 9.53197C19.771 9.67967 17.1634 10.7861 15.1564 12.6562C13.1578 14.5192 11.8924 17.0279 11.5864 19.733C11.5069 19.733 11.4272 19.7273 11.3464 19.7273C7.88374 19.7273 5.08595 22.5775 5.08595 26.0936C5.08404 26.9399 5.24989 27.7785 5.57421 28.5622C6.15881 29.9815 7.24236 31.1418 8.62368 31.8273C9.46908 32.2435 10.4013 32.4597 11.3464 32.4588H29.5298L41.6778 20.4745L41.6767 20.4734Z" fill="white"/>
<path fill-rule="evenodd" clip-rule="evenodd" d="M37.9309 19.6445C39.2334 19.6252 40.5222 19.9074 41.6937 20.4684L29.541 32.4528V27.5488H29.5526C29.6509 25.4176 30.5766 23.4069 32.1357 21.9389C33.7005 20.4659 35.7749 19.6455 37.9309 19.6468V19.6445Z" fill="#FFD12F"/>
<path d="M65.8185 21.9382L72.2959 13.1985H74.2903V30.5189H72.0936V16.903L72.0014 17.0254L65.9789 25.0188H65.4741L59.2747 17.0249L59.1829 16.9065V30.5189H56.9863V13.1985H59.0318L65.7365 21.9388L65.778 21.9929L65.8185 21.9382ZM104.089 17.6783H105.984V30.5189H103.964V20.7466L103.874 20.8562L95.8804 30.5189H94.0106V17.6783H96.0304V27.4762L96.1213 27.3656L104.089 17.6783ZM138.268 30.8182V35.4963H136.249V30.7677H136.046C133.822 30.7677 132.073 30.0622 130.881 28.8819C129.689 27.7012 129.049 26.0411 129.049 24.1234C129.049 20.615 131.58 17.4543 136.021 17.4543H136.249V12.4519H138.268V17.4543H138.521C140.657 17.4543 142.4 18.1718 143.608 19.3621C144.816 20.5525 145.494 22.2191 145.494 24.1234C145.494 26.0411 144.854 27.7012 143.658 28.8817C142.463 30.0622 140.709 30.7677 138.471 30.7677H138.268V30.8182ZM136.198 28.8775H136.249V19.3445H136.021C134.43 19.3445 133.222 19.8525 132.412 20.7075C131.603 21.5619 131.195 22.7574 131.195 24.1234C131.195 25.5514 131.609 26.7412 132.425 27.5742C133.242 28.4075 134.457 28.8775 136.046 28.8775H136.198ZM138.32 19.3445H138.268V28.8775H138.471C140.098 28.8775 141.32 28.4141 142.133 27.5836C142.947 26.7533 143.347 25.5634 143.347 24.1234C143.347 22.7944 142.935 21.599 142.115 20.7355C141.295 19.8714 140.075 19.3445 138.471 19.3445H138.32ZM158.474 17.6783H160.369V30.5189H158.35V20.7466L158.259 20.8562L150.266 30.5189H148.396V17.6783H150.416V27.4762L150.507 27.3656L158.474 17.6783ZM77.2052 24.0737C77.2052 22.1198 77.908 20.4469 79.1197 19.2627C80.3313 18.0783 82.0547 17.3796 84.1015 17.3796C86.1611 17.3796 87.8972 18.0784 89.1182 19.2628C90.3392 20.4472 91.0483 22.1199 91.0483 24.0737C91.0483 26.0149 90.3393 27.6815 89.1182 28.8627C87.8972 30.044 86.1611 30.7429 84.1015 30.7429C80.0616 30.7429 77.2052 27.9524 77.2052 24.0737ZM79.3514 24.0737C79.3514 26.8625 81.3181 28.8775 84.1015 28.8775C85.5158 28.8775 86.7167 28.3941 87.5641 27.5498C88.4116 26.7055 88.9021 25.5038 88.9021 24.0737C88.9021 21.1838 86.8329 19.2449 84.1015 19.2449C82.7375 19.2449 81.5493 19.7224 80.7019 20.5664C79.8546 21.4105 79.3514 22.6185 79.3514 24.0737ZM102.448 12.1035H104.341C104.303 13.2108 103.845 14.1062 103.118 14.7278C102.381 15.3595 101.364 15.711 100.225 15.711C98.996 15.711 97.9542 15.3713 97.217 14.7464C96.4916 14.1312 96.057 13.236 96.0325 12.1035H97.9266C97.9494 12.6904 98.1546 13.196 98.5345 13.5577C98.9249 13.9295 99.4944 14.1443 100.225 14.1443C100.93 14.1443 101.487 13.9293 101.868 13.5573C102.238 13.1956 102.437 12.6903 102.448 12.1035ZM109.202 21.8587C109.202 16.8341 113.121 12.9746 118.145 12.9746C123.094 12.9746 127.062 16.6854 127.062 21.8587C127.062 26.9575 123.094 30.7429 118.145 30.7429C113.171 30.7429 109.202 27.0319 109.202 21.8587ZM111.5 21.8587C111.5 25.843 114.529 28.6785 118.145 28.6785C121.888 28.6785 124.765 25.842 124.765 21.8587C124.765 17.8494 121.711 15.039 118.145 15.039C114.503 15.039 111.5 17.8495 111.5 21.8587ZM170.463 28.8775C172.054 28.8775 173.346 28.0902 174.164 26.9073L175.601 27.9216C174.591 29.7668 172.331 30.7429 170.261 30.7429C168.188 30.7429 166.445 30.0931 165.221 28.9369C163.998 27.781 163.289 26.1149 163.289 24.0737C163.289 20.2929 166.02 17.3796 170.135 17.3796C172.451 17.3796 174.512 18.4017 175.398 19.9514L173.835 20.9935C173.384 20.3986 172.881 19.9636 172.293 19.6763C171.689 19.3829 171 19.2449 170.185 19.2449C167.453 19.2449 165.435 21.2598 165.435 24.0737C165.435 25.5043 165.939 26.7062 166.821 27.5505C167.704 28.3947 168.961 28.8775 170.463 28.8775Z" fill="black" stroke="black" stroke-width="0.680374"/>
</g>
<defs>
<radialGradient id="paint0_radial_3167_8650" cx="0" cy="0" r="1" gradientUnits="userSpaceOnUse" gradientTransform="translate(22.6182 22.19) scale(21.9635 21.6639)">
<stop stop-color="#261C38" stop-opacity="0.6"/>
<stop offset="0.28" stop-color="#261C38" stop-opacity="0.3"/>
<stop offset="0.86" stop-color="#302640" stop-opacity="0.05"/>
<stop offset="1" stop-color="#302640" stop-opacity="0"/>
</radialGradient>
<clipPath id="clip0_3167_8650">
<rect width="175" height="43.75" fill="white" transform="translate(0.666992 0.125)"/>
</clipPath>
</defs>
</svg>
