<svg width="165" height="54" viewBox="0 0 165 54" fill="none" xmlns="http://www.w3.org/2000/svg">
<g clip-path="url(#clip0_3167_8618)">
<path d="M12.3418 24.1411L2.58203 24.1739V43.6549L5.87378 43.6303L5.85728 35.987H11.8468C13.7113 35.987 15.221 35.4545 16.3265 34.4059C17.4403 33.3409 18.0013 31.8827 18.0013 30.0641C18.0013 28.2536 17.498 26.8118 16.508 25.755C15.5098 24.6818 14.1073 24.1411 12.3418 24.1411ZM14.7013 30.1132C14.7013 32.1694 13.6948 33.087 11.4425 33.087H5.87378V27.033H11.7808C13.802 27.033 14.7013 27.9832 14.7013 30.1132ZM25.6985 29.9576C23.438 29.9576 21.656 30.6621 20.402 32.0466C19.2718 33.2836 18.6943 34.9548 18.6943 37.011C18.6943 39.0509 19.2883 40.7466 20.4598 42.041C21.1115 42.7373 21.8788 43.2535 22.745 43.5811C23.5948 43.8924 24.5848 44.0563 25.6985 44.0563C28.0663 44.0563 29.906 43.3681 31.1765 42.0082C32.315 40.7958 32.8925 39.1164 32.8925 37.011C32.8925 34.8974 32.3068 33.2017 31.16 31.9974C29.9143 30.6457 28.0745 29.9576 25.6985 29.9576ZM21.7385 37.011C21.7385 36.3065 21.8293 35.6675 22.019 35.1268C22.1923 34.6025 22.448 34.1601 22.778 33.8079C23.4793 33.0542 24.4363 32.6937 25.6985 32.6937C28.5283 32.6937 29.8483 34.0618 29.8483 37.011C29.8483 37.7319 29.7658 38.3709 29.6008 38.9034C29.4523 39.4113 29.2213 39.8209 28.883 40.1814C28.2065 40.9596 27.167 41.3447 25.6985 41.3447C24.395 41.3447 23.438 40.976 22.7698 40.2142C22.0768 39.4359 21.7385 38.3873 21.7385 37.011ZM45.4325 36.372C44.7643 36.028 43.6175 35.7658 41.9428 35.5856C39.8225 35.3234 39.0223 35.1432 38.7335 35.0449C38.0488 34.7827 37.9498 34.4551 37.9498 34.1683C37.9498 33.644 38.1313 33.3082 38.5273 33.0624C38.8738 32.8576 39.575 32.6118 40.9693 32.6118C43.6258 32.6118 43.964 33.7014 43.964 34.6599V35.1268H47.033V34.6599C47.033 32.5299 45.9935 29.9903 41.0188 29.9903C40.103 29.9903 39.2698 30.0641 38.552 30.2115C37.8095 30.359 37.1825 30.5802 36.6215 30.8915C35.5078 31.6288 34.9468 32.7347 34.9468 34.2011C34.9468 35.7167 35.615 36.839 36.8855 37.4288C37.2238 37.5927 37.991 37.8466 40.631 38.2317C43.0648 38.5839 43.502 38.6904 43.5763 38.715C44.1538 38.9362 44.4013 39.2802 44.4013 39.8701C44.4013 40.2879 44.4013 41.4266 41.2828 41.4266C39.4843 41.4266 38.6923 41.0743 38.321 40.763C37.9828 40.5009 37.8013 40.0995 37.7435 39.567H34.592C34.6745 40.2469 34.823 40.845 35.0375 41.3365C35.3098 41.9181 35.6728 42.4015 36.1265 42.7537C36.6875 43.2207 37.4218 43.5484 38.2963 43.745C39.113 43.9334 40.1195 44.0235 41.2828 44.0235C46.4308 44.0235 47.5115 41.6478 47.5115 39.6571C47.5115 38.1333 46.7855 36.9946 45.4325 36.372ZM115.764 36.372C115.087 36.028 113.941 35.7658 112.266 35.5856C110.154 35.3234 109.354 35.1432 109.065 35.0449C108.372 34.7827 108.281 34.4551 108.281 34.1683C108.281 33.644 108.454 33.3082 108.859 33.0624C109.197 32.8576 109.906 32.6118 111.301 32.6118C113.949 32.6118 114.287 33.7014 114.287 34.6599V35.1268H117.364V34.6599C117.364 32.5299 116.317 29.9903 111.35 29.9903C110.426 29.9903 109.593 30.0641 108.875 30.2115C108.141 30.359 107.506 30.5802 106.953 30.8915C105.839 31.6288 105.27 32.7347 105.27 34.2011C105.27 35.7167 105.938 36.839 107.209 37.4288C107.555 37.5927 108.314 37.8466 110.962 38.2317C113.388 38.5839 113.833 38.6904 113.899 38.715C114.485 38.9362 114.724 39.2802 114.724 39.8701C114.724 40.2879 114.724 41.4266 111.614 41.4266C109.807 41.4266 109.015 41.0743 108.644 40.763C108.306 40.5009 108.124 40.0995 108.067 39.567H104.915C104.998 40.2469 105.146 40.845 105.369 41.3365C105.633 41.9181 105.996 42.4015 106.45 42.7537C107.019 43.2207 107.745 43.5484 108.619 43.745C109.436 43.9334 110.443 44.0235 111.614 44.0235C116.754 44.0235 117.835 41.6478 117.835 39.6571C117.835 38.1333 117.109 36.9946 115.764 36.372ZM74.4725 31.2601C74.3158 31.1208 74.2003 31.0307 74.1095 30.957C73.0948 30.2934 71.7913 29.9576 70.232 29.9576C67.9633 29.9576 66.1813 30.6129 64.952 31.8745C63.7805 33.046 63.1783 34.7254 63.1783 36.8636C63.1783 37.9203 63.3268 38.8788 63.6155 39.7062C63.9125 40.5664 64.3498 41.3037 64.9438 41.9263C66.173 43.1551 67.9138 43.7696 70.1083 43.7696C71.8985 43.7696 73.3588 43.3681 74.4725 42.5571V42.8438C74.456 45.2933 74.1838 45.7111 73.5815 46.3255C73.004 46.9235 71.9728 47.2348 70.5208 47.2348C68.7883 47.2348 67.988 46.8908 67.6168 46.6041C67.2703 46.3337 67.0063 45.7684 66.8578 44.9738L66.7423 44.3676L63.7228 44.4004L63.7393 45.2278C63.7805 45.5555 63.8383 45.8586 63.9208 46.1535C64.2013 47.2512 64.7293 48.095 65.4718 48.6767C66.536 49.4959 68.2025 49.8973 70.5703 49.8973C76.3453 49.8973 77.558 46.4894 77.558 43.6221V30.3426H74.4808L74.4725 31.2601ZM72.2203 40.7385C71.75 40.9269 71.1973 41.017 70.5703 41.017C67.6333 41.017 66.3215 39.739 66.3215 36.8636C66.3215 35.5446 66.668 34.5452 67.3775 33.8325C68.0953 33.1115 69.1018 32.7675 70.4548 32.7675C71.8078 32.7675 72.7895 33.1115 73.4578 33.8243C74.1425 34.5616 74.4725 35.5364 74.4725 36.798C74.4725 38.1743 74.126 39.2311 73.4578 39.9274C73.0948 40.2879 72.674 40.5582 72.2203 40.7385ZM83.0855 30.7276C83.036 30.7686 82.9865 30.8014 82.937 30.8423V30.3508H79.9175L79.934 43.6221H82.937V37.1175C82.937 33.3 84.7025 32.8576 86.0308 32.8576C86.3855 32.8576 88.0603 32.8658 88.0603 32.8658V29.9576H86.2865C84.9005 29.9576 83.8693 30.2033 83.0855 30.7276ZM99.6515 39.567C99.0658 40.7794 98.0015 41.3611 96.335 41.3611C94.9243 41.3611 93.8848 40.9515 93.1505 40.1159C92.6555 39.5506 92.3585 38.8624 92.2513 38.0268H103.282V37.2977C103.282 35.1268 102.721 33.3819 101.623 32.1039C101.005 31.3748 100.221 30.8259 99.305 30.4737C98.4223 30.1378 97.3828 29.9576 96.2195 29.9576C94.0168 29.9576 92.2678 30.5884 91.022 31.8336C89.7845 33.0788 89.1493 34.7746 89.1493 36.8636C89.1493 38.9608 89.7515 40.6565 90.9395 41.9099C92.2265 43.3108 94.0498 44.0235 96.3515 44.0235C97.259 44.0235 98.117 43.8924 98.9008 43.6385C99.6928 43.3845 100.394 43.0159 101.021 42.5243C101.97 41.7133 102.613 40.7221 102.935 39.567H99.6515ZM93.3073 33.6277C93.6785 33.2672 94.1075 32.9887 94.5695 32.8166C95.048 32.6364 95.609 32.5463 96.2195 32.5463C97.4075 32.5463 98.3398 32.9149 99.0823 33.6768C99.635 34.2421 99.9733 34.8483 100.114 35.5037H92.3668C92.573 34.709 92.8948 34.0782 93.3073 33.6277Z" fill="#1090CF"/>
<path d="M61.4622 43.1961V42.4752H58.484V43.2125C58.484 43.2125 58.4922 43.6139 58.484 43.745C58.4757 43.9416 58.3767 44.7035 58.3272 44.8837C58.2447 45.2032 58.1375 45.58 58.0797 45.7848C58.0302 45.9077 57.9725 46.0306 57.9147 46.1453C57.3867 47.1775 56.207 47.669 55.0602 47.4642C53.3855 47.1775 52.1562 45.6046 52.3872 43.9006C52.5027 43.0486 52.709 42.2048 53.105 41.443C53.8475 40.0012 54.755 38.6494 55.679 37.3141C55.8522 37.0602 56.504 36.1099 57.263 34.6353C58.0467 34.9875 58.7397 35.1842 59.1935 35.2906C60.035 35.4873 60.5465 35.5364 60.9425 35.4463C60.992 35.4299 61.3632 35.3726 61.454 35.2251C61.487 35.176 61.4045 35.0695 61.2972 35.0449C60.0515 34.7172 58.8387 34.3076 57.8817 33.3655C58.6902 31.6042 59.5235 29.3431 59.9937 26.7708C60.3485 24.8784 60.761 22.9942 60.8517 21.0445C60.9425 19.4224 60.8847 17.6201 60.6537 16.0964C60.1835 12.8851 58.7727 10.6076 56.5865 8.27286C53.732 5.22538 49.7472 3.82451 45.6305 3.43129C41.2745 3.02168 38.7417 4.22593 36.8112 5.80702C34.5177 7.69122 34.0557 9.45254 33.8907 11.9675C33.767 13.9828 34.1465 15.1379 35.1695 17.2105C35.912 18.7179 39.0057 21.3312 39.872 22.7648C40.7052 24.1493 40.4825 24.3213 41.0765 25.8287C41.3735 26.5824 42.8915 27.8358 44.2775 27.6474C45.6552 27.4589 46.7525 26.4759 47.5115 24.5589C47.7837 23.8544 47.8002 23.1826 47.8827 22.5846C48.089 20.9871 48.0395 19.6682 48.1962 17.6857C48.221 17.4645 48.2375 17.2023 48.1385 17.0794C47.8662 16.7518 47.5115 16.891 47.3465 17.2023C47.2392 17.3989 47.2145 17.6365 47.1485 17.8577C46.5215 19.9713 45.2262 23.027 45.1685 23.2072C44.9787 23.7069 44.5002 24.6982 44.1702 24.6654C43.997 24.649 43.865 24.6408 43.766 24.3213C43.667 23.9773 43.2215 22.347 41.7282 20.512C39.0882 17.2597 37.6362 15.695 37.1495 13.5486C36.6215 11.1893 37.694 8.68247 39.7317 7.55195C40.796 6.96212 43.0152 6.07736 45.3995 6.32313C48.3365 6.63443 51.587 7.66664 53.6082 9.87853C56.009 12.5082 57.56 13.9992 57.6425 18.7834C57.692 21.5933 57.065 24.8702 56.3802 27.5818C56.2895 27.8522 56.1987 28.1307 56.108 28.4092C55.8522 29.1629 55.6212 29.8101 55.3985 30.3999C55.3325 30.3016 55.217 30.1378 55.184 30.0886C54.821 29.5807 54.4992 29.1056 54.128 28.6714C53.6825 28.1471 53.2287 27.5818 52.676 27.1886C51.9747 26.6889 51.224 26.566 50.6135 27.2377C50.3082 27.5736 50.102 28.057 50.3247 28.6058C50.9765 30.2279 52.247 31.4239 53.6495 32.5463C53.7155 32.6036 53.9712 32.7757 54.2682 32.9641C53.7732 33.9307 53.2122 34.8647 52.478 36.1017C51.422 37.863 50.2175 39.9192 49.8297 40.8777C49.0955 42.7046 49.0212 44.597 49.475 46.5057C49.673 47.3413 50.0855 48.0459 50.6795 48.6685C52.544 50.651 55.745 51.1261 58.1622 50.1758C58.7232 49.9546 59.276 49.545 59.6555 49.0781C60.6537 47.8574 61.2312 46.4812 61.4127 44.9902C61.4292 44.8263 61.4375 44.3922 61.454 44.0153C61.454 43.9498 61.4622 43.8842 61.4622 43.8433C61.4705 43.6794 61.4622 43.2043 61.4622 43.1961ZM56.5617 22.4945C56.5617 23.3383 55.877 24.0264 55.0272 24.0264C54.1775 24.0264 53.4845 23.3383 53.4845 22.4945C53.4845 21.6507 54.1775 20.9707 55.0272 20.9707C55.877 20.9707 56.5617 21.6507 56.5617 22.4945ZM131.142 24.1411L121.382 24.1739V43.6549L124.674 43.6303L124.657 35.987H130.647C132.511 35.987 134.021 35.4545 135.126 34.4059C136.24 33.3409 136.801 31.8827 136.801 30.064C136.801 28.2536 136.298 26.8118 135.308 25.755C134.31 24.6818 132.907 24.1411 131.142 24.1411ZM133.501 30.1132C133.501 32.1694 132.495 33.087 130.242 33.087H124.674V27.0329H130.581C132.602 27.0329 133.501 27.9832 133.501 30.1132ZM155.223 29.9575C152.963 29.9575 151.181 30.6621 149.927 32.0465C148.797 33.2836 148.219 34.9548 148.219 37.011C148.219 39.0509 148.813 40.7466 149.985 42.041C150.636 42.7373 151.404 43.2534 152.27 43.5811C153.12 43.8924 154.11 44.0563 155.223 44.0563C157.591 44.0563 159.431 43.3681 160.701 42.0082C161.84 40.7958 162.417 39.1164 162.417 37.011C162.417 34.8974 161.832 33.2016 160.685 31.9974C159.439 30.6457 157.599 29.9575 155.223 29.9575ZM151.263 37.011C151.263 36.3065 151.354 35.6675 151.544 35.1268C151.717 34.6025 151.973 34.1601 152.303 33.8079C153.004 33.0542 153.961 32.6937 155.223 32.6937C158.053 32.6937 159.373 34.0618 159.373 37.011C159.373 37.7319 159.291 38.3709 159.126 38.9034C158.977 39.4113 158.746 39.8209 158.408 40.1814C157.731 40.9596 156.692 41.3447 155.223 41.3447C153.92 41.3447 152.963 40.976 152.295 40.2141C151.602 39.4359 151.263 38.3873 151.263 37.011ZM142.221 30.7276C142.172 30.7686 142.122 30.8013 142.073 30.8423V30.3508H139.053L139.07 43.6221H142.073V37.1175C142.073 33.3 143.838 32.8576 145.167 32.8576C145.521 32.8576 147.196 32.8658 147.196 32.8658V29.9575H145.422C144.036 29.9575 143.005 30.2033 142.221 30.7276Z" fill="#003D52"/>
</g>
<defs>
<clipPath id="clip0_3167_8618">
<rect width="165" height="52.3171" fill="white" transform="translate(0 0.785156)"/>
</clipPath>
</defs>
</svg>
